%TF.GenerationSoftware,KiCad,Pcbnew,(5.1.9-0-10_14)*%
%TF.CreationDate,2021-09-13T12:25:13+02:00*%
%TF.ProjectId,SmartwatchPCB,536d6172-7477-4617-9463-685043422e6b,rev?*%
%TF.SameCoordinates,Original*%
%TF.FileFunction,Legend,Top*%
%TF.FilePolarity,Positive*%
%FSLAX46Y46*%
G04 Gerber Fmt 4.6, Leading zero omitted, Abs format (unit mm)*
G04 Created by KiCad (PCBNEW (5.1.9-0-10_14)) date 2021-09-13 12:25:13*
%MOMM*%
%LPD*%
G01*
G04 APERTURE LIST*
%ADD10C,0.150000*%
%ADD11C,0.120000*%
G04 APERTURE END LIST*
D10*
X22668000Y-48715571D02*
X22610857Y-48687000D01*
X22553714Y-48629857D01*
X22468000Y-48544142D01*
X22410857Y-48515571D01*
X22353714Y-48515571D01*
X22382285Y-48658428D02*
X22325142Y-48629857D01*
X22268000Y-48572714D01*
X22239428Y-48458428D01*
X22239428Y-48258428D01*
X22268000Y-48144142D01*
X22325142Y-48087000D01*
X22382285Y-48058428D01*
X22496571Y-48058428D01*
X22553714Y-48087000D01*
X22610857Y-48144142D01*
X22639428Y-48258428D01*
X22639428Y-48458428D01*
X22610857Y-48572714D01*
X22553714Y-48629857D01*
X22496571Y-48658428D01*
X22382285Y-48658428D01*
X22839428Y-48058428D02*
X22982285Y-48658428D01*
X23096571Y-48229857D01*
X23210857Y-48658428D01*
X23353714Y-48058428D01*
X23582285Y-48658428D02*
X23582285Y-48058428D01*
X23868000Y-48658428D02*
X23868000Y-48058428D01*
X24496571Y-48601285D02*
X24468000Y-48629857D01*
X24382285Y-48658428D01*
X24325142Y-48658428D01*
X24239428Y-48629857D01*
X24182285Y-48572714D01*
X24153714Y-48515571D01*
X24125142Y-48401285D01*
X24125142Y-48315571D01*
X24153714Y-48201285D01*
X24182285Y-48144142D01*
X24239428Y-48087000D01*
X24325142Y-48058428D01*
X24382285Y-48058428D01*
X24468000Y-48087000D01*
X24496571Y-48115571D01*
X33305857Y-50909571D02*
X33334428Y-50881000D01*
X33391571Y-50852428D01*
X33534428Y-50852428D01*
X33591571Y-50881000D01*
X33620142Y-50909571D01*
X33648714Y-50966714D01*
X33648714Y-51023857D01*
X33620142Y-51109571D01*
X33277285Y-51452428D01*
X33648714Y-51452428D01*
X33905857Y-51395285D02*
X33934428Y-51423857D01*
X33905857Y-51452428D01*
X33877285Y-51423857D01*
X33905857Y-51395285D01*
X33905857Y-51452428D01*
X34477285Y-50852428D02*
X34191571Y-50852428D01*
X34163000Y-51138142D01*
X34191571Y-51109571D01*
X34248714Y-51081000D01*
X34391571Y-51081000D01*
X34448714Y-51109571D01*
X34477285Y-51138142D01*
X34505857Y-51195285D01*
X34505857Y-51338142D01*
X34477285Y-51395285D01*
X34448714Y-51423857D01*
X34391571Y-51452428D01*
X34248714Y-51452428D01*
X34191571Y-51423857D01*
X34163000Y-51395285D01*
X34677285Y-50852428D02*
X34877285Y-51452428D01*
X35077285Y-50852428D01*
X35104428Y-23004428D02*
X34904428Y-22718714D01*
X34761571Y-23004428D02*
X34761571Y-22404428D01*
X34990142Y-22404428D01*
X35047285Y-22433000D01*
X35075857Y-22461571D01*
X35104428Y-22518714D01*
X35104428Y-22604428D01*
X35075857Y-22661571D01*
X35047285Y-22690142D01*
X34990142Y-22718714D01*
X34761571Y-22718714D01*
X35333000Y-22975857D02*
X35418714Y-23004428D01*
X35561571Y-23004428D01*
X35618714Y-22975857D01*
X35647285Y-22947285D01*
X35675857Y-22890142D01*
X35675857Y-22833000D01*
X35647285Y-22775857D01*
X35618714Y-22747285D01*
X35561571Y-22718714D01*
X35447285Y-22690142D01*
X35390142Y-22661571D01*
X35361571Y-22633000D01*
X35333000Y-22575857D01*
X35333000Y-22518714D01*
X35361571Y-22461571D01*
X35390142Y-22433000D01*
X35447285Y-22404428D01*
X35590142Y-22404428D01*
X35675857Y-22433000D01*
X35847285Y-22404428D02*
X36190142Y-22404428D01*
X36018714Y-23004428D02*
X36018714Y-22404428D01*
X32531285Y-26658857D02*
X32617000Y-26687428D01*
X32759857Y-26687428D01*
X32817000Y-26658857D01*
X32845571Y-26630285D01*
X32874142Y-26573142D01*
X32874142Y-26516000D01*
X32845571Y-26458857D01*
X32817000Y-26430285D01*
X32759857Y-26401714D01*
X32645571Y-26373142D01*
X32588428Y-26344571D01*
X32559857Y-26316000D01*
X32531285Y-26258857D01*
X32531285Y-26201714D01*
X32559857Y-26144571D01*
X32588428Y-26116000D01*
X32645571Y-26087428D01*
X32788428Y-26087428D01*
X32874142Y-26116000D01*
X33102714Y-26516000D02*
X33388428Y-26516000D01*
X33045571Y-26687428D02*
X33245571Y-26087428D01*
X33445571Y-26687428D01*
X33645571Y-26687428D02*
X33645571Y-26087428D01*
X33845571Y-26516000D01*
X34045571Y-26087428D01*
X34045571Y-26687428D01*
X34617000Y-26687428D02*
X34331285Y-26687428D01*
X34331285Y-26087428D01*
X34788428Y-26144571D02*
X34817000Y-26116000D01*
X34874142Y-26087428D01*
X35017000Y-26087428D01*
X35074142Y-26116000D01*
X35102714Y-26144571D01*
X35131285Y-26201714D01*
X35131285Y-26258857D01*
X35102714Y-26344571D01*
X34759857Y-26687428D01*
X35131285Y-26687428D01*
X35359857Y-26144571D02*
X35388428Y-26116000D01*
X35445571Y-26087428D01*
X35588428Y-26087428D01*
X35645571Y-26116000D01*
X35674142Y-26144571D01*
X35702714Y-26201714D01*
X35702714Y-26258857D01*
X35674142Y-26344571D01*
X35331285Y-26687428D01*
X35702714Y-26687428D01*
X36274142Y-26116000D02*
X36217000Y-26087428D01*
X36131285Y-26087428D01*
X36045571Y-26116000D01*
X35988428Y-26173142D01*
X35959857Y-26230285D01*
X35931285Y-26344571D01*
X35931285Y-26430285D01*
X35959857Y-26544571D01*
X35988428Y-26601714D01*
X36045571Y-26658857D01*
X36131285Y-26687428D01*
X36188428Y-26687428D01*
X36274142Y-26658857D01*
X36302714Y-26630285D01*
X36302714Y-26430285D01*
X36188428Y-26430285D01*
X23086047Y-31618814D02*
X23124142Y-31580719D01*
X23162238Y-31504528D01*
X23162238Y-31428338D01*
X23124142Y-31352147D01*
X23086047Y-31314052D01*
X23009857Y-31275957D01*
X22933666Y-31275957D01*
X22857476Y-31314052D01*
X22819380Y-31352147D01*
X22781285Y-31428338D01*
X22781285Y-31504528D01*
X22819380Y-31580719D01*
X22857476Y-31618814D01*
X23162238Y-31618814D02*
X22857476Y-31618814D01*
X22819380Y-31656909D01*
X22819380Y-31695004D01*
X22857476Y-31771195D01*
X22933666Y-31809290D01*
X23124142Y-31809290D01*
X23238428Y-31733100D01*
X23314619Y-31618814D01*
X23352714Y-31466433D01*
X23314619Y-31314052D01*
X23238428Y-31199766D01*
X23124142Y-31123576D01*
X22971761Y-31085480D01*
X22819380Y-31123576D01*
X22705095Y-31199766D01*
X22628904Y-31314052D01*
X22590809Y-31466433D01*
X22628904Y-31618814D01*
X22705095Y-31733100D01*
X22705095Y-32495004D02*
X23505095Y-32495004D01*
X22743190Y-32495004D02*
X22705095Y-32418814D01*
X22705095Y-32266433D01*
X22743190Y-32190242D01*
X22781285Y-32152147D01*
X22857476Y-32114052D01*
X23086047Y-32114052D01*
X23162238Y-32152147D01*
X23200333Y-32190242D01*
X23238428Y-32266433D01*
X23238428Y-32418814D01*
X23200333Y-32495004D01*
X22705095Y-33218814D02*
X23124142Y-33218814D01*
X23200333Y-33180719D01*
X23238428Y-33104528D01*
X23238428Y-32952147D01*
X23200333Y-32875957D01*
X22743190Y-33218814D02*
X22705095Y-33142623D01*
X22705095Y-32952147D01*
X22743190Y-32875957D01*
X22819380Y-32837861D01*
X22895571Y-32837861D01*
X22971761Y-32875957D01*
X23009857Y-32952147D01*
X23009857Y-33142623D01*
X23047952Y-33218814D01*
X23238428Y-33523576D02*
X22705095Y-33714052D01*
X23238428Y-33904528D01*
X22743190Y-34514052D02*
X22705095Y-34437861D01*
X22705095Y-34285480D01*
X22743190Y-34209290D01*
X22819380Y-34171195D01*
X23124142Y-34171195D01*
X23200333Y-34209290D01*
X23238428Y-34285480D01*
X23238428Y-34437861D01*
X23200333Y-34514052D01*
X23124142Y-34552147D01*
X23047952Y-34552147D01*
X22971761Y-34171195D01*
X22705095Y-35237861D02*
X23505095Y-35237861D01*
X22743190Y-35237861D02*
X22705095Y-35161671D01*
X22705095Y-35009290D01*
X22743190Y-34933100D01*
X22781285Y-34895004D01*
X22857476Y-34856909D01*
X23086047Y-34856909D01*
X23162238Y-34895004D01*
X23200333Y-34933100D01*
X23238428Y-35009290D01*
X23238428Y-35161671D01*
X23200333Y-35237861D01*
X22705095Y-35961671D02*
X23124142Y-35961671D01*
X23200333Y-35923576D01*
X23238428Y-35847385D01*
X23238428Y-35695004D01*
X23200333Y-35618814D01*
X22743190Y-35961671D02*
X22705095Y-35885480D01*
X22705095Y-35695004D01*
X22743190Y-35618814D01*
X22819380Y-35580719D01*
X22895571Y-35580719D01*
X22971761Y-35618814D01*
X23009857Y-35695004D01*
X23009857Y-35885480D01*
X23047952Y-35961671D01*
X22705095Y-36342623D02*
X23238428Y-36342623D01*
X23086047Y-36342623D02*
X23162238Y-36380719D01*
X23200333Y-36418814D01*
X23238428Y-36495004D01*
X23238428Y-36571195D01*
X22705095Y-36837861D02*
X23505095Y-36837861D01*
X23009857Y-36914052D02*
X22705095Y-37142623D01*
X23238428Y-37142623D02*
X22933666Y-36837861D01*
X22705095Y-37599766D02*
X22743190Y-37523576D01*
X22781285Y-37485480D01*
X22857476Y-37447385D01*
X23086047Y-37447385D01*
X23162238Y-37485480D01*
X23200333Y-37523576D01*
X23238428Y-37599766D01*
X23238428Y-37714052D01*
X23200333Y-37790242D01*
X23162238Y-37828338D01*
X23086047Y-37866433D01*
X22857476Y-37866433D01*
X22781285Y-37828338D01*
X22743190Y-37790242D01*
X22705095Y-37714052D01*
X22705095Y-37599766D01*
X21393190Y-31085480D02*
X21355095Y-31199766D01*
X21355095Y-31390242D01*
X21393190Y-31466433D01*
X21431285Y-31504528D01*
X21507476Y-31542623D01*
X21583666Y-31542623D01*
X21659857Y-31504528D01*
X21697952Y-31466433D01*
X21736047Y-31390242D01*
X21774142Y-31237861D01*
X21812238Y-31161671D01*
X21850333Y-31123576D01*
X21926523Y-31085480D01*
X22002714Y-31085480D01*
X22078904Y-31123576D01*
X22117000Y-31161671D01*
X22155095Y-31237861D01*
X22155095Y-31428338D01*
X22117000Y-31542623D01*
X21774142Y-31885480D02*
X21774142Y-32152147D01*
X21355095Y-32266433D02*
X21355095Y-31885480D01*
X22155095Y-31885480D01*
X22155095Y-32266433D01*
X21355095Y-32609290D02*
X22155095Y-32609290D01*
X22155095Y-32914052D01*
X22117000Y-32990242D01*
X22078904Y-33028338D01*
X22002714Y-33066433D01*
X21888428Y-33066433D01*
X21812238Y-33028338D01*
X21774142Y-32990242D01*
X21736047Y-32914052D01*
X21736047Y-32609290D01*
X22078904Y-33371195D02*
X22117000Y-33409290D01*
X22155095Y-33485480D01*
X22155095Y-33675957D01*
X22117000Y-33752147D01*
X22078904Y-33790242D01*
X22002714Y-33828338D01*
X21926523Y-33828338D01*
X21812238Y-33790242D01*
X21355095Y-33333100D01*
X21355095Y-33828338D01*
X22155095Y-34323576D02*
X22155095Y-34399766D01*
X22117000Y-34475957D01*
X22078904Y-34514052D01*
X22002714Y-34552147D01*
X21850333Y-34590242D01*
X21659857Y-34590242D01*
X21507476Y-34552147D01*
X21431285Y-34514052D01*
X21393190Y-34475957D01*
X21355095Y-34399766D01*
X21355095Y-34323576D01*
X21393190Y-34247385D01*
X21431285Y-34209290D01*
X21507476Y-34171195D01*
X21659857Y-34133100D01*
X21850333Y-34133100D01*
X22002714Y-34171195D01*
X22078904Y-34209290D01*
X22117000Y-34247385D01*
X22155095Y-34323576D01*
X22078904Y-34895004D02*
X22117000Y-34933100D01*
X22155095Y-35009290D01*
X22155095Y-35199766D01*
X22117000Y-35275957D01*
X22078904Y-35314052D01*
X22002714Y-35352147D01*
X21926523Y-35352147D01*
X21812238Y-35314052D01*
X21355095Y-34856909D01*
X21355095Y-35352147D01*
X21355095Y-36114052D02*
X21355095Y-35656909D01*
X21355095Y-35885480D02*
X22155095Y-35885480D01*
X22040809Y-35809290D01*
X21964619Y-35733100D01*
X21926523Y-35656909D01*
X20043190Y-31085480D02*
X20005095Y-31199766D01*
X20005095Y-31390242D01*
X20043190Y-31466433D01*
X20081285Y-31504528D01*
X20157476Y-31542623D01*
X20233666Y-31542623D01*
X20309857Y-31504528D01*
X20347952Y-31466433D01*
X20386047Y-31390242D01*
X20424142Y-31237861D01*
X20462238Y-31161671D01*
X20500333Y-31123576D01*
X20576523Y-31085480D01*
X20652714Y-31085480D01*
X20728904Y-31123576D01*
X20767000Y-31161671D01*
X20805095Y-31237861D01*
X20805095Y-31428338D01*
X20767000Y-31542623D01*
X20005095Y-31885480D02*
X20538428Y-31885480D01*
X20462238Y-31885480D02*
X20500333Y-31923576D01*
X20538428Y-31999766D01*
X20538428Y-32114052D01*
X20500333Y-32190242D01*
X20424142Y-32228338D01*
X20005095Y-32228338D01*
X20424142Y-32228338D02*
X20500333Y-32266433D01*
X20538428Y-32342623D01*
X20538428Y-32456909D01*
X20500333Y-32533100D01*
X20424142Y-32571195D01*
X20005095Y-32571195D01*
X20005095Y-33295004D02*
X20424142Y-33295004D01*
X20500333Y-33256909D01*
X20538428Y-33180719D01*
X20538428Y-33028338D01*
X20500333Y-32952147D01*
X20043190Y-33295004D02*
X20005095Y-33218814D01*
X20005095Y-33028338D01*
X20043190Y-32952147D01*
X20119380Y-32914052D01*
X20195571Y-32914052D01*
X20271761Y-32952147D01*
X20309857Y-33028338D01*
X20309857Y-33218814D01*
X20347952Y-33295004D01*
X20005095Y-33675957D02*
X20538428Y-33675957D01*
X20386047Y-33675957D02*
X20462238Y-33714052D01*
X20500333Y-33752147D01*
X20538428Y-33828338D01*
X20538428Y-33904528D01*
X20538428Y-34056909D02*
X20538428Y-34361671D01*
X20805095Y-34171195D02*
X20119380Y-34171195D01*
X20043190Y-34209290D01*
X20005095Y-34285480D01*
X20005095Y-34361671D01*
X20805095Y-34552147D02*
X20005095Y-34742623D01*
X20576523Y-34895004D01*
X20005095Y-35047385D01*
X20805095Y-35237861D01*
X20005095Y-35885480D02*
X20424142Y-35885480D01*
X20500333Y-35847385D01*
X20538428Y-35771195D01*
X20538428Y-35618814D01*
X20500333Y-35542623D01*
X20043190Y-35885480D02*
X20005095Y-35809290D01*
X20005095Y-35618814D01*
X20043190Y-35542623D01*
X20119380Y-35504528D01*
X20195571Y-35504528D01*
X20271761Y-35542623D01*
X20309857Y-35618814D01*
X20309857Y-35809290D01*
X20347952Y-35885480D01*
X20538428Y-36152147D02*
X20538428Y-36456909D01*
X20805095Y-36266433D02*
X20119380Y-36266433D01*
X20043190Y-36304528D01*
X20005095Y-36380719D01*
X20005095Y-36456909D01*
X20043190Y-37066433D02*
X20005095Y-36990242D01*
X20005095Y-36837861D01*
X20043190Y-36761671D01*
X20081285Y-36723576D01*
X20157476Y-36685480D01*
X20386047Y-36685480D01*
X20462238Y-36723576D01*
X20500333Y-36761671D01*
X20538428Y-36837861D01*
X20538428Y-36990242D01*
X20500333Y-37066433D01*
X20005095Y-37409290D02*
X20805095Y-37409290D01*
X20005095Y-37752147D02*
X20424142Y-37752147D01*
X20500333Y-37714052D01*
X20538428Y-37637861D01*
X20538428Y-37523576D01*
X20500333Y-37447385D01*
X20462238Y-37409290D01*
X20005095Y-38133100D02*
X20805095Y-38133100D01*
X20805095Y-38437861D01*
X20767000Y-38514052D01*
X20728904Y-38552147D01*
X20652714Y-38590242D01*
X20538428Y-38590242D01*
X20462238Y-38552147D01*
X20424142Y-38514052D01*
X20386047Y-38437861D01*
X20386047Y-38133100D01*
X20081285Y-39390242D02*
X20043190Y-39352147D01*
X20005095Y-39237861D01*
X20005095Y-39161671D01*
X20043190Y-39047385D01*
X20119380Y-38971195D01*
X20195571Y-38933100D01*
X20347952Y-38895004D01*
X20462238Y-38895004D01*
X20614619Y-38933100D01*
X20690809Y-38971195D01*
X20767000Y-39047385D01*
X20805095Y-39161671D01*
X20805095Y-39237861D01*
X20767000Y-39352147D01*
X20728904Y-39390242D01*
X20424142Y-39999766D02*
X20386047Y-40114052D01*
X20347952Y-40152147D01*
X20271761Y-40190242D01*
X20157476Y-40190242D01*
X20081285Y-40152147D01*
X20043190Y-40114052D01*
X20005095Y-40037861D01*
X20005095Y-39733100D01*
X20805095Y-39733100D01*
X20805095Y-39999766D01*
X20767000Y-40075957D01*
X20728904Y-40114052D01*
X20652714Y-40152147D01*
X20576523Y-40152147D01*
X20500333Y-40114052D01*
X20462238Y-40075957D01*
X20424142Y-39999766D01*
X20424142Y-39733100D01*
X21179057Y-28160628D02*
X21179057Y-27560628D01*
X21807628Y-28160628D02*
X21607628Y-27874914D01*
X21464771Y-28160628D02*
X21464771Y-27560628D01*
X21693342Y-27560628D01*
X21750485Y-27589200D01*
X21779057Y-27617771D01*
X21807628Y-27674914D01*
X21807628Y-27760628D01*
X21779057Y-27817771D01*
X21750485Y-27846342D01*
X21693342Y-27874914D01*
X21464771Y-27874914D01*
X21921914Y-28217771D02*
X22379057Y-28217771D01*
X22521914Y-28160628D02*
X22521914Y-27560628D01*
X22721914Y-27989200D01*
X22921914Y-27560628D01*
X22921914Y-28160628D01*
X23321914Y-27560628D02*
X23436200Y-27560628D01*
X23493342Y-27589200D01*
X23550485Y-27646342D01*
X23579057Y-27760628D01*
X23579057Y-27960628D01*
X23550485Y-28074914D01*
X23493342Y-28132057D01*
X23436200Y-28160628D01*
X23321914Y-28160628D01*
X23264771Y-28132057D01*
X23207628Y-28074914D01*
X23179057Y-27960628D01*
X23179057Y-27760628D01*
X23207628Y-27646342D01*
X23264771Y-27589200D01*
X23321914Y-27560628D01*
X23836200Y-28160628D02*
X23836200Y-27560628D01*
X23979057Y-27560628D01*
X24064771Y-27589200D01*
X24121914Y-27646342D01*
X24150485Y-27703485D01*
X24179057Y-27817771D01*
X24179057Y-27903485D01*
X24150485Y-28017771D01*
X24121914Y-28074914D01*
X24064771Y-28132057D01*
X23979057Y-28160628D01*
X23836200Y-28160628D01*
X24436200Y-27846342D02*
X24636200Y-27846342D01*
X24721914Y-28160628D02*
X24436200Y-28160628D01*
X24436200Y-27560628D01*
X24721914Y-27560628D01*
X21186914Y-27195428D02*
X21186914Y-26595428D01*
X21815485Y-27195428D02*
X21615485Y-26909714D01*
X21472628Y-27195428D02*
X21472628Y-26595428D01*
X21701200Y-26595428D01*
X21758342Y-26624000D01*
X21786914Y-26652571D01*
X21815485Y-26709714D01*
X21815485Y-26795428D01*
X21786914Y-26852571D01*
X21758342Y-26881142D01*
X21701200Y-26909714D01*
X21472628Y-26909714D01*
X21929771Y-27252571D02*
X22386914Y-27252571D01*
X22872628Y-27195428D02*
X22672628Y-26909714D01*
X22529771Y-27195428D02*
X22529771Y-26595428D01*
X22758342Y-26595428D01*
X22815485Y-26624000D01*
X22844057Y-26652571D01*
X22872628Y-26709714D01*
X22872628Y-26795428D01*
X22844057Y-26852571D01*
X22815485Y-26881142D01*
X22758342Y-26909714D01*
X22529771Y-26909714D01*
X23072628Y-26595428D02*
X23472628Y-27195428D01*
X23472628Y-26595428D02*
X23072628Y-27195428D01*
X21182142Y-26255628D02*
X21182142Y-25655628D01*
X21810714Y-26255628D02*
X21610714Y-25969914D01*
X21467857Y-26255628D02*
X21467857Y-25655628D01*
X21696428Y-25655628D01*
X21753571Y-25684200D01*
X21782142Y-25712771D01*
X21810714Y-25769914D01*
X21810714Y-25855628D01*
X21782142Y-25912771D01*
X21753571Y-25941342D01*
X21696428Y-25969914D01*
X21467857Y-25969914D01*
X21925000Y-26312771D02*
X22382142Y-26312771D01*
X22439285Y-25655628D02*
X22782142Y-25655628D01*
X22610714Y-26255628D02*
X22610714Y-25655628D01*
X22925000Y-25655628D02*
X23325000Y-26255628D01*
X23325000Y-25655628D02*
X22925000Y-26255628D01*
X36093476Y-51949400D02*
X36017285Y-51911304D01*
X35903000Y-51911304D01*
X35788714Y-51949400D01*
X35712523Y-52025590D01*
X35674428Y-52101780D01*
X35636333Y-52254161D01*
X35636333Y-52368447D01*
X35674428Y-52520828D01*
X35712523Y-52597019D01*
X35788714Y-52673209D01*
X35903000Y-52711304D01*
X35979190Y-52711304D01*
X36093476Y-52673209D01*
X36131571Y-52635114D01*
X36131571Y-52368447D01*
X35979190Y-52368447D01*
X36474428Y-52711304D02*
X36474428Y-51911304D01*
X36931571Y-52711304D01*
X36931571Y-51911304D01*
X37312523Y-52711304D02*
X37312523Y-51911304D01*
X37503000Y-51911304D01*
X37617285Y-51949400D01*
X37693476Y-52025590D01*
X37731571Y-52101780D01*
X37769666Y-52254161D01*
X37769666Y-52368447D01*
X37731571Y-52520828D01*
X37693476Y-52597019D01*
X37617285Y-52673209D01*
X37503000Y-52711304D01*
X37312523Y-52711304D01*
X33070933Y-51911304D02*
X33337600Y-52711304D01*
X33604266Y-51911304D01*
X34328076Y-52635114D02*
X34289980Y-52673209D01*
X34175695Y-52711304D01*
X34099504Y-52711304D01*
X33985219Y-52673209D01*
X33909028Y-52597019D01*
X33870933Y-52520828D01*
X33832838Y-52368447D01*
X33832838Y-52254161D01*
X33870933Y-52101780D01*
X33909028Y-52025590D01*
X33985219Y-51949400D01*
X34099504Y-51911304D01*
X34175695Y-51911304D01*
X34289980Y-51949400D01*
X34328076Y-51987495D01*
X35128076Y-52635114D02*
X35089980Y-52673209D01*
X34975695Y-52711304D01*
X34899504Y-52711304D01*
X34785219Y-52673209D01*
X34709028Y-52597019D01*
X34670933Y-52520828D01*
X34632838Y-52368447D01*
X34632838Y-52254161D01*
X34670933Y-52101780D01*
X34709028Y-52025590D01*
X34785219Y-51949400D01*
X34899504Y-51911304D01*
X34975695Y-51911304D01*
X35089980Y-51949400D01*
X35128076Y-51987495D01*
X31096009Y-52635114D02*
X31057914Y-52673209D01*
X30943628Y-52711304D01*
X30867438Y-52711304D01*
X30753152Y-52673209D01*
X30676961Y-52597019D01*
X30638866Y-52520828D01*
X30600771Y-52368447D01*
X30600771Y-52254161D01*
X30638866Y-52101780D01*
X30676961Y-52025590D01*
X30753152Y-51949400D01*
X30867438Y-51911304D01*
X30943628Y-51911304D01*
X31057914Y-51949400D01*
X31096009Y-51987495D01*
X31819819Y-52711304D02*
X31438866Y-52711304D01*
X31438866Y-51911304D01*
X32086485Y-52711304D02*
X32086485Y-51911304D01*
X32543628Y-52711304D02*
X32200771Y-52254161D01*
X32543628Y-51911304D02*
X32086485Y-52368447D01*
X28263952Y-52711304D02*
X28263952Y-51911304D01*
X28454428Y-51911304D01*
X28568714Y-51949400D01*
X28644904Y-52025590D01*
X28683000Y-52101780D01*
X28721095Y-52254161D01*
X28721095Y-52368447D01*
X28683000Y-52520828D01*
X28644904Y-52597019D01*
X28568714Y-52673209D01*
X28454428Y-52711304D01*
X28263952Y-52711304D01*
X29063952Y-52711304D02*
X29063952Y-51911304D01*
X29597285Y-51911304D02*
X29749666Y-51911304D01*
X29825857Y-51949400D01*
X29902047Y-52025590D01*
X29940142Y-52177971D01*
X29940142Y-52444638D01*
X29902047Y-52597019D01*
X29825857Y-52673209D01*
X29749666Y-52711304D01*
X29597285Y-52711304D01*
X29521095Y-52673209D01*
X29444904Y-52597019D01*
X29406809Y-52444638D01*
X29406809Y-52177971D01*
X29444904Y-52025590D01*
X29521095Y-51949400D01*
X29597285Y-51911304D01*
X37588971Y-26535028D02*
X37588971Y-25935028D01*
X37817542Y-25935028D01*
X37874685Y-25963600D01*
X37903257Y-25992171D01*
X37931828Y-26049314D01*
X37931828Y-26135028D01*
X37903257Y-26192171D01*
X37874685Y-26220742D01*
X37817542Y-26249314D01*
X37588971Y-26249314D01*
X38188971Y-26535028D02*
X38188971Y-25935028D01*
X38474685Y-26220742D02*
X38674685Y-26220742D01*
X38760400Y-26535028D02*
X38474685Y-26535028D01*
X38474685Y-25935028D01*
X38760400Y-25935028D01*
X38960400Y-25935028D02*
X39360400Y-25935028D01*
X38960400Y-26535028D01*
X39360400Y-26535028D01*
X39703257Y-25935028D02*
X39817542Y-25935028D01*
X39874685Y-25963600D01*
X39931828Y-26020742D01*
X39960400Y-26135028D01*
X39960400Y-26335028D01*
X39931828Y-26449314D01*
X39874685Y-26506457D01*
X39817542Y-26535028D01*
X39703257Y-26535028D01*
X39646114Y-26506457D01*
X39588971Y-26449314D01*
X39560400Y-26335028D01*
X39560400Y-26135028D01*
X39588971Y-26020742D01*
X39646114Y-25963600D01*
X39703257Y-25935028D01*
X35102857Y-43591200D02*
X35045714Y-43562628D01*
X34960000Y-43562628D01*
X34874285Y-43591200D01*
X34817142Y-43648342D01*
X34788571Y-43705485D01*
X34760000Y-43819771D01*
X34760000Y-43905485D01*
X34788571Y-44019771D01*
X34817142Y-44076914D01*
X34874285Y-44134057D01*
X34960000Y-44162628D01*
X35017142Y-44162628D01*
X35102857Y-44134057D01*
X35131428Y-44105485D01*
X35131428Y-43905485D01*
X35017142Y-43905485D01*
X35388571Y-44162628D02*
X35388571Y-43562628D01*
X35731428Y-44162628D01*
X35731428Y-43562628D01*
X36017142Y-44162628D02*
X36017142Y-43562628D01*
X36160000Y-43562628D01*
X36245714Y-43591200D01*
X36302857Y-43648342D01*
X36331428Y-43705485D01*
X36360000Y-43819771D01*
X36360000Y-43905485D01*
X36331428Y-44019771D01*
X36302857Y-44076914D01*
X36245714Y-44134057D01*
X36160000Y-44162628D01*
X36017142Y-44162628D01*
X34523485Y-46102628D02*
X34723485Y-46702628D01*
X34923485Y-46102628D01*
X35323485Y-46388342D02*
X35409200Y-46416914D01*
X35437771Y-46445485D01*
X35466342Y-46502628D01*
X35466342Y-46588342D01*
X35437771Y-46645485D01*
X35409200Y-46674057D01*
X35352057Y-46702628D01*
X35123485Y-46702628D01*
X35123485Y-46102628D01*
X35323485Y-46102628D01*
X35380628Y-46131200D01*
X35409200Y-46159771D01*
X35437771Y-46216914D01*
X35437771Y-46274057D01*
X35409200Y-46331200D01*
X35380628Y-46359771D01*
X35323485Y-46388342D01*
X35123485Y-46388342D01*
X35694914Y-46531200D02*
X35980628Y-46531200D01*
X35637771Y-46702628D02*
X35837771Y-46102628D01*
X36037771Y-46702628D01*
X36152057Y-46102628D02*
X36494914Y-46102628D01*
X36323485Y-46702628D02*
X36323485Y-46102628D01*
X31954914Y-41530628D02*
X32154914Y-42130628D01*
X32354914Y-41530628D01*
X32840628Y-42130628D02*
X32554914Y-42130628D01*
X32554914Y-41530628D01*
X33040628Y-41816342D02*
X33240628Y-41816342D01*
X33326342Y-42130628D02*
X33040628Y-42130628D01*
X33040628Y-41530628D01*
X33326342Y-41530628D01*
X33583485Y-42130628D02*
X33583485Y-41530628D01*
X33726342Y-41530628D01*
X33812057Y-41559200D01*
X33869200Y-41616342D01*
X33897771Y-41673485D01*
X33926342Y-41787771D01*
X33926342Y-41873485D01*
X33897771Y-41987771D01*
X33869200Y-42044914D01*
X33812057Y-42102057D01*
X33726342Y-42130628D01*
X33583485Y-42130628D01*
D11*
%TO.C,TP_RST1*%
X36383000Y-24257000D02*
G75*
G03*
X36383000Y-24257000I-950000J0D01*
G01*
%TO.C,R9*%
X39714700Y-37817058D02*
X39714700Y-37342542D01*
X38669700Y-37817058D02*
X38669700Y-37342542D01*
%TO.C,R8*%
X36790100Y-37317142D02*
X36790100Y-37791658D01*
X37835100Y-37317142D02*
X37835100Y-37791658D01*
%TO.C,R7*%
X26432742Y-46725100D02*
X26907258Y-46725100D01*
X26432742Y-45680100D02*
X26907258Y-45680100D01*
%TO.C,R6*%
X26432742Y-45150300D02*
X26907258Y-45150300D01*
X26432742Y-44105300D02*
X26907258Y-44105300D01*
%TO.C,J3*%
X27727600Y-55736800D02*
X27727600Y-54406800D01*
X29057600Y-55736800D02*
X27727600Y-55736800D01*
X30327600Y-55736800D02*
X30327600Y-53076800D01*
X30327600Y-53076800D02*
X38007600Y-53076800D01*
X30327600Y-55736800D02*
X38007600Y-55736800D01*
X38007600Y-55736800D02*
X38007600Y-53076800D01*
%TO.C,TP_VBAT1*%
X38592800Y-46151800D02*
G75*
G03*
X38592800Y-46151800I-950000J0D01*
G01*
%TO.C,TP_GND1*%
X38542000Y-43027600D02*
G75*
G03*
X38542000Y-43027600I-950000J0D01*
G01*
%TO.C,C7*%
X40742780Y-50747200D02*
X40461620Y-50747200D01*
X40742780Y-51767200D02*
X40461620Y-51767200D01*
%TO.C,C6*%
X38507580Y-47750000D02*
X38226420Y-47750000D01*
X38507580Y-48770000D02*
X38226420Y-48770000D01*
%TO.C,C5*%
X45416380Y-36218400D02*
X45135220Y-36218400D01*
X45416380Y-37238400D02*
X45135220Y-37238400D01*
%TO.C,U3*%
X45869500Y-50303000D02*
X45869500Y-47853000D01*
X42649500Y-48503000D02*
X42649500Y-50303000D01*
%TO.C,U2*%
X42649500Y-43296000D02*
X42649500Y-45746000D01*
X45869500Y-45096000D02*
X45869500Y-43296000D01*
%TO.C,R5*%
X45025542Y-39028900D02*
X45500058Y-39028900D01*
X45025542Y-37983900D02*
X45500058Y-37983900D01*
%TO.C,R4*%
X40879500Y-43641242D02*
X40879500Y-44115758D01*
X41924500Y-43641242D02*
X41924500Y-44115758D01*
%TO.C,D2*%
X45880700Y-40209000D02*
X43395700Y-40209000D01*
X45880700Y-41579000D02*
X45880700Y-40209000D01*
X43395700Y-41579000D02*
X45880700Y-41579000D01*
%TO.C,IC1*%
X29300800Y-27479600D02*
X28825800Y-27479600D01*
X36045800Y-34699600D02*
X36045800Y-34224600D01*
X35570800Y-34699600D02*
X36045800Y-34699600D01*
X28825800Y-34699600D02*
X28825800Y-34224600D01*
X29300800Y-34699600D02*
X28825800Y-34699600D01*
X36045800Y-27479600D02*
X36045800Y-27954600D01*
X35570800Y-27479600D02*
X36045800Y-27479600D01*
%TO.C,J2*%
X19191000Y-42187800D02*
X19191000Y-46067800D01*
X23661000Y-47237800D02*
X23661000Y-46187800D01*
X21161000Y-47237800D02*
X23661000Y-47237800D01*
X23661000Y-42067800D02*
X24651000Y-42067800D01*
X23661000Y-41017800D02*
X23661000Y-42067800D01*
X21161000Y-41017800D02*
X23661000Y-41017800D01*
%TO.C,L1*%
X32527021Y-25529000D02*
X32852579Y-25529000D01*
X32527021Y-24509000D02*
X32852579Y-24509000D01*
%TO.C,C1*%
X23797800Y-21945020D02*
X23797800Y-22226180D01*
X24817800Y-21945020D02*
X24817800Y-22226180D01*
%TO.C,C2*%
X27967400Y-42494780D02*
X27967400Y-42213620D01*
X26947400Y-42494780D02*
X26947400Y-42213620D01*
%TO.C,C3*%
X32855780Y-22858000D02*
X32574620Y-22858000D01*
X32855780Y-23878000D02*
X32574620Y-23878000D01*
%TO.C,C4*%
X32449380Y-37310600D02*
X32168220Y-37310600D01*
X32449380Y-38330600D02*
X32168220Y-38330600D01*
D10*
%TO.C,J1*%
X40957800Y-25606600D02*
X40957800Y-24881600D01*
X40957800Y-29206600D02*
X40957800Y-29931600D01*
X40532800Y-29206600D02*
X40957800Y-29206600D01*
X40532800Y-28481600D02*
X40532800Y-29206600D01*
X44107800Y-23256600D02*
X42707800Y-23256600D01*
X46657800Y-23256600D02*
X46507800Y-23256600D01*
X46657800Y-23556600D02*
X46657800Y-23256600D01*
X47107800Y-23556600D02*
X46657800Y-23556600D01*
X46657800Y-31256600D02*
X47107800Y-31256600D01*
X46657800Y-31556600D02*
X46657800Y-31256600D01*
X46507800Y-31556600D02*
X46657800Y-31556600D01*
X42707800Y-31556600D02*
X44107800Y-31556600D01*
D11*
%TO.C,R2*%
X22671300Y-22372858D02*
X22671300Y-21898342D01*
X21626300Y-22372858D02*
X21626300Y-21898342D01*
%TO.C,R3*%
X33041858Y-49210700D02*
X32567342Y-49210700D01*
X33041858Y-50255700D02*
X32567342Y-50255700D01*
%TO.C,TP_PIEZO_GND1*%
X39456400Y-21844000D02*
G75*
G03*
X39456400Y-21844000I-950000J0D01*
G01*
%TO.C,TP_PIEZO_SIGNAL1*%
X39481800Y-24739600D02*
G75*
G03*
X39481800Y-24739600I-950000J0D01*
G01*
%TO.C,TP_VLCD1*%
X33893800Y-40233600D02*
G75*
G03*
X33893800Y-40233600I-950000J0D01*
G01*
%TO.C,R9*%
D10*
X39143000Y-39768428D02*
X38943000Y-39482714D01*
X38800142Y-39768428D02*
X38800142Y-39168428D01*
X39028714Y-39168428D01*
X39085857Y-39197000D01*
X39114428Y-39225571D01*
X39143000Y-39282714D01*
X39143000Y-39368428D01*
X39114428Y-39425571D01*
X39085857Y-39454142D01*
X39028714Y-39482714D01*
X38800142Y-39482714D01*
X39428714Y-39768428D02*
X39543000Y-39768428D01*
X39600142Y-39739857D01*
X39628714Y-39711285D01*
X39685857Y-39625571D01*
X39714428Y-39511285D01*
X39714428Y-39282714D01*
X39685857Y-39225571D01*
X39657285Y-39197000D01*
X39600142Y-39168428D01*
X39485857Y-39168428D01*
X39428714Y-39197000D01*
X39400142Y-39225571D01*
X39371571Y-39282714D01*
X39371571Y-39425571D01*
X39400142Y-39482714D01*
X39428714Y-39511285D01*
X39485857Y-39539857D01*
X39600142Y-39539857D01*
X39657285Y-39511285D01*
X39685857Y-39482714D01*
X39714428Y-39425571D01*
%TO.C,R8*%
X37238000Y-39768428D02*
X37038000Y-39482714D01*
X36895142Y-39768428D02*
X36895142Y-39168428D01*
X37123714Y-39168428D01*
X37180857Y-39197000D01*
X37209428Y-39225571D01*
X37238000Y-39282714D01*
X37238000Y-39368428D01*
X37209428Y-39425571D01*
X37180857Y-39454142D01*
X37123714Y-39482714D01*
X36895142Y-39482714D01*
X37580857Y-39425571D02*
X37523714Y-39397000D01*
X37495142Y-39368428D01*
X37466571Y-39311285D01*
X37466571Y-39282714D01*
X37495142Y-39225571D01*
X37523714Y-39197000D01*
X37580857Y-39168428D01*
X37695142Y-39168428D01*
X37752285Y-39197000D01*
X37780857Y-39225571D01*
X37809428Y-39282714D01*
X37809428Y-39311285D01*
X37780857Y-39368428D01*
X37752285Y-39397000D01*
X37695142Y-39425571D01*
X37580857Y-39425571D01*
X37523714Y-39454142D01*
X37495142Y-39482714D01*
X37466571Y-39539857D01*
X37466571Y-39654142D01*
X37495142Y-39711285D01*
X37523714Y-39739857D01*
X37580857Y-39768428D01*
X37695142Y-39768428D01*
X37752285Y-39739857D01*
X37780857Y-39711285D01*
X37809428Y-39654142D01*
X37809428Y-39539857D01*
X37780857Y-39482714D01*
X37752285Y-39454142D01*
X37695142Y-39425571D01*
%TO.C,R7*%
X28856000Y-46499428D02*
X28656000Y-46213714D01*
X28513142Y-46499428D02*
X28513142Y-45899428D01*
X28741714Y-45899428D01*
X28798857Y-45928000D01*
X28827428Y-45956571D01*
X28856000Y-46013714D01*
X28856000Y-46099428D01*
X28827428Y-46156571D01*
X28798857Y-46185142D01*
X28741714Y-46213714D01*
X28513142Y-46213714D01*
X29056000Y-45899428D02*
X29456000Y-45899428D01*
X29198857Y-46499428D01*
%TO.C,R6*%
X28932200Y-44924628D02*
X28732200Y-44638914D01*
X28589342Y-44924628D02*
X28589342Y-44324628D01*
X28817914Y-44324628D01*
X28875057Y-44353200D01*
X28903628Y-44381771D01*
X28932200Y-44438914D01*
X28932200Y-44524628D01*
X28903628Y-44581771D01*
X28875057Y-44610342D01*
X28817914Y-44638914D01*
X28589342Y-44638914D01*
X29446485Y-44324628D02*
X29332200Y-44324628D01*
X29275057Y-44353200D01*
X29246485Y-44381771D01*
X29189342Y-44467485D01*
X29160771Y-44581771D01*
X29160771Y-44810342D01*
X29189342Y-44867485D01*
X29217914Y-44896057D01*
X29275057Y-44924628D01*
X29389342Y-44924628D01*
X29446485Y-44896057D01*
X29475057Y-44867485D01*
X29503628Y-44810342D01*
X29503628Y-44667485D01*
X29475057Y-44610342D01*
X29446485Y-44581771D01*
X29389342Y-44553200D01*
X29275057Y-44553200D01*
X29217914Y-44581771D01*
X29189342Y-44610342D01*
X29160771Y-44667485D01*
%TO.C,J3*%
X26849428Y-54606800D02*
X27278000Y-54606800D01*
X27363714Y-54635371D01*
X27420857Y-54692514D01*
X27449428Y-54778228D01*
X27449428Y-54835371D01*
X26849428Y-54378228D02*
X26849428Y-54006800D01*
X27078000Y-54206800D01*
X27078000Y-54121085D01*
X27106571Y-54063942D01*
X27135142Y-54035371D01*
X27192285Y-54006800D01*
X27335142Y-54006800D01*
X27392285Y-54035371D01*
X27420857Y-54063942D01*
X27449428Y-54121085D01*
X27449428Y-54292514D01*
X27420857Y-54349657D01*
X27392285Y-54378228D01*
%TO.C,C7*%
X38720685Y-51357200D02*
X38749257Y-51385771D01*
X38777828Y-51471485D01*
X38777828Y-51528628D01*
X38749257Y-51614342D01*
X38692114Y-51671485D01*
X38634971Y-51700057D01*
X38520685Y-51728628D01*
X38434971Y-51728628D01*
X38320685Y-51700057D01*
X38263542Y-51671485D01*
X38206400Y-51614342D01*
X38177828Y-51528628D01*
X38177828Y-51471485D01*
X38206400Y-51385771D01*
X38234971Y-51357200D01*
X38177828Y-51157200D02*
X38177828Y-50757200D01*
X38777828Y-51014342D01*
%TO.C,C6*%
X36790285Y-48360000D02*
X36818857Y-48388571D01*
X36847428Y-48474285D01*
X36847428Y-48531428D01*
X36818857Y-48617142D01*
X36761714Y-48674285D01*
X36704571Y-48702857D01*
X36590285Y-48731428D01*
X36504571Y-48731428D01*
X36390285Y-48702857D01*
X36333142Y-48674285D01*
X36276000Y-48617142D01*
X36247428Y-48531428D01*
X36247428Y-48474285D01*
X36276000Y-48388571D01*
X36304571Y-48360000D01*
X36247428Y-47845714D02*
X36247428Y-47960000D01*
X36276000Y-48017142D01*
X36304571Y-48045714D01*
X36390285Y-48102857D01*
X36504571Y-48131428D01*
X36733142Y-48131428D01*
X36790285Y-48102857D01*
X36818857Y-48074285D01*
X36847428Y-48017142D01*
X36847428Y-47902857D01*
X36818857Y-47845714D01*
X36790285Y-47817142D01*
X36733142Y-47788571D01*
X36590285Y-47788571D01*
X36533142Y-47817142D01*
X36504571Y-47845714D01*
X36476000Y-47902857D01*
X36476000Y-48017142D01*
X36504571Y-48074285D01*
X36533142Y-48102857D01*
X36590285Y-48131428D01*
%TO.C,C5*%
X43546685Y-36879200D02*
X43575257Y-36907771D01*
X43603828Y-36993485D01*
X43603828Y-37050628D01*
X43575257Y-37136342D01*
X43518114Y-37193485D01*
X43460971Y-37222057D01*
X43346685Y-37250628D01*
X43260971Y-37250628D01*
X43146685Y-37222057D01*
X43089542Y-37193485D01*
X43032400Y-37136342D01*
X43003828Y-37050628D01*
X43003828Y-36993485D01*
X43032400Y-36907771D01*
X43060971Y-36879200D01*
X43003828Y-36336342D02*
X43003828Y-36622057D01*
X43289542Y-36650628D01*
X43260971Y-36622057D01*
X43232400Y-36564914D01*
X43232400Y-36422057D01*
X43260971Y-36364914D01*
X43289542Y-36336342D01*
X43346685Y-36307771D01*
X43489542Y-36307771D01*
X43546685Y-36336342D01*
X43575257Y-36364914D01*
X43603828Y-36422057D01*
X43603828Y-36564914D01*
X43575257Y-36622057D01*
X43546685Y-36650628D01*
%TO.C,U3*%
X43802357Y-46661428D02*
X43802357Y-47147142D01*
X43830928Y-47204285D01*
X43859500Y-47232857D01*
X43916642Y-47261428D01*
X44030928Y-47261428D01*
X44088071Y-47232857D01*
X44116642Y-47204285D01*
X44145214Y-47147142D01*
X44145214Y-46661428D01*
X44373785Y-46661428D02*
X44745214Y-46661428D01*
X44545214Y-46890000D01*
X44630928Y-46890000D01*
X44688071Y-46918571D01*
X44716642Y-46947142D01*
X44745214Y-47004285D01*
X44745214Y-47147142D01*
X44716642Y-47204285D01*
X44688071Y-47232857D01*
X44630928Y-47261428D01*
X44459500Y-47261428D01*
X44402357Y-47232857D01*
X44373785Y-47204285D01*
%TO.C,U2*%
X43675357Y-41644928D02*
X43675357Y-42130642D01*
X43703928Y-42187785D01*
X43732500Y-42216357D01*
X43789642Y-42244928D01*
X43903928Y-42244928D01*
X43961071Y-42216357D01*
X43989642Y-42187785D01*
X44018214Y-42130642D01*
X44018214Y-41644928D01*
X44275357Y-41702071D02*
X44303928Y-41673500D01*
X44361071Y-41644928D01*
X44503928Y-41644928D01*
X44561071Y-41673500D01*
X44589642Y-41702071D01*
X44618214Y-41759214D01*
X44618214Y-41816357D01*
X44589642Y-41902071D01*
X44246785Y-42244928D01*
X44618214Y-42244928D01*
%TO.C,R5*%
X43603828Y-38657200D02*
X43318114Y-38857200D01*
X43603828Y-39000057D02*
X43003828Y-39000057D01*
X43003828Y-38771485D01*
X43032400Y-38714342D01*
X43060971Y-38685771D01*
X43118114Y-38657200D01*
X43203828Y-38657200D01*
X43260971Y-38685771D01*
X43289542Y-38714342D01*
X43318114Y-38771485D01*
X43318114Y-39000057D01*
X43003828Y-38114342D02*
X43003828Y-38400057D01*
X43289542Y-38428628D01*
X43260971Y-38400057D01*
X43232400Y-38342914D01*
X43232400Y-38200057D01*
X43260971Y-38142914D01*
X43289542Y-38114342D01*
X43346685Y-38085771D01*
X43489542Y-38085771D01*
X43546685Y-38114342D01*
X43575257Y-38142914D01*
X43603828Y-38200057D01*
X43603828Y-38342914D01*
X43575257Y-38400057D01*
X43546685Y-38428628D01*
%TO.C,R4*%
X41352800Y-46347028D02*
X41152800Y-46061314D01*
X41009942Y-46347028D02*
X41009942Y-45747028D01*
X41238514Y-45747028D01*
X41295657Y-45775600D01*
X41324228Y-45804171D01*
X41352800Y-45861314D01*
X41352800Y-45947028D01*
X41324228Y-46004171D01*
X41295657Y-46032742D01*
X41238514Y-46061314D01*
X41009942Y-46061314D01*
X41867085Y-45947028D02*
X41867085Y-46347028D01*
X41724228Y-45718457D02*
X41581371Y-46147028D01*
X41952800Y-46147028D01*
%TO.C,D2*%
X42308128Y-41463857D02*
X41708128Y-41463857D01*
X41708128Y-41321000D01*
X41736700Y-41235285D01*
X41793842Y-41178142D01*
X41850985Y-41149571D01*
X41965271Y-41121000D01*
X42050985Y-41121000D01*
X42165271Y-41149571D01*
X42222414Y-41178142D01*
X42279557Y-41235285D01*
X42308128Y-41321000D01*
X42308128Y-41463857D01*
X41765271Y-40892428D02*
X41736700Y-40863857D01*
X41708128Y-40806714D01*
X41708128Y-40663857D01*
X41736700Y-40606714D01*
X41765271Y-40578142D01*
X41822414Y-40549571D01*
X41879557Y-40549571D01*
X41965271Y-40578142D01*
X42308128Y-40921000D01*
X42308128Y-40549571D01*
%TO.C,IC2*%
X19531085Y-24299828D02*
X19531085Y-23699828D01*
X20159657Y-24242685D02*
X20131085Y-24271257D01*
X20045371Y-24299828D01*
X19988228Y-24299828D01*
X19902514Y-24271257D01*
X19845371Y-24214114D01*
X19816800Y-24156971D01*
X19788228Y-24042685D01*
X19788228Y-23956971D01*
X19816800Y-23842685D01*
X19845371Y-23785542D01*
X19902514Y-23728400D01*
X19988228Y-23699828D01*
X20045371Y-23699828D01*
X20131085Y-23728400D01*
X20159657Y-23756971D01*
X20388228Y-23756971D02*
X20416800Y-23728400D01*
X20473942Y-23699828D01*
X20616800Y-23699828D01*
X20673942Y-23728400D01*
X20702514Y-23756971D01*
X20731085Y-23814114D01*
X20731085Y-23871257D01*
X20702514Y-23956971D01*
X20359657Y-24299828D01*
X20731085Y-24299828D01*
%TO.C,IC1*%
X28725885Y-26636628D02*
X28725885Y-26036628D01*
X29354457Y-26579485D02*
X29325885Y-26608057D01*
X29240171Y-26636628D01*
X29183028Y-26636628D01*
X29097314Y-26608057D01*
X29040171Y-26550914D01*
X29011600Y-26493771D01*
X28983028Y-26379485D01*
X28983028Y-26293771D01*
X29011600Y-26179485D01*
X29040171Y-26122342D01*
X29097314Y-26065200D01*
X29183028Y-26036628D01*
X29240171Y-26036628D01*
X29325885Y-26065200D01*
X29354457Y-26093771D01*
X29925885Y-26636628D02*
X29583028Y-26636628D01*
X29754457Y-26636628D02*
X29754457Y-26036628D01*
X29697314Y-26122342D01*
X29640171Y-26179485D01*
X29583028Y-26208057D01*
%TO.C,J2*%
X19637400Y-48083828D02*
X19637400Y-48512400D01*
X19608828Y-48598114D01*
X19551685Y-48655257D01*
X19465971Y-48683828D01*
X19408828Y-48683828D01*
X19894542Y-48140971D02*
X19923114Y-48112400D01*
X19980257Y-48083828D01*
X20123114Y-48083828D01*
X20180257Y-48112400D01*
X20208828Y-48140971D01*
X20237400Y-48198114D01*
X20237400Y-48255257D01*
X20208828Y-48340971D01*
X19865971Y-48683828D01*
X20237400Y-48683828D01*
%TO.C,L1*%
X30634000Y-25036428D02*
X30348285Y-25036428D01*
X30348285Y-24436428D01*
X31148285Y-25036428D02*
X30805428Y-25036428D01*
X30976857Y-25036428D02*
X30976857Y-24436428D01*
X30919714Y-24522142D01*
X30862571Y-24579285D01*
X30805428Y-24607857D01*
%TO.C,C1*%
X25477800Y-21524885D02*
X25449228Y-21553457D01*
X25363514Y-21582028D01*
X25306371Y-21582028D01*
X25220657Y-21553457D01*
X25163514Y-21496314D01*
X25134942Y-21439171D01*
X25106371Y-21324885D01*
X25106371Y-21239171D01*
X25134942Y-21124885D01*
X25163514Y-21067742D01*
X25220657Y-21010600D01*
X25306371Y-20982028D01*
X25363514Y-20982028D01*
X25449228Y-21010600D01*
X25477800Y-21039171D01*
X26049228Y-21582028D02*
X25706371Y-21582028D01*
X25877800Y-21582028D02*
X25877800Y-20982028D01*
X25820657Y-21067742D01*
X25763514Y-21124885D01*
X25706371Y-21153457D01*
%TO.C,C2*%
X28703600Y-41895685D02*
X28675028Y-41924257D01*
X28589314Y-41952828D01*
X28532171Y-41952828D01*
X28446457Y-41924257D01*
X28389314Y-41867114D01*
X28360742Y-41809971D01*
X28332171Y-41695685D01*
X28332171Y-41609971D01*
X28360742Y-41495685D01*
X28389314Y-41438542D01*
X28446457Y-41381400D01*
X28532171Y-41352828D01*
X28589314Y-41352828D01*
X28675028Y-41381400D01*
X28703600Y-41409971D01*
X28932171Y-41409971D02*
X28960742Y-41381400D01*
X29017885Y-41352828D01*
X29160742Y-41352828D01*
X29217885Y-41381400D01*
X29246457Y-41409971D01*
X29275028Y-41467114D01*
X29275028Y-41524257D01*
X29246457Y-41609971D01*
X28903600Y-41952828D01*
X29275028Y-41952828D01*
%TO.C,C3*%
X30507000Y-23836285D02*
X30478428Y-23864857D01*
X30392714Y-23893428D01*
X30335571Y-23893428D01*
X30249857Y-23864857D01*
X30192714Y-23807714D01*
X30164142Y-23750571D01*
X30135571Y-23636285D01*
X30135571Y-23550571D01*
X30164142Y-23436285D01*
X30192714Y-23379142D01*
X30249857Y-23322000D01*
X30335571Y-23293428D01*
X30392714Y-23293428D01*
X30478428Y-23322000D01*
X30507000Y-23350571D01*
X30707000Y-23293428D02*
X31078428Y-23293428D01*
X30878428Y-23522000D01*
X30964142Y-23522000D01*
X31021285Y-23550571D01*
X31049857Y-23579142D01*
X31078428Y-23636285D01*
X31078428Y-23779142D01*
X31049857Y-23836285D01*
X31021285Y-23864857D01*
X30964142Y-23893428D01*
X30792714Y-23893428D01*
X30735571Y-23864857D01*
X30707000Y-23836285D01*
%TO.C,C4*%
X34621800Y-38098385D02*
X34593228Y-38126957D01*
X34507514Y-38155528D01*
X34450371Y-38155528D01*
X34364657Y-38126957D01*
X34307514Y-38069814D01*
X34278942Y-38012671D01*
X34250371Y-37898385D01*
X34250371Y-37812671D01*
X34278942Y-37698385D01*
X34307514Y-37641242D01*
X34364657Y-37584100D01*
X34450371Y-37555528D01*
X34507514Y-37555528D01*
X34593228Y-37584100D01*
X34621800Y-37612671D01*
X35136085Y-37755528D02*
X35136085Y-38155528D01*
X34993228Y-37526957D02*
X34850371Y-37955528D01*
X35221800Y-37955528D01*
%TO.C,R2*%
X20626400Y-21607428D02*
X20426400Y-21321714D01*
X20283542Y-21607428D02*
X20283542Y-21007428D01*
X20512114Y-21007428D01*
X20569257Y-21036000D01*
X20597828Y-21064571D01*
X20626400Y-21121714D01*
X20626400Y-21207428D01*
X20597828Y-21264571D01*
X20569257Y-21293142D01*
X20512114Y-21321714D01*
X20283542Y-21321714D01*
X20854971Y-21064571D02*
X20883542Y-21036000D01*
X20940685Y-21007428D01*
X21083542Y-21007428D01*
X21140685Y-21036000D01*
X21169257Y-21064571D01*
X21197828Y-21121714D01*
X21197828Y-21178857D01*
X21169257Y-21264571D01*
X20826400Y-21607428D01*
X21197828Y-21607428D01*
%TO.C,R3*%
X35260428Y-49833200D02*
X34974714Y-50033200D01*
X35260428Y-50176057D02*
X34660428Y-50176057D01*
X34660428Y-49947485D01*
X34689000Y-49890342D01*
X34717571Y-49861771D01*
X34774714Y-49833200D01*
X34860428Y-49833200D01*
X34917571Y-49861771D01*
X34946142Y-49890342D01*
X34974714Y-49947485D01*
X34974714Y-50176057D01*
X34660428Y-49633200D02*
X34660428Y-49261771D01*
X34889000Y-49461771D01*
X34889000Y-49376057D01*
X34917571Y-49318914D01*
X34946142Y-49290342D01*
X35003285Y-49261771D01*
X35146142Y-49261771D01*
X35203285Y-49290342D01*
X35231857Y-49318914D01*
X35260428Y-49376057D01*
X35260428Y-49547485D01*
X35231857Y-49604628D01*
X35203285Y-49633200D01*
%TD*%
M02*
