%TF.GenerationSoftware,KiCad,Pcbnew,(5.1.9-0-10_14)*%
%TF.CreationDate,2021-09-13T12:25:13+02:00*%
%TF.ProjectId,SmartwatchPCB,536d6172-7477-4617-9463-685043422e6b,rev?*%
%TF.SameCoordinates,Original*%
%TF.FileFunction,Legend,Bot*%
%TF.FilePolarity,Positive*%
%FSLAX46Y46*%
G04 Gerber Fmt 4.6, Leading zero omitted, Abs format (unit mm)*
G04 Created by KiCad (PCBNEW (5.1.9-0-10_14)) date 2021-09-13 12:25:13*
%MOMM*%
%LPD*%
G01*
G04 APERTURE LIST*
%ADD10C,0.120000*%
%ADD11C,0.150000*%
G04 APERTURE END LIST*
D10*
%TO.C,R1*%
X44134300Y-27169342D02*
X44134300Y-27643858D01*
X43089300Y-27169342D02*
X43089300Y-27643858D01*
%TO.C,D1*%
X46074800Y-25772100D02*
X46074800Y-28257100D01*
X44704800Y-25772100D02*
X46074800Y-25772100D01*
X44704800Y-28257100D02*
X44704800Y-25772100D01*
%TO.C,U1*%
D11*
X24337442Y-21901028D02*
X24337442Y-22386742D01*
X24308871Y-22443885D01*
X24280300Y-22472457D01*
X24223157Y-22501028D01*
X24108871Y-22501028D01*
X24051728Y-22472457D01*
X24023157Y-22443885D01*
X23994585Y-22386742D01*
X23994585Y-21901028D01*
X23394585Y-22501028D02*
X23737442Y-22501028D01*
X23566014Y-22501028D02*
X23566014Y-21901028D01*
X23623157Y-21986742D01*
X23680300Y-22043885D01*
X23737442Y-22072457D01*
%TO.C,R1*%
X43686400Y-25722228D02*
X43886400Y-25436514D01*
X44029257Y-25722228D02*
X44029257Y-25122228D01*
X43800685Y-25122228D01*
X43743542Y-25150800D01*
X43714971Y-25179371D01*
X43686400Y-25236514D01*
X43686400Y-25322228D01*
X43714971Y-25379371D01*
X43743542Y-25407942D01*
X43800685Y-25436514D01*
X44029257Y-25436514D01*
X43114971Y-25722228D02*
X43457828Y-25722228D01*
X43286400Y-25722228D02*
X43286400Y-25122228D01*
X43343542Y-25207942D01*
X43400685Y-25265085D01*
X43457828Y-25293657D01*
%TO.C,D1*%
X45858057Y-25569828D02*
X45858057Y-24969828D01*
X45715200Y-24969828D01*
X45629485Y-24998400D01*
X45572342Y-25055542D01*
X45543771Y-25112685D01*
X45515200Y-25226971D01*
X45515200Y-25312685D01*
X45543771Y-25426971D01*
X45572342Y-25484114D01*
X45629485Y-25541257D01*
X45715200Y-25569828D01*
X45858057Y-25569828D01*
X44943771Y-25569828D02*
X45286628Y-25569828D01*
X45115200Y-25569828D02*
X45115200Y-24969828D01*
X45172342Y-25055542D01*
X45229485Y-25112685D01*
X45286628Y-25141257D01*
%TD*%
M02*
