%TF.GenerationSoftware,KiCad,Pcbnew,(5.1.9-0-10_14)*%
%TF.CreationDate,2021-09-13T12:25:13+02:00*%
%TF.ProjectId,SmartwatchPCB,536d6172-7477-4617-9463-685043422e6b,rev?*%
%TF.SameCoordinates,Original*%
%TF.FileFunction,Profile,NP*%
%FSLAX46Y46*%
G04 Gerber Fmt 4.6, Leading zero omitted, Abs format (unit mm)*
G04 Created by KiCad (PCBNEW (5.1.9-0-10_14)) date 2021-09-13 12:25:13*
%MOMM*%
%LPD*%
G01*
G04 APERTURE LIST*
%TA.AperFunction,Profile*%
%ADD10C,0.150000*%
%TD*%
G04 APERTURE END LIST*
D10*
X25238759Y-16675462D02*
X25238759Y-18886462D01*
X25238759Y-18886462D02*
X24193959Y-19931462D01*
X24193959Y-19931462D02*
X20381559Y-19931462D01*
X20381559Y-19931462D02*
X18599359Y-23018463D01*
X18599359Y-23018463D02*
X18599359Y-50638462D01*
X18599359Y-50638462D02*
X20154759Y-53332463D01*
X20154759Y-53332463D02*
X25425759Y-53332463D01*
X25425759Y-53332463D02*
X26425959Y-54332463D01*
X26425959Y-54332463D02*
X26425959Y-56680462D01*
X26425959Y-56680462D02*
X39207359Y-56680462D01*
X39207359Y-56680462D02*
X39207359Y-54332463D01*
X39207359Y-54332463D02*
X40208359Y-53332463D01*
X40208359Y-53332463D02*
X45479359Y-53332463D01*
X45479359Y-53332463D02*
X47034359Y-50638462D01*
X47034359Y-50638462D02*
X47034359Y-23018463D01*
X47034359Y-23018463D02*
X45252359Y-19931462D01*
X45252359Y-19931462D02*
X41439359Y-19931462D01*
X41439359Y-19931462D02*
X40395359Y-18886462D01*
X40395359Y-18886462D02*
X40395359Y-16675462D01*
X40395359Y-16675462D02*
X36005359Y-16675462D01*
X36005359Y-16675462D02*
X36005359Y-21672463D01*
X36005359Y-21672463D02*
X29627359Y-21672463D01*
X29627359Y-21672463D02*
X29627359Y-16675462D01*
X29627359Y-16675462D02*
X25238759Y-16675462D01*
X25238759Y-16675462D02*
X25238759Y-16675462D01*
M02*
