%TF.GenerationSoftware,KiCad,Pcbnew,(5.1.9-0-10_14)*%
%TF.CreationDate,2021-09-13T12:25:13+02:00*%
%TF.ProjectId,SmartwatchPCB,536d6172-7477-4617-9463-685043422e6b,rev?*%
%TF.SameCoordinates,Original*%
%TF.FileFunction,Soldermask,Top*%
%TF.FilePolarity,Negative*%
%FSLAX46Y46*%
G04 Gerber Fmt 4.6, Leading zero omitted, Abs format (unit mm)*
G04 Created by KiCad (PCBNEW (5.1.9-0-10_14)) date 2021-09-13 12:25:13*
%MOMM*%
%LPD*%
G01*
G04 APERTURE LIST*
%ADD10C,1.900000*%
%ADD11O,2.100000X2.100000*%
%ADD12C,1.600000*%
%ADD13C,1.800000*%
%ADD14C,1.200000*%
%ADD15C,2.200000*%
%ADD16C,2.400000*%
G04 APERTURE END LIST*
D10*
%TO.C,TP_RST1*%
X35433000Y-24257000D03*
%TD*%
%TO.C,R9*%
G36*
G01*
X39567200Y-37354800D02*
X38817200Y-37354800D01*
G75*
G02*
X38517200Y-37054800I0J300000D01*
G01*
X38517200Y-36454800D01*
G75*
G02*
X38817200Y-36154800I300000J0D01*
G01*
X39567200Y-36154800D01*
G75*
G02*
X39867200Y-36454800I0J-300000D01*
G01*
X39867200Y-37054800D01*
G75*
G02*
X39567200Y-37354800I-300000J0D01*
G01*
G37*
G36*
G01*
X39567200Y-39004800D02*
X38817200Y-39004800D01*
G75*
G02*
X38517200Y-38704800I0J300000D01*
G01*
X38517200Y-38104800D01*
G75*
G02*
X38817200Y-37804800I300000J0D01*
G01*
X39567200Y-37804800D01*
G75*
G02*
X39867200Y-38104800I0J-300000D01*
G01*
X39867200Y-38704800D01*
G75*
G02*
X39567200Y-39004800I-300000J0D01*
G01*
G37*
%TD*%
%TO.C,R8*%
G36*
G01*
X36937600Y-37779400D02*
X37687600Y-37779400D01*
G75*
G02*
X37987600Y-38079400I0J-300000D01*
G01*
X37987600Y-38679400D01*
G75*
G02*
X37687600Y-38979400I-300000J0D01*
G01*
X36937600Y-38979400D01*
G75*
G02*
X36637600Y-38679400I0J300000D01*
G01*
X36637600Y-38079400D01*
G75*
G02*
X36937600Y-37779400I300000J0D01*
G01*
G37*
G36*
G01*
X36937600Y-36129400D02*
X37687600Y-36129400D01*
G75*
G02*
X37987600Y-36429400I0J-300000D01*
G01*
X37987600Y-37029400D01*
G75*
G02*
X37687600Y-37329400I-300000J0D01*
G01*
X36937600Y-37329400D01*
G75*
G02*
X36637600Y-37029400I0J300000D01*
G01*
X36637600Y-36429400D01*
G75*
G02*
X36937600Y-36129400I300000J0D01*
G01*
G37*
%TD*%
%TO.C,R7*%
G36*
G01*
X26895000Y-46577600D02*
X26895000Y-45827600D01*
G75*
G02*
X27195000Y-45527600I300000J0D01*
G01*
X27795000Y-45527600D01*
G75*
G02*
X28095000Y-45827600I0J-300000D01*
G01*
X28095000Y-46577600D01*
G75*
G02*
X27795000Y-46877600I-300000J0D01*
G01*
X27195000Y-46877600D01*
G75*
G02*
X26895000Y-46577600I0J300000D01*
G01*
G37*
G36*
G01*
X25245000Y-46577600D02*
X25245000Y-45827600D01*
G75*
G02*
X25545000Y-45527600I300000J0D01*
G01*
X26145000Y-45527600D01*
G75*
G02*
X26445000Y-45827600I0J-300000D01*
G01*
X26445000Y-46577600D01*
G75*
G02*
X26145000Y-46877600I-300000J0D01*
G01*
X25545000Y-46877600D01*
G75*
G02*
X25245000Y-46577600I0J300000D01*
G01*
G37*
%TD*%
%TO.C,R6*%
G36*
G01*
X26895000Y-45002800D02*
X26895000Y-44252800D01*
G75*
G02*
X27195000Y-43952800I300000J0D01*
G01*
X27795000Y-43952800D01*
G75*
G02*
X28095000Y-44252800I0J-300000D01*
G01*
X28095000Y-45002800D01*
G75*
G02*
X27795000Y-45302800I-300000J0D01*
G01*
X27195000Y-45302800D01*
G75*
G02*
X26895000Y-45002800I0J300000D01*
G01*
G37*
G36*
G01*
X25245000Y-45002800D02*
X25245000Y-44252800D01*
G75*
G02*
X25545000Y-43952800I300000J0D01*
G01*
X26145000Y-43952800D01*
G75*
G02*
X26445000Y-44252800I0J-300000D01*
G01*
X26445000Y-45002800D01*
G75*
G02*
X26145000Y-45302800I-300000J0D01*
G01*
X25545000Y-45302800D01*
G75*
G02*
X25245000Y-45002800I0J300000D01*
G01*
G37*
%TD*%
D11*
%TO.C,J3*%
X36677600Y-54406800D03*
X34137600Y-54406800D03*
X31597600Y-54406800D03*
G36*
G01*
X29907600Y-55456800D02*
X28207600Y-55456800D01*
G75*
G02*
X28007600Y-55256800I0J200000D01*
G01*
X28007600Y-53556800D01*
G75*
G02*
X28207600Y-53356800I200000J0D01*
G01*
X29907600Y-53356800D01*
G75*
G02*
X30107600Y-53556800I0J-200000D01*
G01*
X30107600Y-55256800D01*
G75*
G02*
X29907600Y-55456800I-200000J0D01*
G01*
G37*
%TD*%
D10*
%TO.C,TP_VBAT1*%
X37642800Y-46151800D03*
%TD*%
%TO.C,TP_GND1*%
X37592000Y-43027600D03*
%TD*%
D12*
%TO.C,U1*%
X26880300Y-18994600D03*
X38880300Y-18994600D03*
X24630300Y-35629600D03*
X41130300Y-35629600D03*
X30130300Y-48379600D03*
D13*
X41130300Y-48379600D03*
X24630300Y-40106600D03*
D12*
X41130300Y-40229600D03*
%TD*%
%TO.C,C7*%
G36*
G01*
X40477200Y-50907200D02*
X40477200Y-51607200D01*
G75*
G02*
X40152200Y-51932200I-325000J0D01*
G01*
X39502200Y-51932200D01*
G75*
G02*
X39177200Y-51607200I0J325000D01*
G01*
X39177200Y-50907200D01*
G75*
G02*
X39502200Y-50582200I325000J0D01*
G01*
X40152200Y-50582200D01*
G75*
G02*
X40477200Y-50907200I0J-325000D01*
G01*
G37*
G36*
G01*
X42027200Y-50907200D02*
X42027200Y-51607200D01*
G75*
G02*
X41702200Y-51932200I-325000J0D01*
G01*
X41052200Y-51932200D01*
G75*
G02*
X40727200Y-51607200I0J325000D01*
G01*
X40727200Y-50907200D01*
G75*
G02*
X41052200Y-50582200I325000J0D01*
G01*
X41702200Y-50582200D01*
G75*
G02*
X42027200Y-50907200I0J-325000D01*
G01*
G37*
%TD*%
%TO.C,C6*%
G36*
G01*
X38242000Y-47910000D02*
X38242000Y-48610000D01*
G75*
G02*
X37917000Y-48935000I-325000J0D01*
G01*
X37267000Y-48935000D01*
G75*
G02*
X36942000Y-48610000I0J325000D01*
G01*
X36942000Y-47910000D01*
G75*
G02*
X37267000Y-47585000I325000J0D01*
G01*
X37917000Y-47585000D01*
G75*
G02*
X38242000Y-47910000I0J-325000D01*
G01*
G37*
G36*
G01*
X39792000Y-47910000D02*
X39792000Y-48610000D01*
G75*
G02*
X39467000Y-48935000I-325000J0D01*
G01*
X38817000Y-48935000D01*
G75*
G02*
X38492000Y-48610000I0J325000D01*
G01*
X38492000Y-47910000D01*
G75*
G02*
X38817000Y-47585000I325000J0D01*
G01*
X39467000Y-47585000D01*
G75*
G02*
X39792000Y-47910000I0J-325000D01*
G01*
G37*
%TD*%
%TO.C,C5*%
G36*
G01*
X45150800Y-36378400D02*
X45150800Y-37078400D01*
G75*
G02*
X44825800Y-37403400I-325000J0D01*
G01*
X44175800Y-37403400D01*
G75*
G02*
X43850800Y-37078400I0J325000D01*
G01*
X43850800Y-36378400D01*
G75*
G02*
X44175800Y-36053400I325000J0D01*
G01*
X44825800Y-36053400D01*
G75*
G02*
X45150800Y-36378400I0J-325000D01*
G01*
G37*
G36*
G01*
X46700800Y-36378400D02*
X46700800Y-37078400D01*
G75*
G02*
X46375800Y-37403400I-325000J0D01*
G01*
X45725800Y-37403400D01*
G75*
G02*
X45400800Y-37078400I0J325000D01*
G01*
X45400800Y-36378400D01*
G75*
G02*
X45725800Y-36053400I325000J0D01*
G01*
X46375800Y-36053400D01*
G75*
G02*
X46700800Y-36378400I0J-325000D01*
G01*
G37*
%TD*%
%TO.C,U3*%
G36*
G01*
X44884500Y-49773000D02*
X45534500Y-49773000D01*
G75*
G02*
X45734500Y-49973000I0J-200000D01*
G01*
X45734500Y-51033000D01*
G75*
G02*
X45534500Y-51233000I-200000J0D01*
G01*
X44884500Y-51233000D01*
G75*
G02*
X44684500Y-51033000I0J200000D01*
G01*
X44684500Y-49973000D01*
G75*
G02*
X44884500Y-49773000I200000J0D01*
G01*
G37*
G36*
G01*
X42984500Y-49773000D02*
X43634500Y-49773000D01*
G75*
G02*
X43834500Y-49973000I0J-200000D01*
G01*
X43834500Y-51033000D01*
G75*
G02*
X43634500Y-51233000I-200000J0D01*
G01*
X42984500Y-51233000D01*
G75*
G02*
X42784500Y-51033000I0J200000D01*
G01*
X42784500Y-49973000D01*
G75*
G02*
X42984500Y-49773000I200000J0D01*
G01*
G37*
G36*
G01*
X42984500Y-47573000D02*
X43634500Y-47573000D01*
G75*
G02*
X43834500Y-47773000I0J-200000D01*
G01*
X43834500Y-48833000D01*
G75*
G02*
X43634500Y-49033000I-200000J0D01*
G01*
X42984500Y-49033000D01*
G75*
G02*
X42784500Y-48833000I0J200000D01*
G01*
X42784500Y-47773000D01*
G75*
G02*
X42984500Y-47573000I200000J0D01*
G01*
G37*
G36*
G01*
X43934500Y-47573000D02*
X44584500Y-47573000D01*
G75*
G02*
X44784500Y-47773000I0J-200000D01*
G01*
X44784500Y-48833000D01*
G75*
G02*
X44584500Y-49033000I-200000J0D01*
G01*
X43934500Y-49033000D01*
G75*
G02*
X43734500Y-48833000I0J200000D01*
G01*
X43734500Y-47773000D01*
G75*
G02*
X43934500Y-47573000I200000J0D01*
G01*
G37*
G36*
G01*
X44884500Y-47573000D02*
X45534500Y-47573000D01*
G75*
G02*
X45734500Y-47773000I0J-200000D01*
G01*
X45734500Y-48833000D01*
G75*
G02*
X45534500Y-49033000I-200000J0D01*
G01*
X44884500Y-49033000D01*
G75*
G02*
X44684500Y-48833000I0J200000D01*
G01*
X44684500Y-47773000D01*
G75*
G02*
X44884500Y-47573000I200000J0D01*
G01*
G37*
%TD*%
%TO.C,U2*%
G36*
G01*
X43634500Y-43826000D02*
X42984500Y-43826000D01*
G75*
G02*
X42784500Y-43626000I0J200000D01*
G01*
X42784500Y-42566000D01*
G75*
G02*
X42984500Y-42366000I200000J0D01*
G01*
X43634500Y-42366000D01*
G75*
G02*
X43834500Y-42566000I0J-200000D01*
G01*
X43834500Y-43626000D01*
G75*
G02*
X43634500Y-43826000I-200000J0D01*
G01*
G37*
G36*
G01*
X45534500Y-43826000D02*
X44884500Y-43826000D01*
G75*
G02*
X44684500Y-43626000I0J200000D01*
G01*
X44684500Y-42566000D01*
G75*
G02*
X44884500Y-42366000I200000J0D01*
G01*
X45534500Y-42366000D01*
G75*
G02*
X45734500Y-42566000I0J-200000D01*
G01*
X45734500Y-43626000D01*
G75*
G02*
X45534500Y-43826000I-200000J0D01*
G01*
G37*
G36*
G01*
X45534500Y-46026000D02*
X44884500Y-46026000D01*
G75*
G02*
X44684500Y-45826000I0J200000D01*
G01*
X44684500Y-44766000D01*
G75*
G02*
X44884500Y-44566000I200000J0D01*
G01*
X45534500Y-44566000D01*
G75*
G02*
X45734500Y-44766000I0J-200000D01*
G01*
X45734500Y-45826000D01*
G75*
G02*
X45534500Y-46026000I-200000J0D01*
G01*
G37*
G36*
G01*
X44584500Y-46026000D02*
X43934500Y-46026000D01*
G75*
G02*
X43734500Y-45826000I0J200000D01*
G01*
X43734500Y-44766000D01*
G75*
G02*
X43934500Y-44566000I200000J0D01*
G01*
X44584500Y-44566000D01*
G75*
G02*
X44784500Y-44766000I0J-200000D01*
G01*
X44784500Y-45826000D01*
G75*
G02*
X44584500Y-46026000I-200000J0D01*
G01*
G37*
G36*
G01*
X43634500Y-46026000D02*
X42984500Y-46026000D01*
G75*
G02*
X42784500Y-45826000I0J200000D01*
G01*
X42784500Y-44766000D01*
G75*
G02*
X42984500Y-44566000I200000J0D01*
G01*
X43634500Y-44566000D01*
G75*
G02*
X43834500Y-44766000I0J-200000D01*
G01*
X43834500Y-45826000D01*
G75*
G02*
X43634500Y-46026000I-200000J0D01*
G01*
G37*
%TD*%
%TO.C,R5*%
G36*
G01*
X45487800Y-38881400D02*
X45487800Y-38131400D01*
G75*
G02*
X45787800Y-37831400I300000J0D01*
G01*
X46387800Y-37831400D01*
G75*
G02*
X46687800Y-38131400I0J-300000D01*
G01*
X46687800Y-38881400D01*
G75*
G02*
X46387800Y-39181400I-300000J0D01*
G01*
X45787800Y-39181400D01*
G75*
G02*
X45487800Y-38881400I0J300000D01*
G01*
G37*
G36*
G01*
X43837800Y-38881400D02*
X43837800Y-38131400D01*
G75*
G02*
X44137800Y-37831400I300000J0D01*
G01*
X44737800Y-37831400D01*
G75*
G02*
X45037800Y-38131400I0J-300000D01*
G01*
X45037800Y-38881400D01*
G75*
G02*
X44737800Y-39181400I-300000J0D01*
G01*
X44137800Y-39181400D01*
G75*
G02*
X43837800Y-38881400I0J300000D01*
G01*
G37*
%TD*%
%TO.C,R4*%
G36*
G01*
X41027000Y-44103500D02*
X41777000Y-44103500D01*
G75*
G02*
X42077000Y-44403500I0J-300000D01*
G01*
X42077000Y-45003500D01*
G75*
G02*
X41777000Y-45303500I-300000J0D01*
G01*
X41027000Y-45303500D01*
G75*
G02*
X40727000Y-45003500I0J300000D01*
G01*
X40727000Y-44403500D01*
G75*
G02*
X41027000Y-44103500I300000J0D01*
G01*
G37*
G36*
G01*
X41027000Y-42453500D02*
X41777000Y-42453500D01*
G75*
G02*
X42077000Y-42753500I0J-300000D01*
G01*
X42077000Y-43353500D01*
G75*
G02*
X41777000Y-43653500I-300000J0D01*
G01*
X41027000Y-43653500D01*
G75*
G02*
X40727000Y-43353500I0J300000D01*
G01*
X40727000Y-42753500D01*
G75*
G02*
X41027000Y-42453500I300000J0D01*
G01*
G37*
%TD*%
%TO.C,D2*%
G36*
G01*
X44195700Y-40581500D02*
X44195700Y-41206500D01*
G75*
G02*
X43883200Y-41519000I-312500J0D01*
G01*
X42883200Y-41519000D01*
G75*
G02*
X42570700Y-41206500I0J312500D01*
G01*
X42570700Y-40581500D01*
G75*
G02*
X42883200Y-40269000I312500J0D01*
G01*
X43883200Y-40269000D01*
G75*
G02*
X44195700Y-40581500I0J-312500D01*
G01*
G37*
G36*
G01*
X45820700Y-40581500D02*
X45820700Y-41206500D01*
G75*
G02*
X45508200Y-41519000I-312500J0D01*
G01*
X44508200Y-41519000D01*
G75*
G02*
X44195700Y-41206500I0J312500D01*
G01*
X44195700Y-40581500D01*
G75*
G02*
X44508200Y-40269000I312500J0D01*
G01*
X45508200Y-40269000D01*
G75*
G02*
X45820700Y-40581500I0J-312500D01*
G01*
G37*
%TD*%
%TO.C,IC2*%
G36*
G01*
X19481800Y-29226100D02*
X20751800Y-29226100D01*
G75*
G02*
X20951800Y-29426100I0J-200000D01*
G01*
X20951800Y-30061100D01*
G75*
G02*
X20751800Y-30261100I-200000J0D01*
G01*
X19481800Y-30261100D01*
G75*
G02*
X19281800Y-30061100I0J200000D01*
G01*
X19281800Y-29426100D01*
G75*
G02*
X19481800Y-29226100I200000J0D01*
G01*
G37*
G36*
G01*
X19481800Y-28276100D02*
X20751800Y-28276100D01*
G75*
G02*
X20951800Y-28476100I0J-200000D01*
G01*
X20951800Y-29111100D01*
G75*
G02*
X20751800Y-29311100I-200000J0D01*
G01*
X19481800Y-29311100D01*
G75*
G02*
X19281800Y-29111100I0J200000D01*
G01*
X19281800Y-28476100D01*
G75*
G02*
X19481800Y-28276100I200000J0D01*
G01*
G37*
G36*
G01*
X19481800Y-27326100D02*
X20751800Y-27326100D01*
G75*
G02*
X20951800Y-27526100I0J-200000D01*
G01*
X20951800Y-28161100D01*
G75*
G02*
X20751800Y-28361100I-200000J0D01*
G01*
X19481800Y-28361100D01*
G75*
G02*
X19281800Y-28161100I0J200000D01*
G01*
X19281800Y-27526100D01*
G75*
G02*
X19481800Y-27326100I200000J0D01*
G01*
G37*
G36*
G01*
X19481800Y-26376100D02*
X20751800Y-26376100D01*
G75*
G02*
X20951800Y-26576100I0J-200000D01*
G01*
X20951800Y-27211100D01*
G75*
G02*
X20751800Y-27411100I-200000J0D01*
G01*
X19481800Y-27411100D01*
G75*
G02*
X19281800Y-27211100I0J200000D01*
G01*
X19281800Y-26576100D01*
G75*
G02*
X19481800Y-26376100I200000J0D01*
G01*
G37*
G36*
G01*
X19481800Y-25426100D02*
X20751800Y-25426100D01*
G75*
G02*
X20951800Y-25626100I0J-200000D01*
G01*
X20951800Y-26261100D01*
G75*
G02*
X20751800Y-26461100I-200000J0D01*
G01*
X19481800Y-26461100D01*
G75*
G02*
X19281800Y-26261100I0J200000D01*
G01*
X19281800Y-25626100D01*
G75*
G02*
X19481800Y-25426100I200000J0D01*
G01*
G37*
G36*
G01*
X19481800Y-24476100D02*
X20751800Y-24476100D01*
G75*
G02*
X20951800Y-24676100I0J-200000D01*
G01*
X20951800Y-25311100D01*
G75*
G02*
X20751800Y-25511100I-200000J0D01*
G01*
X19481800Y-25511100D01*
G75*
G02*
X19281800Y-25311100I0J200000D01*
G01*
X19281800Y-24676100D01*
G75*
G02*
X19481800Y-24476100I200000J0D01*
G01*
G37*
%TD*%
%TO.C,IC1*%
G36*
G01*
X29660800Y-33664600D02*
X29660800Y-28514600D01*
G75*
G02*
X29860800Y-28314600I200000J0D01*
G01*
X35010800Y-28314600D01*
G75*
G02*
X35210800Y-28514600I0J-200000D01*
G01*
X35210800Y-33664600D01*
G75*
G02*
X35010800Y-33864600I-200000J0D01*
G01*
X29860800Y-33864600D01*
G75*
G02*
X29660800Y-33664600I0J200000D01*
G01*
G37*
G36*
G01*
X29360800Y-28127100D02*
X29360800Y-27177100D01*
G75*
G02*
X29523300Y-27014600I162500J0D01*
G01*
X29848300Y-27014600D01*
G75*
G02*
X30010800Y-27177100I0J-162500D01*
G01*
X30010800Y-28127100D01*
G75*
G02*
X29848300Y-28289600I-162500J0D01*
G01*
X29523300Y-28289600D01*
G75*
G02*
X29360800Y-28127100I0J162500D01*
G01*
G37*
G36*
G01*
X29860800Y-28127100D02*
X29860800Y-27177100D01*
G75*
G02*
X30023300Y-27014600I162500J0D01*
G01*
X30348300Y-27014600D01*
G75*
G02*
X30510800Y-27177100I0J-162500D01*
G01*
X30510800Y-28127100D01*
G75*
G02*
X30348300Y-28289600I-162500J0D01*
G01*
X30023300Y-28289600D01*
G75*
G02*
X29860800Y-28127100I0J162500D01*
G01*
G37*
G36*
G01*
X30360800Y-28127100D02*
X30360800Y-27177100D01*
G75*
G02*
X30523300Y-27014600I162500J0D01*
G01*
X30848300Y-27014600D01*
G75*
G02*
X31010800Y-27177100I0J-162500D01*
G01*
X31010800Y-28127100D01*
G75*
G02*
X30848300Y-28289600I-162500J0D01*
G01*
X30523300Y-28289600D01*
G75*
G02*
X30360800Y-28127100I0J162500D01*
G01*
G37*
G36*
G01*
X30860800Y-28127100D02*
X30860800Y-27177100D01*
G75*
G02*
X31023300Y-27014600I162500J0D01*
G01*
X31348300Y-27014600D01*
G75*
G02*
X31510800Y-27177100I0J-162500D01*
G01*
X31510800Y-28127100D01*
G75*
G02*
X31348300Y-28289600I-162500J0D01*
G01*
X31023300Y-28289600D01*
G75*
G02*
X30860800Y-28127100I0J162500D01*
G01*
G37*
G36*
G01*
X31360800Y-28127100D02*
X31360800Y-27177100D01*
G75*
G02*
X31523300Y-27014600I162500J0D01*
G01*
X31848300Y-27014600D01*
G75*
G02*
X32010800Y-27177100I0J-162500D01*
G01*
X32010800Y-28127100D01*
G75*
G02*
X31848300Y-28289600I-162500J0D01*
G01*
X31523300Y-28289600D01*
G75*
G02*
X31360800Y-28127100I0J162500D01*
G01*
G37*
G36*
G01*
X31860800Y-28127100D02*
X31860800Y-27177100D01*
G75*
G02*
X32023300Y-27014600I162500J0D01*
G01*
X32348300Y-27014600D01*
G75*
G02*
X32510800Y-27177100I0J-162500D01*
G01*
X32510800Y-28127100D01*
G75*
G02*
X32348300Y-28289600I-162500J0D01*
G01*
X32023300Y-28289600D01*
G75*
G02*
X31860800Y-28127100I0J162500D01*
G01*
G37*
G36*
G01*
X32360800Y-28127100D02*
X32360800Y-27177100D01*
G75*
G02*
X32523300Y-27014600I162500J0D01*
G01*
X32848300Y-27014600D01*
G75*
G02*
X33010800Y-27177100I0J-162500D01*
G01*
X33010800Y-28127100D01*
G75*
G02*
X32848300Y-28289600I-162500J0D01*
G01*
X32523300Y-28289600D01*
G75*
G02*
X32360800Y-28127100I0J162500D01*
G01*
G37*
G36*
G01*
X32860800Y-28127100D02*
X32860800Y-27177100D01*
G75*
G02*
X33023300Y-27014600I162500J0D01*
G01*
X33348300Y-27014600D01*
G75*
G02*
X33510800Y-27177100I0J-162500D01*
G01*
X33510800Y-28127100D01*
G75*
G02*
X33348300Y-28289600I-162500J0D01*
G01*
X33023300Y-28289600D01*
G75*
G02*
X32860800Y-28127100I0J162500D01*
G01*
G37*
G36*
G01*
X33360800Y-28127100D02*
X33360800Y-27177100D01*
G75*
G02*
X33523300Y-27014600I162500J0D01*
G01*
X33848300Y-27014600D01*
G75*
G02*
X34010800Y-27177100I0J-162500D01*
G01*
X34010800Y-28127100D01*
G75*
G02*
X33848300Y-28289600I-162500J0D01*
G01*
X33523300Y-28289600D01*
G75*
G02*
X33360800Y-28127100I0J162500D01*
G01*
G37*
G36*
G01*
X33860800Y-28127100D02*
X33860800Y-27177100D01*
G75*
G02*
X34023300Y-27014600I162500J0D01*
G01*
X34348300Y-27014600D01*
G75*
G02*
X34510800Y-27177100I0J-162500D01*
G01*
X34510800Y-28127100D01*
G75*
G02*
X34348300Y-28289600I-162500J0D01*
G01*
X34023300Y-28289600D01*
G75*
G02*
X33860800Y-28127100I0J162500D01*
G01*
G37*
G36*
G01*
X34360800Y-28127100D02*
X34360800Y-27177100D01*
G75*
G02*
X34523300Y-27014600I162500J0D01*
G01*
X34848300Y-27014600D01*
G75*
G02*
X35010800Y-27177100I0J-162500D01*
G01*
X35010800Y-28127100D01*
G75*
G02*
X34848300Y-28289600I-162500J0D01*
G01*
X34523300Y-28289600D01*
G75*
G02*
X34360800Y-28127100I0J162500D01*
G01*
G37*
G36*
G01*
X34860800Y-28127100D02*
X34860800Y-27177100D01*
G75*
G02*
X35023300Y-27014600I162500J0D01*
G01*
X35348300Y-27014600D01*
G75*
G02*
X35510800Y-27177100I0J-162500D01*
G01*
X35510800Y-28127100D01*
G75*
G02*
X35348300Y-28289600I-162500J0D01*
G01*
X35023300Y-28289600D01*
G75*
G02*
X34860800Y-28127100I0J162500D01*
G01*
G37*
G36*
G01*
X35235800Y-28502100D02*
X35235800Y-28177100D01*
G75*
G02*
X35398300Y-28014600I162500J0D01*
G01*
X36348300Y-28014600D01*
G75*
G02*
X36510800Y-28177100I0J-162500D01*
G01*
X36510800Y-28502100D01*
G75*
G02*
X36348300Y-28664600I-162500J0D01*
G01*
X35398300Y-28664600D01*
G75*
G02*
X35235800Y-28502100I0J162500D01*
G01*
G37*
G36*
G01*
X35235800Y-29002100D02*
X35235800Y-28677100D01*
G75*
G02*
X35398300Y-28514600I162500J0D01*
G01*
X36348300Y-28514600D01*
G75*
G02*
X36510800Y-28677100I0J-162500D01*
G01*
X36510800Y-29002100D01*
G75*
G02*
X36348300Y-29164600I-162500J0D01*
G01*
X35398300Y-29164600D01*
G75*
G02*
X35235800Y-29002100I0J162500D01*
G01*
G37*
G36*
G01*
X35235800Y-29502100D02*
X35235800Y-29177100D01*
G75*
G02*
X35398300Y-29014600I162500J0D01*
G01*
X36348300Y-29014600D01*
G75*
G02*
X36510800Y-29177100I0J-162500D01*
G01*
X36510800Y-29502100D01*
G75*
G02*
X36348300Y-29664600I-162500J0D01*
G01*
X35398300Y-29664600D01*
G75*
G02*
X35235800Y-29502100I0J162500D01*
G01*
G37*
G36*
G01*
X35235800Y-30002100D02*
X35235800Y-29677100D01*
G75*
G02*
X35398300Y-29514600I162500J0D01*
G01*
X36348300Y-29514600D01*
G75*
G02*
X36510800Y-29677100I0J-162500D01*
G01*
X36510800Y-30002100D01*
G75*
G02*
X36348300Y-30164600I-162500J0D01*
G01*
X35398300Y-30164600D01*
G75*
G02*
X35235800Y-30002100I0J162500D01*
G01*
G37*
G36*
G01*
X35235800Y-30502100D02*
X35235800Y-30177100D01*
G75*
G02*
X35398300Y-30014600I162500J0D01*
G01*
X36348300Y-30014600D01*
G75*
G02*
X36510800Y-30177100I0J-162500D01*
G01*
X36510800Y-30502100D01*
G75*
G02*
X36348300Y-30664600I-162500J0D01*
G01*
X35398300Y-30664600D01*
G75*
G02*
X35235800Y-30502100I0J162500D01*
G01*
G37*
G36*
G01*
X35235800Y-31002100D02*
X35235800Y-30677100D01*
G75*
G02*
X35398300Y-30514600I162500J0D01*
G01*
X36348300Y-30514600D01*
G75*
G02*
X36510800Y-30677100I0J-162500D01*
G01*
X36510800Y-31002100D01*
G75*
G02*
X36348300Y-31164600I-162500J0D01*
G01*
X35398300Y-31164600D01*
G75*
G02*
X35235800Y-31002100I0J162500D01*
G01*
G37*
G36*
G01*
X35235800Y-31502100D02*
X35235800Y-31177100D01*
G75*
G02*
X35398300Y-31014600I162500J0D01*
G01*
X36348300Y-31014600D01*
G75*
G02*
X36510800Y-31177100I0J-162500D01*
G01*
X36510800Y-31502100D01*
G75*
G02*
X36348300Y-31664600I-162500J0D01*
G01*
X35398300Y-31664600D01*
G75*
G02*
X35235800Y-31502100I0J162500D01*
G01*
G37*
G36*
G01*
X35235800Y-32002100D02*
X35235800Y-31677100D01*
G75*
G02*
X35398300Y-31514600I162500J0D01*
G01*
X36348300Y-31514600D01*
G75*
G02*
X36510800Y-31677100I0J-162500D01*
G01*
X36510800Y-32002100D01*
G75*
G02*
X36348300Y-32164600I-162500J0D01*
G01*
X35398300Y-32164600D01*
G75*
G02*
X35235800Y-32002100I0J162500D01*
G01*
G37*
G36*
G01*
X35235800Y-32502100D02*
X35235800Y-32177100D01*
G75*
G02*
X35398300Y-32014600I162500J0D01*
G01*
X36348300Y-32014600D01*
G75*
G02*
X36510800Y-32177100I0J-162500D01*
G01*
X36510800Y-32502100D01*
G75*
G02*
X36348300Y-32664600I-162500J0D01*
G01*
X35398300Y-32664600D01*
G75*
G02*
X35235800Y-32502100I0J162500D01*
G01*
G37*
G36*
G01*
X35235800Y-33002100D02*
X35235800Y-32677100D01*
G75*
G02*
X35398300Y-32514600I162500J0D01*
G01*
X36348300Y-32514600D01*
G75*
G02*
X36510800Y-32677100I0J-162500D01*
G01*
X36510800Y-33002100D01*
G75*
G02*
X36348300Y-33164600I-162500J0D01*
G01*
X35398300Y-33164600D01*
G75*
G02*
X35235800Y-33002100I0J162500D01*
G01*
G37*
G36*
G01*
X35235800Y-33502100D02*
X35235800Y-33177100D01*
G75*
G02*
X35398300Y-33014600I162500J0D01*
G01*
X36348300Y-33014600D01*
G75*
G02*
X36510800Y-33177100I0J-162500D01*
G01*
X36510800Y-33502100D01*
G75*
G02*
X36348300Y-33664600I-162500J0D01*
G01*
X35398300Y-33664600D01*
G75*
G02*
X35235800Y-33502100I0J162500D01*
G01*
G37*
G36*
G01*
X35235800Y-34002100D02*
X35235800Y-33677100D01*
G75*
G02*
X35398300Y-33514600I162500J0D01*
G01*
X36348300Y-33514600D01*
G75*
G02*
X36510800Y-33677100I0J-162500D01*
G01*
X36510800Y-34002100D01*
G75*
G02*
X36348300Y-34164600I-162500J0D01*
G01*
X35398300Y-34164600D01*
G75*
G02*
X35235800Y-34002100I0J162500D01*
G01*
G37*
G36*
G01*
X34860800Y-35002100D02*
X34860800Y-34052100D01*
G75*
G02*
X35023300Y-33889600I162500J0D01*
G01*
X35348300Y-33889600D01*
G75*
G02*
X35510800Y-34052100I0J-162500D01*
G01*
X35510800Y-35002100D01*
G75*
G02*
X35348300Y-35164600I-162500J0D01*
G01*
X35023300Y-35164600D01*
G75*
G02*
X34860800Y-35002100I0J162500D01*
G01*
G37*
G36*
G01*
X34360800Y-35002100D02*
X34360800Y-34052100D01*
G75*
G02*
X34523300Y-33889600I162500J0D01*
G01*
X34848300Y-33889600D01*
G75*
G02*
X35010800Y-34052100I0J-162500D01*
G01*
X35010800Y-35002100D01*
G75*
G02*
X34848300Y-35164600I-162500J0D01*
G01*
X34523300Y-35164600D01*
G75*
G02*
X34360800Y-35002100I0J162500D01*
G01*
G37*
G36*
G01*
X33860800Y-35002100D02*
X33860800Y-34052100D01*
G75*
G02*
X34023300Y-33889600I162500J0D01*
G01*
X34348300Y-33889600D01*
G75*
G02*
X34510800Y-34052100I0J-162500D01*
G01*
X34510800Y-35002100D01*
G75*
G02*
X34348300Y-35164600I-162500J0D01*
G01*
X34023300Y-35164600D01*
G75*
G02*
X33860800Y-35002100I0J162500D01*
G01*
G37*
G36*
G01*
X33360800Y-35002100D02*
X33360800Y-34052100D01*
G75*
G02*
X33523300Y-33889600I162500J0D01*
G01*
X33848300Y-33889600D01*
G75*
G02*
X34010800Y-34052100I0J-162500D01*
G01*
X34010800Y-35002100D01*
G75*
G02*
X33848300Y-35164600I-162500J0D01*
G01*
X33523300Y-35164600D01*
G75*
G02*
X33360800Y-35002100I0J162500D01*
G01*
G37*
G36*
G01*
X32860800Y-35002100D02*
X32860800Y-34052100D01*
G75*
G02*
X33023300Y-33889600I162500J0D01*
G01*
X33348300Y-33889600D01*
G75*
G02*
X33510800Y-34052100I0J-162500D01*
G01*
X33510800Y-35002100D01*
G75*
G02*
X33348300Y-35164600I-162500J0D01*
G01*
X33023300Y-35164600D01*
G75*
G02*
X32860800Y-35002100I0J162500D01*
G01*
G37*
G36*
G01*
X32360800Y-35002100D02*
X32360800Y-34052100D01*
G75*
G02*
X32523300Y-33889600I162500J0D01*
G01*
X32848300Y-33889600D01*
G75*
G02*
X33010800Y-34052100I0J-162500D01*
G01*
X33010800Y-35002100D01*
G75*
G02*
X32848300Y-35164600I-162500J0D01*
G01*
X32523300Y-35164600D01*
G75*
G02*
X32360800Y-35002100I0J162500D01*
G01*
G37*
G36*
G01*
X31860800Y-35002100D02*
X31860800Y-34052100D01*
G75*
G02*
X32023300Y-33889600I162500J0D01*
G01*
X32348300Y-33889600D01*
G75*
G02*
X32510800Y-34052100I0J-162500D01*
G01*
X32510800Y-35002100D01*
G75*
G02*
X32348300Y-35164600I-162500J0D01*
G01*
X32023300Y-35164600D01*
G75*
G02*
X31860800Y-35002100I0J162500D01*
G01*
G37*
G36*
G01*
X31360800Y-35002100D02*
X31360800Y-34052100D01*
G75*
G02*
X31523300Y-33889600I162500J0D01*
G01*
X31848300Y-33889600D01*
G75*
G02*
X32010800Y-34052100I0J-162500D01*
G01*
X32010800Y-35002100D01*
G75*
G02*
X31848300Y-35164600I-162500J0D01*
G01*
X31523300Y-35164600D01*
G75*
G02*
X31360800Y-35002100I0J162500D01*
G01*
G37*
G36*
G01*
X30860800Y-35002100D02*
X30860800Y-34052100D01*
G75*
G02*
X31023300Y-33889600I162500J0D01*
G01*
X31348300Y-33889600D01*
G75*
G02*
X31510800Y-34052100I0J-162500D01*
G01*
X31510800Y-35002100D01*
G75*
G02*
X31348300Y-35164600I-162500J0D01*
G01*
X31023300Y-35164600D01*
G75*
G02*
X30860800Y-35002100I0J162500D01*
G01*
G37*
G36*
G01*
X30360800Y-35002100D02*
X30360800Y-34052100D01*
G75*
G02*
X30523300Y-33889600I162500J0D01*
G01*
X30848300Y-33889600D01*
G75*
G02*
X31010800Y-34052100I0J-162500D01*
G01*
X31010800Y-35002100D01*
G75*
G02*
X30848300Y-35164600I-162500J0D01*
G01*
X30523300Y-35164600D01*
G75*
G02*
X30360800Y-35002100I0J162500D01*
G01*
G37*
G36*
G01*
X29860800Y-35002100D02*
X29860800Y-34052100D01*
G75*
G02*
X30023300Y-33889600I162500J0D01*
G01*
X30348300Y-33889600D01*
G75*
G02*
X30510800Y-34052100I0J-162500D01*
G01*
X30510800Y-35002100D01*
G75*
G02*
X30348300Y-35164600I-162500J0D01*
G01*
X30023300Y-35164600D01*
G75*
G02*
X29860800Y-35002100I0J162500D01*
G01*
G37*
G36*
G01*
X29360800Y-35002100D02*
X29360800Y-34052100D01*
G75*
G02*
X29523300Y-33889600I162500J0D01*
G01*
X29848300Y-33889600D01*
G75*
G02*
X30010800Y-34052100I0J-162500D01*
G01*
X30010800Y-35002100D01*
G75*
G02*
X29848300Y-35164600I-162500J0D01*
G01*
X29523300Y-35164600D01*
G75*
G02*
X29360800Y-35002100I0J162500D01*
G01*
G37*
G36*
G01*
X28360800Y-34002100D02*
X28360800Y-33677100D01*
G75*
G02*
X28523300Y-33514600I162500J0D01*
G01*
X29473300Y-33514600D01*
G75*
G02*
X29635800Y-33677100I0J-162500D01*
G01*
X29635800Y-34002100D01*
G75*
G02*
X29473300Y-34164600I-162500J0D01*
G01*
X28523300Y-34164600D01*
G75*
G02*
X28360800Y-34002100I0J162500D01*
G01*
G37*
G36*
G01*
X28360800Y-33502100D02*
X28360800Y-33177100D01*
G75*
G02*
X28523300Y-33014600I162500J0D01*
G01*
X29473300Y-33014600D01*
G75*
G02*
X29635800Y-33177100I0J-162500D01*
G01*
X29635800Y-33502100D01*
G75*
G02*
X29473300Y-33664600I-162500J0D01*
G01*
X28523300Y-33664600D01*
G75*
G02*
X28360800Y-33502100I0J162500D01*
G01*
G37*
G36*
G01*
X28360800Y-33002100D02*
X28360800Y-32677100D01*
G75*
G02*
X28523300Y-32514600I162500J0D01*
G01*
X29473300Y-32514600D01*
G75*
G02*
X29635800Y-32677100I0J-162500D01*
G01*
X29635800Y-33002100D01*
G75*
G02*
X29473300Y-33164600I-162500J0D01*
G01*
X28523300Y-33164600D01*
G75*
G02*
X28360800Y-33002100I0J162500D01*
G01*
G37*
G36*
G01*
X28360800Y-32502100D02*
X28360800Y-32177100D01*
G75*
G02*
X28523300Y-32014600I162500J0D01*
G01*
X29473300Y-32014600D01*
G75*
G02*
X29635800Y-32177100I0J-162500D01*
G01*
X29635800Y-32502100D01*
G75*
G02*
X29473300Y-32664600I-162500J0D01*
G01*
X28523300Y-32664600D01*
G75*
G02*
X28360800Y-32502100I0J162500D01*
G01*
G37*
G36*
G01*
X28360800Y-32002100D02*
X28360800Y-31677100D01*
G75*
G02*
X28523300Y-31514600I162500J0D01*
G01*
X29473300Y-31514600D01*
G75*
G02*
X29635800Y-31677100I0J-162500D01*
G01*
X29635800Y-32002100D01*
G75*
G02*
X29473300Y-32164600I-162500J0D01*
G01*
X28523300Y-32164600D01*
G75*
G02*
X28360800Y-32002100I0J162500D01*
G01*
G37*
G36*
G01*
X28360800Y-31502100D02*
X28360800Y-31177100D01*
G75*
G02*
X28523300Y-31014600I162500J0D01*
G01*
X29473300Y-31014600D01*
G75*
G02*
X29635800Y-31177100I0J-162500D01*
G01*
X29635800Y-31502100D01*
G75*
G02*
X29473300Y-31664600I-162500J0D01*
G01*
X28523300Y-31664600D01*
G75*
G02*
X28360800Y-31502100I0J162500D01*
G01*
G37*
G36*
G01*
X28360800Y-31002100D02*
X28360800Y-30677100D01*
G75*
G02*
X28523300Y-30514600I162500J0D01*
G01*
X29473300Y-30514600D01*
G75*
G02*
X29635800Y-30677100I0J-162500D01*
G01*
X29635800Y-31002100D01*
G75*
G02*
X29473300Y-31164600I-162500J0D01*
G01*
X28523300Y-31164600D01*
G75*
G02*
X28360800Y-31002100I0J162500D01*
G01*
G37*
G36*
G01*
X28360800Y-30502100D02*
X28360800Y-30177100D01*
G75*
G02*
X28523300Y-30014600I162500J0D01*
G01*
X29473300Y-30014600D01*
G75*
G02*
X29635800Y-30177100I0J-162500D01*
G01*
X29635800Y-30502100D01*
G75*
G02*
X29473300Y-30664600I-162500J0D01*
G01*
X28523300Y-30664600D01*
G75*
G02*
X28360800Y-30502100I0J162500D01*
G01*
G37*
G36*
G01*
X28360800Y-30002100D02*
X28360800Y-29677100D01*
G75*
G02*
X28523300Y-29514600I162500J0D01*
G01*
X29473300Y-29514600D01*
G75*
G02*
X29635800Y-29677100I0J-162500D01*
G01*
X29635800Y-30002100D01*
G75*
G02*
X29473300Y-30164600I-162500J0D01*
G01*
X28523300Y-30164600D01*
G75*
G02*
X28360800Y-30002100I0J162500D01*
G01*
G37*
G36*
G01*
X28360800Y-29502100D02*
X28360800Y-29177100D01*
G75*
G02*
X28523300Y-29014600I162500J0D01*
G01*
X29473300Y-29014600D01*
G75*
G02*
X29635800Y-29177100I0J-162500D01*
G01*
X29635800Y-29502100D01*
G75*
G02*
X29473300Y-29664600I-162500J0D01*
G01*
X28523300Y-29664600D01*
G75*
G02*
X28360800Y-29502100I0J162500D01*
G01*
G37*
G36*
G01*
X28360800Y-29002100D02*
X28360800Y-28677100D01*
G75*
G02*
X28523300Y-28514600I162500J0D01*
G01*
X29473300Y-28514600D01*
G75*
G02*
X29635800Y-28677100I0J-162500D01*
G01*
X29635800Y-29002100D01*
G75*
G02*
X29473300Y-29164600I-162500J0D01*
G01*
X28523300Y-29164600D01*
G75*
G02*
X28360800Y-29002100I0J162500D01*
G01*
G37*
G36*
G01*
X28360800Y-28502100D02*
X28360800Y-28177100D01*
G75*
G02*
X28523300Y-28014600I162500J0D01*
G01*
X29473300Y-28014600D01*
G75*
G02*
X29635800Y-28177100I0J-162500D01*
G01*
X29635800Y-28502100D01*
G75*
G02*
X29473300Y-28664600I-162500J0D01*
G01*
X28523300Y-28664600D01*
G75*
G02*
X28360800Y-28502100I0J162500D01*
G01*
G37*
%TD*%
%TO.C,J2*%
G36*
G01*
X19234332Y-46127800D02*
X20767668Y-46127800D01*
G75*
G02*
X21101000Y-46461132I0J-333332D01*
G01*
X21101000Y-47394468D01*
G75*
G02*
X20767668Y-47727800I-333332J0D01*
G01*
X19234332Y-47727800D01*
G75*
G02*
X18901000Y-47394468I0J333332D01*
G01*
X18901000Y-46461132D01*
G75*
G02*
X19234332Y-46127800I333332J0D01*
G01*
G37*
G36*
G01*
X19234332Y-40527800D02*
X20767668Y-40527800D01*
G75*
G02*
X21101000Y-40861132I0J-333332D01*
G01*
X21101000Y-41794468D01*
G75*
G02*
X20767668Y-42127800I-333332J0D01*
G01*
X19234332Y-42127800D01*
G75*
G02*
X18901000Y-41794468I0J333332D01*
G01*
X18901000Y-40861132D01*
G75*
G02*
X19234332Y-40527800I333332J0D01*
G01*
G37*
G36*
G01*
X23151000Y-45127800D02*
X24601000Y-45127800D01*
G75*
G02*
X24851000Y-45377800I0J-250000D01*
G01*
X24851000Y-45877800D01*
G75*
G02*
X24601000Y-46127800I-250000J0D01*
G01*
X23151000Y-46127800D01*
G75*
G02*
X22901000Y-45877800I0J250000D01*
G01*
X22901000Y-45377800D01*
G75*
G02*
X23151000Y-45127800I250000J0D01*
G01*
G37*
G36*
G01*
X23151000Y-44127800D02*
X24601000Y-44127800D01*
G75*
G02*
X24851000Y-44377800I0J-250000D01*
G01*
X24851000Y-44877800D01*
G75*
G02*
X24601000Y-45127800I-250000J0D01*
G01*
X23151000Y-45127800D01*
G75*
G02*
X22901000Y-44877800I0J250000D01*
G01*
X22901000Y-44377800D01*
G75*
G02*
X23151000Y-44127800I250000J0D01*
G01*
G37*
G36*
G01*
X23151000Y-43127800D02*
X24601000Y-43127800D01*
G75*
G02*
X24851000Y-43377800I0J-250000D01*
G01*
X24851000Y-43877800D01*
G75*
G02*
X24601000Y-44127800I-250000J0D01*
G01*
X23151000Y-44127800D01*
G75*
G02*
X22901000Y-43877800I0J250000D01*
G01*
X22901000Y-43377800D01*
G75*
G02*
X23151000Y-43127800I250000J0D01*
G01*
G37*
G36*
G01*
X23151000Y-42127800D02*
X24601000Y-42127800D01*
G75*
G02*
X24851000Y-42377800I0J-250000D01*
G01*
X24851000Y-42877800D01*
G75*
G02*
X24601000Y-43127800I-250000J0D01*
G01*
X23151000Y-43127800D01*
G75*
G02*
X22901000Y-42877800I0J250000D01*
G01*
X22901000Y-42377800D01*
G75*
G02*
X23151000Y-42127800I250000J0D01*
G01*
G37*
%TD*%
%TO.C,L1*%
G36*
G01*
X32839800Y-25375250D02*
X32839800Y-24662750D01*
G75*
G02*
X33158550Y-24344000I318750J0D01*
G01*
X33796050Y-24344000D01*
G75*
G02*
X34114800Y-24662750I0J-318750D01*
G01*
X34114800Y-25375250D01*
G75*
G02*
X33796050Y-25694000I-318750J0D01*
G01*
X33158550Y-25694000D01*
G75*
G02*
X32839800Y-25375250I0J318750D01*
G01*
G37*
G36*
G01*
X31264800Y-25375250D02*
X31264800Y-24662750D01*
G75*
G02*
X31583550Y-24344000I318750J0D01*
G01*
X32221050Y-24344000D01*
G75*
G02*
X32539800Y-24662750I0J-318750D01*
G01*
X32539800Y-25375250D01*
G75*
G02*
X32221050Y-25694000I-318750J0D01*
G01*
X31583550Y-25694000D01*
G75*
G02*
X31264800Y-25375250I0J318750D01*
G01*
G37*
%TD*%
%TO.C,C1*%
G36*
G01*
X23957800Y-22210600D02*
X24657800Y-22210600D01*
G75*
G02*
X24982800Y-22535600I0J-325000D01*
G01*
X24982800Y-23185600D01*
G75*
G02*
X24657800Y-23510600I-325000J0D01*
G01*
X23957800Y-23510600D01*
G75*
G02*
X23632800Y-23185600I0J325000D01*
G01*
X23632800Y-22535600D01*
G75*
G02*
X23957800Y-22210600I325000J0D01*
G01*
G37*
G36*
G01*
X23957800Y-20660600D02*
X24657800Y-20660600D01*
G75*
G02*
X24982800Y-20985600I0J-325000D01*
G01*
X24982800Y-21635600D01*
G75*
G02*
X24657800Y-21960600I-325000J0D01*
G01*
X23957800Y-21960600D01*
G75*
G02*
X23632800Y-21635600I0J325000D01*
G01*
X23632800Y-20985600D01*
G75*
G02*
X23957800Y-20660600I325000J0D01*
G01*
G37*
%TD*%
%TO.C,C2*%
G36*
G01*
X27807400Y-42229200D02*
X27107400Y-42229200D01*
G75*
G02*
X26782400Y-41904200I0J325000D01*
G01*
X26782400Y-41254200D01*
G75*
G02*
X27107400Y-40929200I325000J0D01*
G01*
X27807400Y-40929200D01*
G75*
G02*
X28132400Y-41254200I0J-325000D01*
G01*
X28132400Y-41904200D01*
G75*
G02*
X27807400Y-42229200I-325000J0D01*
G01*
G37*
G36*
G01*
X27807400Y-43779200D02*
X27107400Y-43779200D01*
G75*
G02*
X26782400Y-43454200I0J325000D01*
G01*
X26782400Y-42804200D01*
G75*
G02*
X27107400Y-42479200I325000J0D01*
G01*
X27807400Y-42479200D01*
G75*
G02*
X28132400Y-42804200I0J-325000D01*
G01*
X28132400Y-43454200D01*
G75*
G02*
X27807400Y-43779200I-325000J0D01*
G01*
G37*
%TD*%
%TO.C,C3*%
G36*
G01*
X32590200Y-23018000D02*
X32590200Y-23718000D01*
G75*
G02*
X32265200Y-24043000I-325000J0D01*
G01*
X31615200Y-24043000D01*
G75*
G02*
X31290200Y-23718000I0J325000D01*
G01*
X31290200Y-23018000D01*
G75*
G02*
X31615200Y-22693000I325000J0D01*
G01*
X32265200Y-22693000D01*
G75*
G02*
X32590200Y-23018000I0J-325000D01*
G01*
G37*
G36*
G01*
X34140200Y-23018000D02*
X34140200Y-23718000D01*
G75*
G02*
X33815200Y-24043000I-325000J0D01*
G01*
X33165200Y-24043000D01*
G75*
G02*
X32840200Y-23718000I0J325000D01*
G01*
X32840200Y-23018000D01*
G75*
G02*
X33165200Y-22693000I325000J0D01*
G01*
X33815200Y-22693000D01*
G75*
G02*
X34140200Y-23018000I0J-325000D01*
G01*
G37*
%TD*%
%TO.C,C4*%
G36*
G01*
X32183800Y-37470600D02*
X32183800Y-38170600D01*
G75*
G02*
X31858800Y-38495600I-325000J0D01*
G01*
X31208800Y-38495600D01*
G75*
G02*
X30883800Y-38170600I0J325000D01*
G01*
X30883800Y-37470600D01*
G75*
G02*
X31208800Y-37145600I325000J0D01*
G01*
X31858800Y-37145600D01*
G75*
G02*
X32183800Y-37470600I0J-325000D01*
G01*
G37*
G36*
G01*
X33733800Y-37470600D02*
X33733800Y-38170600D01*
G75*
G02*
X33408800Y-38495600I-325000J0D01*
G01*
X32758800Y-38495600D01*
G75*
G02*
X32433800Y-38170600I0J325000D01*
G01*
X32433800Y-37470600D01*
G75*
G02*
X32758800Y-37145600I325000J0D01*
G01*
X33408800Y-37145600D01*
G75*
G02*
X33733800Y-37470600I0J-325000D01*
G01*
G37*
%TD*%
D14*
%TO.C,J1*%
X42557800Y-24906600D03*
X42557800Y-29906600D03*
D15*
X45307800Y-23531600D03*
X45307800Y-31281600D03*
D16*
X41507800Y-23681600D03*
X41507800Y-31131600D03*
G36*
G01*
X42107800Y-26531600D02*
X40807800Y-26531600D01*
G75*
G02*
X40607800Y-26331600I0J200000D01*
G01*
X40607800Y-25881600D01*
G75*
G02*
X40807800Y-25681600I200000J0D01*
G01*
X42107800Y-25681600D01*
G75*
G02*
X42307800Y-25881600I0J-200000D01*
G01*
X42307800Y-26331600D01*
G75*
G02*
X42107800Y-26531600I-200000J0D01*
G01*
G37*
G36*
G01*
X42107800Y-27181600D02*
X40807800Y-27181600D01*
G75*
G02*
X40607800Y-26981600I0J200000D01*
G01*
X40607800Y-26531600D01*
G75*
G02*
X40807800Y-26331600I200000J0D01*
G01*
X42107800Y-26331600D01*
G75*
G02*
X42307800Y-26531600I0J-200000D01*
G01*
X42307800Y-26981600D01*
G75*
G02*
X42107800Y-27181600I-200000J0D01*
G01*
G37*
G36*
G01*
X42107800Y-27831600D02*
X40807800Y-27831600D01*
G75*
G02*
X40607800Y-27631600I0J200000D01*
G01*
X40607800Y-27181600D01*
G75*
G02*
X40807800Y-26981600I200000J0D01*
G01*
X42107800Y-26981600D01*
G75*
G02*
X42307800Y-27181600I0J-200000D01*
G01*
X42307800Y-27631600D01*
G75*
G02*
X42107800Y-27831600I-200000J0D01*
G01*
G37*
G36*
G01*
X42107800Y-28481600D02*
X40807800Y-28481600D01*
G75*
G02*
X40607800Y-28281600I0J200000D01*
G01*
X40607800Y-27831600D01*
G75*
G02*
X40807800Y-27631600I200000J0D01*
G01*
X42107800Y-27631600D01*
G75*
G02*
X42307800Y-27831600I0J-200000D01*
G01*
X42307800Y-28281600D01*
G75*
G02*
X42107800Y-28481600I-200000J0D01*
G01*
G37*
G36*
G01*
X42107800Y-29131600D02*
X40807800Y-29131600D01*
G75*
G02*
X40607800Y-28931600I0J200000D01*
G01*
X40607800Y-28481600D01*
G75*
G02*
X40807800Y-28281600I200000J0D01*
G01*
X42107800Y-28281600D01*
G75*
G02*
X42307800Y-28481600I0J-200000D01*
G01*
X42307800Y-28931600D01*
G75*
G02*
X42107800Y-29131600I-200000J0D01*
G01*
G37*
%TD*%
%TO.C,R2*%
G36*
G01*
X22523800Y-21910600D02*
X21773800Y-21910600D01*
G75*
G02*
X21473800Y-21610600I0J300000D01*
G01*
X21473800Y-21010600D01*
G75*
G02*
X21773800Y-20710600I300000J0D01*
G01*
X22523800Y-20710600D01*
G75*
G02*
X22823800Y-21010600I0J-300000D01*
G01*
X22823800Y-21610600D01*
G75*
G02*
X22523800Y-21910600I-300000J0D01*
G01*
G37*
G36*
G01*
X22523800Y-23560600D02*
X21773800Y-23560600D01*
G75*
G02*
X21473800Y-23260600I0J300000D01*
G01*
X21473800Y-22660600D01*
G75*
G02*
X21773800Y-22360600I300000J0D01*
G01*
X22523800Y-22360600D01*
G75*
G02*
X22823800Y-22660600I0J-300000D01*
G01*
X22823800Y-23260600D01*
G75*
G02*
X22523800Y-23560600I-300000J0D01*
G01*
G37*
%TD*%
%TO.C,R3*%
G36*
G01*
X32579600Y-49358200D02*
X32579600Y-50108200D01*
G75*
G02*
X32279600Y-50408200I-300000J0D01*
G01*
X31679600Y-50408200D01*
G75*
G02*
X31379600Y-50108200I0J300000D01*
G01*
X31379600Y-49358200D01*
G75*
G02*
X31679600Y-49058200I300000J0D01*
G01*
X32279600Y-49058200D01*
G75*
G02*
X32579600Y-49358200I0J-300000D01*
G01*
G37*
G36*
G01*
X34229600Y-49358200D02*
X34229600Y-50108200D01*
G75*
G02*
X33929600Y-50408200I-300000J0D01*
G01*
X33329600Y-50408200D01*
G75*
G02*
X33029600Y-50108200I0J300000D01*
G01*
X33029600Y-49358200D01*
G75*
G02*
X33329600Y-49058200I300000J0D01*
G01*
X33929600Y-49058200D01*
G75*
G02*
X34229600Y-49358200I0J-300000D01*
G01*
G37*
%TD*%
D10*
%TO.C,TP_PIEZO_GND1*%
X38506400Y-21844000D03*
%TD*%
%TO.C,TP_PIEZO_SIGNAL1*%
X38531800Y-24739600D03*
%TD*%
%TO.C,TP_VLCD1*%
X32943800Y-40233600D03*
%TD*%
M02*
