%TF.GenerationSoftware,KiCad,Pcbnew,(5.1.9-0-10_14)*%
%TF.CreationDate,2021-09-13T12:25:13+02:00*%
%TF.ProjectId,SmartwatchPCB,536d6172-7477-4617-9463-685043422e6b,rev?*%
%TF.SameCoordinates,Original*%
%TF.FileFunction,Soldermask,Bot*%
%TF.FilePolarity,Negative*%
%FSLAX46Y46*%
G04 Gerber Fmt 4.6, Leading zero omitted, Abs format (unit mm)*
G04 Created by KiCad (PCBNEW (5.1.9-0-10_14)) date 2021-09-13 12:25:13*
%MOMM*%
%LPD*%
G01*
G04 APERTURE LIST*
%ADD10O,2.100000X2.100000*%
%ADD11C,1.600000*%
%ADD12C,1.800000*%
%ADD13C,0.100000*%
%ADD14C,1.200000*%
%ADD15C,2.200000*%
%ADD16C,2.400000*%
G04 APERTURE END LIST*
D10*
%TO.C,J3*%
X36677600Y-54406800D03*
X34137600Y-54406800D03*
X31597600Y-54406800D03*
G36*
G01*
X29907600Y-55456800D02*
X28207600Y-55456800D01*
G75*
G02*
X28007600Y-55256800I0J200000D01*
G01*
X28007600Y-53556800D01*
G75*
G02*
X28207600Y-53356800I200000J0D01*
G01*
X29907600Y-53356800D01*
G75*
G02*
X30107600Y-53556800I0J-200000D01*
G01*
X30107600Y-55256800D01*
G75*
G02*
X29907600Y-55456800I-200000J0D01*
G01*
G37*
%TD*%
D11*
%TO.C,U1*%
X26880300Y-18994600D03*
X38880300Y-18994600D03*
X24630300Y-35629600D03*
X41130300Y-35629600D03*
X30130300Y-48379600D03*
D12*
X41130300Y-48379600D03*
X24630300Y-40106600D03*
D11*
X41130300Y-40229600D03*
G36*
G01*
X42784300Y-32994600D02*
X42784300Y-34264600D01*
G75*
G02*
X42584300Y-34464600I-200000J0D01*
G01*
X42076300Y-34464600D01*
G75*
G02*
X41876300Y-34264600I0J200000D01*
G01*
X41876300Y-32994600D01*
G75*
G02*
X42076300Y-32794600I200000J0D01*
G01*
X42584300Y-32794600D01*
G75*
G02*
X42784300Y-32994600I0J-200000D01*
G01*
G37*
G36*
G01*
X41884300Y-32994600D02*
X41884300Y-34264600D01*
G75*
G02*
X41684300Y-34464600I-200000J0D01*
G01*
X41176300Y-34464600D01*
G75*
G02*
X40976300Y-34264600I0J200000D01*
G01*
X40976300Y-32994600D01*
G75*
G02*
X41176300Y-32794600I200000J0D01*
G01*
X41684300Y-32794600D01*
G75*
G02*
X41884300Y-32994600I0J-200000D01*
G01*
G37*
G36*
G01*
X40984300Y-32994600D02*
X40984300Y-34264600D01*
G75*
G02*
X40784300Y-34464600I-200000J0D01*
G01*
X40276300Y-34464600D01*
G75*
G02*
X40076300Y-34264600I0J200000D01*
G01*
X40076300Y-32994600D01*
G75*
G02*
X40276300Y-32794600I200000J0D01*
G01*
X40784300Y-32794600D01*
G75*
G02*
X40984300Y-32994600I0J-200000D01*
G01*
G37*
G36*
G01*
X40084300Y-32994600D02*
X40084300Y-34264600D01*
G75*
G02*
X39884300Y-34464600I-200000J0D01*
G01*
X39376300Y-34464600D01*
G75*
G02*
X39176300Y-34264600I0J200000D01*
G01*
X39176300Y-32994600D01*
G75*
G02*
X39376300Y-32794600I200000J0D01*
G01*
X39884300Y-32794600D01*
G75*
G02*
X40084300Y-32994600I0J-200000D01*
G01*
G37*
G36*
G01*
X39184300Y-32994600D02*
X39184300Y-34264600D01*
G75*
G02*
X38984300Y-34464600I-200000J0D01*
G01*
X38476300Y-34464600D01*
G75*
G02*
X38276300Y-34264600I0J200000D01*
G01*
X38276300Y-32994600D01*
G75*
G02*
X38476300Y-32794600I200000J0D01*
G01*
X38984300Y-32794600D01*
G75*
G02*
X39184300Y-32994600I0J-200000D01*
G01*
G37*
G36*
G01*
X38284300Y-32994600D02*
X38284300Y-34264600D01*
G75*
G02*
X38084300Y-34464600I-200000J0D01*
G01*
X37576300Y-34464600D01*
G75*
G02*
X37376300Y-34264600I0J200000D01*
G01*
X37376300Y-32994600D01*
G75*
G02*
X37576300Y-32794600I200000J0D01*
G01*
X38084300Y-32794600D01*
G75*
G02*
X38284300Y-32994600I0J-200000D01*
G01*
G37*
G36*
G01*
X37384300Y-32994600D02*
X37384300Y-34264600D01*
G75*
G02*
X37184300Y-34464600I-200000J0D01*
G01*
X36676300Y-34464600D01*
G75*
G02*
X36476300Y-34264600I0J200000D01*
G01*
X36476300Y-32994600D01*
G75*
G02*
X36676300Y-32794600I200000J0D01*
G01*
X37184300Y-32794600D01*
G75*
G02*
X37384300Y-32994600I0J-200000D01*
G01*
G37*
G36*
G01*
X36484300Y-32994600D02*
X36484300Y-34264600D01*
G75*
G02*
X36284300Y-34464600I-200000J0D01*
G01*
X35776300Y-34464600D01*
G75*
G02*
X35576300Y-34264600I0J200000D01*
G01*
X35576300Y-32994600D01*
G75*
G02*
X35776300Y-32794600I200000J0D01*
G01*
X36284300Y-32794600D01*
G75*
G02*
X36484300Y-32994600I0J-200000D01*
G01*
G37*
G36*
G01*
X35584300Y-32994600D02*
X35584300Y-34264600D01*
G75*
G02*
X35384300Y-34464600I-200000J0D01*
G01*
X34876300Y-34464600D01*
G75*
G02*
X34676300Y-34264600I0J200000D01*
G01*
X34676300Y-32994600D01*
G75*
G02*
X34876300Y-32794600I200000J0D01*
G01*
X35384300Y-32794600D01*
G75*
G02*
X35584300Y-32994600I0J-200000D01*
G01*
G37*
G36*
G01*
X34684300Y-32994600D02*
X34684300Y-34264600D01*
G75*
G02*
X34484300Y-34464600I-200000J0D01*
G01*
X33976300Y-34464600D01*
G75*
G02*
X33776300Y-34264600I0J200000D01*
G01*
X33776300Y-32994600D01*
G75*
G02*
X33976300Y-32794600I200000J0D01*
G01*
X34484300Y-32794600D01*
G75*
G02*
X34684300Y-32994600I0J-200000D01*
G01*
G37*
G36*
G01*
X33784300Y-32994600D02*
X33784300Y-34264600D01*
G75*
G02*
X33584300Y-34464600I-200000J0D01*
G01*
X33076300Y-34464600D01*
G75*
G02*
X32876300Y-34264600I0J200000D01*
G01*
X32876300Y-32994600D01*
G75*
G02*
X33076300Y-32794600I200000J0D01*
G01*
X33584300Y-32794600D01*
G75*
G02*
X33784300Y-32994600I0J-200000D01*
G01*
G37*
G36*
G01*
X32884300Y-32994600D02*
X32884300Y-34264600D01*
G75*
G02*
X32684300Y-34464600I-200000J0D01*
G01*
X32176300Y-34464600D01*
G75*
G02*
X31976300Y-34264600I0J200000D01*
G01*
X31976300Y-32994600D01*
G75*
G02*
X32176300Y-32794600I200000J0D01*
G01*
X32684300Y-32794600D01*
G75*
G02*
X32884300Y-32994600I0J-200000D01*
G01*
G37*
G36*
G01*
X31984300Y-32994600D02*
X31984300Y-34264600D01*
G75*
G02*
X31784300Y-34464600I-200000J0D01*
G01*
X31276300Y-34464600D01*
G75*
G02*
X31076300Y-34264600I0J200000D01*
G01*
X31076300Y-32994600D01*
G75*
G02*
X31276300Y-32794600I200000J0D01*
G01*
X31784300Y-32794600D01*
G75*
G02*
X31984300Y-32994600I0J-200000D01*
G01*
G37*
G36*
G01*
X31084300Y-32994600D02*
X31084300Y-34264600D01*
G75*
G02*
X30884300Y-34464600I-200000J0D01*
G01*
X30376300Y-34464600D01*
G75*
G02*
X30176300Y-34264600I0J200000D01*
G01*
X30176300Y-32994600D01*
G75*
G02*
X30376300Y-32794600I200000J0D01*
G01*
X30884300Y-32794600D01*
G75*
G02*
X31084300Y-32994600I0J-200000D01*
G01*
G37*
G36*
G01*
X30184300Y-32994600D02*
X30184300Y-34264600D01*
G75*
G02*
X29984300Y-34464600I-200000J0D01*
G01*
X29476300Y-34464600D01*
G75*
G02*
X29276300Y-34264600I0J200000D01*
G01*
X29276300Y-32994600D01*
G75*
G02*
X29476300Y-32794600I200000J0D01*
G01*
X29984300Y-32794600D01*
G75*
G02*
X30184300Y-32994600I0J-200000D01*
G01*
G37*
G36*
G01*
X29284300Y-32994600D02*
X29284300Y-34264600D01*
G75*
G02*
X29084300Y-34464600I-200000J0D01*
G01*
X28576300Y-34464600D01*
G75*
G02*
X28376300Y-34264600I0J200000D01*
G01*
X28376300Y-32994600D01*
G75*
G02*
X28576300Y-32794600I200000J0D01*
G01*
X29084300Y-32794600D01*
G75*
G02*
X29284300Y-32994600I0J-200000D01*
G01*
G37*
G36*
G01*
X28384300Y-32994600D02*
X28384300Y-34264600D01*
G75*
G02*
X28184300Y-34464600I-200000J0D01*
G01*
X27676300Y-34464600D01*
G75*
G02*
X27476300Y-34264600I0J200000D01*
G01*
X27476300Y-32994600D01*
G75*
G02*
X27676300Y-32794600I200000J0D01*
G01*
X28184300Y-32794600D01*
G75*
G02*
X28384300Y-32994600I0J-200000D01*
G01*
G37*
G36*
G01*
X27484300Y-32994600D02*
X27484300Y-34264600D01*
G75*
G02*
X27284300Y-34464600I-200000J0D01*
G01*
X26776300Y-34464600D01*
G75*
G02*
X26576300Y-34264600I0J200000D01*
G01*
X26576300Y-32994600D01*
G75*
G02*
X26776300Y-32794600I200000J0D01*
G01*
X27284300Y-32794600D01*
G75*
G02*
X27484300Y-32994600I0J-200000D01*
G01*
G37*
G36*
G01*
X26584300Y-32994600D02*
X26584300Y-34264600D01*
G75*
G02*
X26384300Y-34464600I-200000J0D01*
G01*
X25876300Y-34464600D01*
G75*
G02*
X25676300Y-34264600I0J200000D01*
G01*
X25676300Y-32994600D01*
G75*
G02*
X25876300Y-32794600I200000J0D01*
G01*
X26384300Y-32794600D01*
G75*
G02*
X26584300Y-32994600I0J-200000D01*
G01*
G37*
G36*
G01*
X25684300Y-32994600D02*
X25684300Y-34264600D01*
G75*
G02*
X25484300Y-34464600I-200000J0D01*
G01*
X24976300Y-34464600D01*
G75*
G02*
X24776300Y-34264600I0J200000D01*
G01*
X24776300Y-32994600D01*
G75*
G02*
X24976300Y-32794600I200000J0D01*
G01*
X25484300Y-32794600D01*
G75*
G02*
X25684300Y-32994600I0J-200000D01*
G01*
G37*
G36*
G01*
X24784300Y-32994600D02*
X24784300Y-34264600D01*
G75*
G02*
X24584300Y-34464600I-200000J0D01*
G01*
X24076300Y-34464600D01*
G75*
G02*
X23876300Y-34264600I0J200000D01*
G01*
X23876300Y-32994600D01*
G75*
G02*
X24076300Y-32794600I200000J0D01*
G01*
X24584300Y-32794600D01*
G75*
G02*
X24784300Y-32994600I0J-200000D01*
G01*
G37*
G36*
G01*
X23884300Y-32994600D02*
X23884300Y-34264600D01*
G75*
G02*
X23684300Y-34464600I-200000J0D01*
G01*
X23176300Y-34464600D01*
G75*
G02*
X22976300Y-34264600I0J200000D01*
G01*
X22976300Y-32994600D01*
G75*
G02*
X23176300Y-32794600I200000J0D01*
G01*
X23684300Y-32794600D01*
G75*
G02*
X23884300Y-32994600I0J-200000D01*
G01*
G37*
%TD*%
D13*
%TO.C,SW_SUB1*%
G36*
X20281982Y-47034757D02*
G01*
X20244463Y-47023376D01*
X20209886Y-47004894D01*
X20179579Y-46980021D01*
X20154706Y-46949714D01*
X20136224Y-46915137D01*
X20124843Y-46877618D01*
X20121000Y-46838600D01*
X20121000Y-45831753D01*
X20120000Y-45821600D01*
X20120000Y-45567600D01*
X20123843Y-45528582D01*
X20135224Y-45491063D01*
X20153706Y-45456486D01*
X20178579Y-45426179D01*
X20179128Y-45425728D01*
X20179579Y-45425179D01*
X20209886Y-45400306D01*
X20244463Y-45381824D01*
X20281982Y-45370443D01*
X20321000Y-45366600D01*
X20584000Y-45366600D01*
X20594153Y-45367600D01*
X23368000Y-45367600D01*
X23407018Y-45371443D01*
X23444537Y-45382824D01*
X23479114Y-45401306D01*
X23509421Y-45426179D01*
X23534294Y-45456486D01*
X23552776Y-45491063D01*
X23564157Y-45528582D01*
X23568000Y-45567600D01*
X23568000Y-45821600D01*
X23564157Y-45860618D01*
X23552776Y-45898137D01*
X23534294Y-45932714D01*
X23509421Y-45963021D01*
X23479114Y-45987894D01*
X23444537Y-46006376D01*
X23407018Y-46017757D01*
X23368000Y-46021600D01*
X20784000Y-46021600D01*
X20784000Y-46374600D01*
X22860000Y-46374600D01*
X22899018Y-46378443D01*
X22936537Y-46389824D01*
X22971114Y-46408306D01*
X23001421Y-46433179D01*
X23026294Y-46463486D01*
X23044776Y-46498063D01*
X23056157Y-46535582D01*
X23060000Y-46574600D01*
X23060000Y-46838600D01*
X23056157Y-46877618D01*
X23044776Y-46915137D01*
X23026294Y-46949714D01*
X23001421Y-46980021D01*
X22971114Y-47004894D01*
X22936537Y-47023376D01*
X22899018Y-47034757D01*
X22860000Y-47038600D01*
X20321000Y-47038600D01*
X20281982Y-47034757D01*
G37*
G36*
X23406018Y-45878443D02*
G01*
X23443537Y-45889824D01*
X23478114Y-45908306D01*
X23508421Y-45933179D01*
X23533294Y-45963486D01*
X23551776Y-45998063D01*
X23563157Y-46035582D01*
X23567000Y-46074600D01*
X23567000Y-47081447D01*
X23568000Y-47091600D01*
X23568000Y-47345600D01*
X23564157Y-47384618D01*
X23552776Y-47422137D01*
X23534294Y-47456714D01*
X23509421Y-47487021D01*
X23508872Y-47487472D01*
X23508421Y-47488021D01*
X23478114Y-47512894D01*
X23443537Y-47531376D01*
X23406018Y-47542757D01*
X23367000Y-47546600D01*
X23104000Y-47546600D01*
X23093847Y-47545600D01*
X20320000Y-47545600D01*
X20280982Y-47541757D01*
X20243463Y-47530376D01*
X20208886Y-47511894D01*
X20178579Y-47487021D01*
X20153706Y-47456714D01*
X20135224Y-47422137D01*
X20123843Y-47384618D01*
X20120000Y-47345600D01*
X20120000Y-47091600D01*
X20123843Y-47052582D01*
X20135224Y-47015063D01*
X20153706Y-46980486D01*
X20178579Y-46950179D01*
X20208886Y-46925306D01*
X20243463Y-46906824D01*
X20280982Y-46895443D01*
X20320000Y-46891600D01*
X22904000Y-46891600D01*
X22904000Y-46538600D01*
X20828000Y-46538600D01*
X20788982Y-46534757D01*
X20751463Y-46523376D01*
X20716886Y-46504894D01*
X20686579Y-46480021D01*
X20661706Y-46449714D01*
X20643224Y-46415137D01*
X20631843Y-46377618D01*
X20628000Y-46338600D01*
X20628000Y-46074600D01*
X20631843Y-46035582D01*
X20643224Y-45998063D01*
X20661706Y-45963486D01*
X20686579Y-45933179D01*
X20716886Y-45908306D01*
X20751463Y-45889824D01*
X20788982Y-45878443D01*
X20828000Y-45874600D01*
X23367000Y-45874600D01*
X23406018Y-45878443D01*
G37*
%TD*%
%TO.C,SW_0*%
G36*
X39865218Y-49917043D02*
G01*
X39902737Y-49928424D01*
X39937314Y-49946906D01*
X39967621Y-49971779D01*
X39992494Y-50002086D01*
X40010976Y-50036663D01*
X40022357Y-50074182D01*
X40026200Y-50113200D01*
X40026200Y-51120047D01*
X40027200Y-51130200D01*
X40027200Y-51384200D01*
X40023357Y-51423218D01*
X40011976Y-51460737D01*
X39993494Y-51495314D01*
X39968621Y-51525621D01*
X39968072Y-51526072D01*
X39967621Y-51526621D01*
X39937314Y-51551494D01*
X39902737Y-51569976D01*
X39865218Y-51581357D01*
X39826200Y-51585200D01*
X39563200Y-51585200D01*
X39553047Y-51584200D01*
X36779200Y-51584200D01*
X36740182Y-51580357D01*
X36702663Y-51568976D01*
X36668086Y-51550494D01*
X36637779Y-51525621D01*
X36612906Y-51495314D01*
X36594424Y-51460737D01*
X36583043Y-51423218D01*
X36579200Y-51384200D01*
X36579200Y-51130200D01*
X36583043Y-51091182D01*
X36594424Y-51053663D01*
X36612906Y-51019086D01*
X36637779Y-50988779D01*
X36668086Y-50963906D01*
X36702663Y-50945424D01*
X36740182Y-50934043D01*
X36779200Y-50930200D01*
X39363200Y-50930200D01*
X39363200Y-50577200D01*
X37287200Y-50577200D01*
X37248182Y-50573357D01*
X37210663Y-50561976D01*
X37176086Y-50543494D01*
X37145779Y-50518621D01*
X37120906Y-50488314D01*
X37102424Y-50453737D01*
X37091043Y-50416218D01*
X37087200Y-50377200D01*
X37087200Y-50113200D01*
X37091043Y-50074182D01*
X37102424Y-50036663D01*
X37120906Y-50002086D01*
X37145779Y-49971779D01*
X37176086Y-49946906D01*
X37210663Y-49928424D01*
X37248182Y-49917043D01*
X37287200Y-49913200D01*
X39826200Y-49913200D01*
X39865218Y-49917043D01*
G37*
G36*
X36741182Y-51073357D02*
G01*
X36703663Y-51061976D01*
X36669086Y-51043494D01*
X36638779Y-51018621D01*
X36613906Y-50988314D01*
X36595424Y-50953737D01*
X36584043Y-50916218D01*
X36580200Y-50877200D01*
X36580200Y-49870353D01*
X36579200Y-49860200D01*
X36579200Y-49606200D01*
X36583043Y-49567182D01*
X36594424Y-49529663D01*
X36612906Y-49495086D01*
X36637779Y-49464779D01*
X36638328Y-49464328D01*
X36638779Y-49463779D01*
X36669086Y-49438906D01*
X36703663Y-49420424D01*
X36741182Y-49409043D01*
X36780200Y-49405200D01*
X37043200Y-49405200D01*
X37053353Y-49406200D01*
X39827200Y-49406200D01*
X39866218Y-49410043D01*
X39903737Y-49421424D01*
X39938314Y-49439906D01*
X39968621Y-49464779D01*
X39993494Y-49495086D01*
X40011976Y-49529663D01*
X40023357Y-49567182D01*
X40027200Y-49606200D01*
X40027200Y-49860200D01*
X40023357Y-49899218D01*
X40011976Y-49936737D01*
X39993494Y-49971314D01*
X39968621Y-50001621D01*
X39938314Y-50026494D01*
X39903737Y-50044976D01*
X39866218Y-50056357D01*
X39827200Y-50060200D01*
X37243200Y-50060200D01*
X37243200Y-50413200D01*
X39319200Y-50413200D01*
X39358218Y-50417043D01*
X39395737Y-50428424D01*
X39430314Y-50446906D01*
X39460621Y-50471779D01*
X39485494Y-50502086D01*
X39503976Y-50536663D01*
X39515357Y-50574182D01*
X39519200Y-50613200D01*
X39519200Y-50877200D01*
X39515357Y-50916218D01*
X39503976Y-50953737D01*
X39485494Y-50988314D01*
X39460621Y-51018621D01*
X39430314Y-51043494D01*
X39395737Y-51061976D01*
X39358218Y-51073357D01*
X39319200Y-51077200D01*
X36780200Y-51077200D01*
X36741182Y-51073357D01*
G37*
%TD*%
%TO.C,SW_1*%
G36*
X39865218Y-45878443D02*
G01*
X39902737Y-45889824D01*
X39937314Y-45908306D01*
X39967621Y-45933179D01*
X39992494Y-45963486D01*
X40010976Y-45998063D01*
X40022357Y-46035582D01*
X40026200Y-46074600D01*
X40026200Y-47081447D01*
X40027200Y-47091600D01*
X40027200Y-47345600D01*
X40023357Y-47384618D01*
X40011976Y-47422137D01*
X39993494Y-47456714D01*
X39968621Y-47487021D01*
X39968072Y-47487472D01*
X39967621Y-47488021D01*
X39937314Y-47512894D01*
X39902737Y-47531376D01*
X39865218Y-47542757D01*
X39826200Y-47546600D01*
X39563200Y-47546600D01*
X39553047Y-47545600D01*
X36779200Y-47545600D01*
X36740182Y-47541757D01*
X36702663Y-47530376D01*
X36668086Y-47511894D01*
X36637779Y-47487021D01*
X36612906Y-47456714D01*
X36594424Y-47422137D01*
X36583043Y-47384618D01*
X36579200Y-47345600D01*
X36579200Y-47091600D01*
X36583043Y-47052582D01*
X36594424Y-47015063D01*
X36612906Y-46980486D01*
X36637779Y-46950179D01*
X36668086Y-46925306D01*
X36702663Y-46906824D01*
X36740182Y-46895443D01*
X36779200Y-46891600D01*
X39363200Y-46891600D01*
X39363200Y-46538600D01*
X37287200Y-46538600D01*
X37248182Y-46534757D01*
X37210663Y-46523376D01*
X37176086Y-46504894D01*
X37145779Y-46480021D01*
X37120906Y-46449714D01*
X37102424Y-46415137D01*
X37091043Y-46377618D01*
X37087200Y-46338600D01*
X37087200Y-46074600D01*
X37091043Y-46035582D01*
X37102424Y-45998063D01*
X37120906Y-45963486D01*
X37145779Y-45933179D01*
X37176086Y-45908306D01*
X37210663Y-45889824D01*
X37248182Y-45878443D01*
X37287200Y-45874600D01*
X39826200Y-45874600D01*
X39865218Y-45878443D01*
G37*
G36*
X36741182Y-47034757D02*
G01*
X36703663Y-47023376D01*
X36669086Y-47004894D01*
X36638779Y-46980021D01*
X36613906Y-46949714D01*
X36595424Y-46915137D01*
X36584043Y-46877618D01*
X36580200Y-46838600D01*
X36580200Y-45831753D01*
X36579200Y-45821600D01*
X36579200Y-45567600D01*
X36583043Y-45528582D01*
X36594424Y-45491063D01*
X36612906Y-45456486D01*
X36637779Y-45426179D01*
X36638328Y-45425728D01*
X36638779Y-45425179D01*
X36669086Y-45400306D01*
X36703663Y-45381824D01*
X36741182Y-45370443D01*
X36780200Y-45366600D01*
X37043200Y-45366600D01*
X37053353Y-45367600D01*
X39827200Y-45367600D01*
X39866218Y-45371443D01*
X39903737Y-45382824D01*
X39938314Y-45401306D01*
X39968621Y-45426179D01*
X39993494Y-45456486D01*
X40011976Y-45491063D01*
X40023357Y-45528582D01*
X40027200Y-45567600D01*
X40027200Y-45821600D01*
X40023357Y-45860618D01*
X40011976Y-45898137D01*
X39993494Y-45932714D01*
X39968621Y-45963021D01*
X39938314Y-45987894D01*
X39903737Y-46006376D01*
X39866218Y-46017757D01*
X39827200Y-46021600D01*
X37243200Y-46021600D01*
X37243200Y-46374600D01*
X39319200Y-46374600D01*
X39358218Y-46378443D01*
X39395737Y-46389824D01*
X39430314Y-46408306D01*
X39460621Y-46433179D01*
X39485494Y-46463486D01*
X39503976Y-46498063D01*
X39515357Y-46535582D01*
X39519200Y-46574600D01*
X39519200Y-46838600D01*
X39515357Y-46877618D01*
X39503976Y-46915137D01*
X39485494Y-46949714D01*
X39460621Y-46980021D01*
X39430314Y-47004894D01*
X39395737Y-47023376D01*
X39358218Y-47034757D01*
X39319200Y-47038600D01*
X36780200Y-47038600D01*
X36741182Y-47034757D01*
G37*
%TD*%
%TO.C,SW_2*%
G36*
X34378818Y-45878443D02*
G01*
X34416337Y-45889824D01*
X34450914Y-45908306D01*
X34481221Y-45933179D01*
X34506094Y-45963486D01*
X34524576Y-45998063D01*
X34535957Y-46035582D01*
X34539800Y-46074600D01*
X34539800Y-47081447D01*
X34540800Y-47091600D01*
X34540800Y-47345600D01*
X34536957Y-47384618D01*
X34525576Y-47422137D01*
X34507094Y-47456714D01*
X34482221Y-47487021D01*
X34481672Y-47487472D01*
X34481221Y-47488021D01*
X34450914Y-47512894D01*
X34416337Y-47531376D01*
X34378818Y-47542757D01*
X34339800Y-47546600D01*
X34076800Y-47546600D01*
X34066647Y-47545600D01*
X31292800Y-47545600D01*
X31253782Y-47541757D01*
X31216263Y-47530376D01*
X31181686Y-47511894D01*
X31151379Y-47487021D01*
X31126506Y-47456714D01*
X31108024Y-47422137D01*
X31096643Y-47384618D01*
X31092800Y-47345600D01*
X31092800Y-47091600D01*
X31096643Y-47052582D01*
X31108024Y-47015063D01*
X31126506Y-46980486D01*
X31151379Y-46950179D01*
X31181686Y-46925306D01*
X31216263Y-46906824D01*
X31253782Y-46895443D01*
X31292800Y-46891600D01*
X33876800Y-46891600D01*
X33876800Y-46538600D01*
X31800800Y-46538600D01*
X31761782Y-46534757D01*
X31724263Y-46523376D01*
X31689686Y-46504894D01*
X31659379Y-46480021D01*
X31634506Y-46449714D01*
X31616024Y-46415137D01*
X31604643Y-46377618D01*
X31600800Y-46338600D01*
X31600800Y-46074600D01*
X31604643Y-46035582D01*
X31616024Y-45998063D01*
X31634506Y-45963486D01*
X31659379Y-45933179D01*
X31689686Y-45908306D01*
X31724263Y-45889824D01*
X31761782Y-45878443D01*
X31800800Y-45874600D01*
X34339800Y-45874600D01*
X34378818Y-45878443D01*
G37*
G36*
X31254782Y-47034757D02*
G01*
X31217263Y-47023376D01*
X31182686Y-47004894D01*
X31152379Y-46980021D01*
X31127506Y-46949714D01*
X31109024Y-46915137D01*
X31097643Y-46877618D01*
X31093800Y-46838600D01*
X31093800Y-45831753D01*
X31092800Y-45821600D01*
X31092800Y-45567600D01*
X31096643Y-45528582D01*
X31108024Y-45491063D01*
X31126506Y-45456486D01*
X31151379Y-45426179D01*
X31151928Y-45425728D01*
X31152379Y-45425179D01*
X31182686Y-45400306D01*
X31217263Y-45381824D01*
X31254782Y-45370443D01*
X31293800Y-45366600D01*
X31556800Y-45366600D01*
X31566953Y-45367600D01*
X34340800Y-45367600D01*
X34379818Y-45371443D01*
X34417337Y-45382824D01*
X34451914Y-45401306D01*
X34482221Y-45426179D01*
X34507094Y-45456486D01*
X34525576Y-45491063D01*
X34536957Y-45528582D01*
X34540800Y-45567600D01*
X34540800Y-45821600D01*
X34536957Y-45860618D01*
X34525576Y-45898137D01*
X34507094Y-45932714D01*
X34482221Y-45963021D01*
X34451914Y-45987894D01*
X34417337Y-46006376D01*
X34379818Y-46017757D01*
X34340800Y-46021600D01*
X31756800Y-46021600D01*
X31756800Y-46374600D01*
X33832800Y-46374600D01*
X33871818Y-46378443D01*
X33909337Y-46389824D01*
X33943914Y-46408306D01*
X33974221Y-46433179D01*
X33999094Y-46463486D01*
X34017576Y-46498063D01*
X34028957Y-46535582D01*
X34032800Y-46574600D01*
X34032800Y-46838600D01*
X34028957Y-46877618D01*
X34017576Y-46915137D01*
X33999094Y-46949714D01*
X33974221Y-46980021D01*
X33943914Y-47004894D01*
X33909337Y-47023376D01*
X33871818Y-47034757D01*
X33832800Y-47038600D01*
X31293800Y-47038600D01*
X31254782Y-47034757D01*
G37*
%TD*%
%TO.C,SW_3*%
G36*
X25768382Y-47034757D02*
G01*
X25730863Y-47023376D01*
X25696286Y-47004894D01*
X25665979Y-46980021D01*
X25641106Y-46949714D01*
X25622624Y-46915137D01*
X25611243Y-46877618D01*
X25607400Y-46838600D01*
X25607400Y-45831753D01*
X25606400Y-45821600D01*
X25606400Y-45567600D01*
X25610243Y-45528582D01*
X25621624Y-45491063D01*
X25640106Y-45456486D01*
X25664979Y-45426179D01*
X25665528Y-45425728D01*
X25665979Y-45425179D01*
X25696286Y-45400306D01*
X25730863Y-45381824D01*
X25768382Y-45370443D01*
X25807400Y-45366600D01*
X26070400Y-45366600D01*
X26080553Y-45367600D01*
X28854400Y-45367600D01*
X28893418Y-45371443D01*
X28930937Y-45382824D01*
X28965514Y-45401306D01*
X28995821Y-45426179D01*
X29020694Y-45456486D01*
X29039176Y-45491063D01*
X29050557Y-45528582D01*
X29054400Y-45567600D01*
X29054400Y-45821600D01*
X29050557Y-45860618D01*
X29039176Y-45898137D01*
X29020694Y-45932714D01*
X28995821Y-45963021D01*
X28965514Y-45987894D01*
X28930937Y-46006376D01*
X28893418Y-46017757D01*
X28854400Y-46021600D01*
X26270400Y-46021600D01*
X26270400Y-46374600D01*
X28346400Y-46374600D01*
X28385418Y-46378443D01*
X28422937Y-46389824D01*
X28457514Y-46408306D01*
X28487821Y-46433179D01*
X28512694Y-46463486D01*
X28531176Y-46498063D01*
X28542557Y-46535582D01*
X28546400Y-46574600D01*
X28546400Y-46838600D01*
X28542557Y-46877618D01*
X28531176Y-46915137D01*
X28512694Y-46949714D01*
X28487821Y-46980021D01*
X28457514Y-47004894D01*
X28422937Y-47023376D01*
X28385418Y-47034757D01*
X28346400Y-47038600D01*
X25807400Y-47038600D01*
X25768382Y-47034757D01*
G37*
G36*
X28892418Y-45878443D02*
G01*
X28929937Y-45889824D01*
X28964514Y-45908306D01*
X28994821Y-45933179D01*
X29019694Y-45963486D01*
X29038176Y-45998063D01*
X29049557Y-46035582D01*
X29053400Y-46074600D01*
X29053400Y-47081447D01*
X29054400Y-47091600D01*
X29054400Y-47345600D01*
X29050557Y-47384618D01*
X29039176Y-47422137D01*
X29020694Y-47456714D01*
X28995821Y-47487021D01*
X28995272Y-47487472D01*
X28994821Y-47488021D01*
X28964514Y-47512894D01*
X28929937Y-47531376D01*
X28892418Y-47542757D01*
X28853400Y-47546600D01*
X28590400Y-47546600D01*
X28580247Y-47545600D01*
X25806400Y-47545600D01*
X25767382Y-47541757D01*
X25729863Y-47530376D01*
X25695286Y-47511894D01*
X25664979Y-47487021D01*
X25640106Y-47456714D01*
X25621624Y-47422137D01*
X25610243Y-47384618D01*
X25606400Y-47345600D01*
X25606400Y-47091600D01*
X25610243Y-47052582D01*
X25621624Y-47015063D01*
X25640106Y-46980486D01*
X25664979Y-46950179D01*
X25695286Y-46925306D01*
X25729863Y-46906824D01*
X25767382Y-46895443D01*
X25806400Y-46891600D01*
X28390400Y-46891600D01*
X28390400Y-46538600D01*
X26314400Y-46538600D01*
X26275382Y-46534757D01*
X26237863Y-46523376D01*
X26203286Y-46504894D01*
X26172979Y-46480021D01*
X26148106Y-46449714D01*
X26129624Y-46415137D01*
X26118243Y-46377618D01*
X26114400Y-46338600D01*
X26114400Y-46074600D01*
X26118243Y-46035582D01*
X26129624Y-45998063D01*
X26148106Y-45963486D01*
X26172979Y-45933179D01*
X26203286Y-45908306D01*
X26237863Y-45889824D01*
X26275382Y-45878443D01*
X26314400Y-45874600D01*
X28853400Y-45874600D01*
X28892418Y-45878443D01*
G37*
%TD*%
%TO.C,SW_4*%
G36*
X36741182Y-42894557D02*
G01*
X36703663Y-42883176D01*
X36669086Y-42864694D01*
X36638779Y-42839821D01*
X36613906Y-42809514D01*
X36595424Y-42774937D01*
X36584043Y-42737418D01*
X36580200Y-42698400D01*
X36580200Y-41691553D01*
X36579200Y-41681400D01*
X36579200Y-41427400D01*
X36583043Y-41388382D01*
X36594424Y-41350863D01*
X36612906Y-41316286D01*
X36637779Y-41285979D01*
X36638328Y-41285528D01*
X36638779Y-41284979D01*
X36669086Y-41260106D01*
X36703663Y-41241624D01*
X36741182Y-41230243D01*
X36780200Y-41226400D01*
X37043200Y-41226400D01*
X37053353Y-41227400D01*
X39827200Y-41227400D01*
X39866218Y-41231243D01*
X39903737Y-41242624D01*
X39938314Y-41261106D01*
X39968621Y-41285979D01*
X39993494Y-41316286D01*
X40011976Y-41350863D01*
X40023357Y-41388382D01*
X40027200Y-41427400D01*
X40027200Y-41681400D01*
X40023357Y-41720418D01*
X40011976Y-41757937D01*
X39993494Y-41792514D01*
X39968621Y-41822821D01*
X39938314Y-41847694D01*
X39903737Y-41866176D01*
X39866218Y-41877557D01*
X39827200Y-41881400D01*
X37243200Y-41881400D01*
X37243200Y-42234400D01*
X39319200Y-42234400D01*
X39358218Y-42238243D01*
X39395737Y-42249624D01*
X39430314Y-42268106D01*
X39460621Y-42292979D01*
X39485494Y-42323286D01*
X39503976Y-42357863D01*
X39515357Y-42395382D01*
X39519200Y-42434400D01*
X39519200Y-42698400D01*
X39515357Y-42737418D01*
X39503976Y-42774937D01*
X39485494Y-42809514D01*
X39460621Y-42839821D01*
X39430314Y-42864694D01*
X39395737Y-42883176D01*
X39358218Y-42894557D01*
X39319200Y-42898400D01*
X36780200Y-42898400D01*
X36741182Y-42894557D01*
G37*
G36*
X39865218Y-41738243D02*
G01*
X39902737Y-41749624D01*
X39937314Y-41768106D01*
X39967621Y-41792979D01*
X39992494Y-41823286D01*
X40010976Y-41857863D01*
X40022357Y-41895382D01*
X40026200Y-41934400D01*
X40026200Y-42941247D01*
X40027200Y-42951400D01*
X40027200Y-43205400D01*
X40023357Y-43244418D01*
X40011976Y-43281937D01*
X39993494Y-43316514D01*
X39968621Y-43346821D01*
X39968072Y-43347272D01*
X39967621Y-43347821D01*
X39937314Y-43372694D01*
X39902737Y-43391176D01*
X39865218Y-43402557D01*
X39826200Y-43406400D01*
X39563200Y-43406400D01*
X39553047Y-43405400D01*
X36779200Y-43405400D01*
X36740182Y-43401557D01*
X36702663Y-43390176D01*
X36668086Y-43371694D01*
X36637779Y-43346821D01*
X36612906Y-43316514D01*
X36594424Y-43281937D01*
X36583043Y-43244418D01*
X36579200Y-43205400D01*
X36579200Y-42951400D01*
X36583043Y-42912382D01*
X36594424Y-42874863D01*
X36612906Y-42840286D01*
X36637779Y-42809979D01*
X36668086Y-42785106D01*
X36702663Y-42766624D01*
X36740182Y-42755243D01*
X36779200Y-42751400D01*
X39363200Y-42751400D01*
X39363200Y-42398400D01*
X37287200Y-42398400D01*
X37248182Y-42394557D01*
X37210663Y-42383176D01*
X37176086Y-42364694D01*
X37145779Y-42339821D01*
X37120906Y-42309514D01*
X37102424Y-42274937D01*
X37091043Y-42237418D01*
X37087200Y-42198400D01*
X37087200Y-41934400D01*
X37091043Y-41895382D01*
X37102424Y-41857863D01*
X37120906Y-41823286D01*
X37145779Y-41792979D01*
X37176086Y-41768106D01*
X37210663Y-41749624D01*
X37248182Y-41738243D01*
X37287200Y-41734400D01*
X39826200Y-41734400D01*
X39865218Y-41738243D01*
G37*
%TD*%
%TO.C,SW_5*%
G36*
X31254782Y-42843757D02*
G01*
X31217263Y-42832376D01*
X31182686Y-42813894D01*
X31152379Y-42789021D01*
X31127506Y-42758714D01*
X31109024Y-42724137D01*
X31097643Y-42686618D01*
X31093800Y-42647600D01*
X31093800Y-41640753D01*
X31092800Y-41630600D01*
X31092800Y-41376600D01*
X31096643Y-41337582D01*
X31108024Y-41300063D01*
X31126506Y-41265486D01*
X31151379Y-41235179D01*
X31151928Y-41234728D01*
X31152379Y-41234179D01*
X31182686Y-41209306D01*
X31217263Y-41190824D01*
X31254782Y-41179443D01*
X31293800Y-41175600D01*
X31556800Y-41175600D01*
X31566953Y-41176600D01*
X34340800Y-41176600D01*
X34379818Y-41180443D01*
X34417337Y-41191824D01*
X34451914Y-41210306D01*
X34482221Y-41235179D01*
X34507094Y-41265486D01*
X34525576Y-41300063D01*
X34536957Y-41337582D01*
X34540800Y-41376600D01*
X34540800Y-41630600D01*
X34536957Y-41669618D01*
X34525576Y-41707137D01*
X34507094Y-41741714D01*
X34482221Y-41772021D01*
X34451914Y-41796894D01*
X34417337Y-41815376D01*
X34379818Y-41826757D01*
X34340800Y-41830600D01*
X31756800Y-41830600D01*
X31756800Y-42183600D01*
X33832800Y-42183600D01*
X33871818Y-42187443D01*
X33909337Y-42198824D01*
X33943914Y-42217306D01*
X33974221Y-42242179D01*
X33999094Y-42272486D01*
X34017576Y-42307063D01*
X34028957Y-42344582D01*
X34032800Y-42383600D01*
X34032800Y-42647600D01*
X34028957Y-42686618D01*
X34017576Y-42724137D01*
X33999094Y-42758714D01*
X33974221Y-42789021D01*
X33943914Y-42813894D01*
X33909337Y-42832376D01*
X33871818Y-42843757D01*
X33832800Y-42847600D01*
X31293800Y-42847600D01*
X31254782Y-42843757D01*
G37*
G36*
X34378818Y-41687443D02*
G01*
X34416337Y-41698824D01*
X34450914Y-41717306D01*
X34481221Y-41742179D01*
X34506094Y-41772486D01*
X34524576Y-41807063D01*
X34535957Y-41844582D01*
X34539800Y-41883600D01*
X34539800Y-42890447D01*
X34540800Y-42900600D01*
X34540800Y-43154600D01*
X34536957Y-43193618D01*
X34525576Y-43231137D01*
X34507094Y-43265714D01*
X34482221Y-43296021D01*
X34481672Y-43296472D01*
X34481221Y-43297021D01*
X34450914Y-43321894D01*
X34416337Y-43340376D01*
X34378818Y-43351757D01*
X34339800Y-43355600D01*
X34076800Y-43355600D01*
X34066647Y-43354600D01*
X31292800Y-43354600D01*
X31253782Y-43350757D01*
X31216263Y-43339376D01*
X31181686Y-43320894D01*
X31151379Y-43296021D01*
X31126506Y-43265714D01*
X31108024Y-43231137D01*
X31096643Y-43193618D01*
X31092800Y-43154600D01*
X31092800Y-42900600D01*
X31096643Y-42861582D01*
X31108024Y-42824063D01*
X31126506Y-42789486D01*
X31151379Y-42759179D01*
X31181686Y-42734306D01*
X31216263Y-42715824D01*
X31253782Y-42704443D01*
X31292800Y-42700600D01*
X33876800Y-42700600D01*
X33876800Y-42347600D01*
X31800800Y-42347600D01*
X31761782Y-42343757D01*
X31724263Y-42332376D01*
X31689686Y-42313894D01*
X31659379Y-42289021D01*
X31634506Y-42258714D01*
X31616024Y-42224137D01*
X31604643Y-42186618D01*
X31600800Y-42147600D01*
X31600800Y-41883600D01*
X31604643Y-41844582D01*
X31616024Y-41807063D01*
X31634506Y-41772486D01*
X31659379Y-41742179D01*
X31689686Y-41717306D01*
X31724263Y-41698824D01*
X31761782Y-41687443D01*
X31800800Y-41683600D01*
X34339800Y-41683600D01*
X34378818Y-41687443D01*
G37*
%TD*%
%TO.C,SW_7*%
G36*
X36741182Y-38779757D02*
G01*
X36703663Y-38768376D01*
X36669086Y-38749894D01*
X36638779Y-38725021D01*
X36613906Y-38694714D01*
X36595424Y-38660137D01*
X36584043Y-38622618D01*
X36580200Y-38583600D01*
X36580200Y-37576753D01*
X36579200Y-37566600D01*
X36579200Y-37312600D01*
X36583043Y-37273582D01*
X36594424Y-37236063D01*
X36612906Y-37201486D01*
X36637779Y-37171179D01*
X36638328Y-37170728D01*
X36638779Y-37170179D01*
X36669086Y-37145306D01*
X36703663Y-37126824D01*
X36741182Y-37115443D01*
X36780200Y-37111600D01*
X37043200Y-37111600D01*
X37053353Y-37112600D01*
X39827200Y-37112600D01*
X39866218Y-37116443D01*
X39903737Y-37127824D01*
X39938314Y-37146306D01*
X39968621Y-37171179D01*
X39993494Y-37201486D01*
X40011976Y-37236063D01*
X40023357Y-37273582D01*
X40027200Y-37312600D01*
X40027200Y-37566600D01*
X40023357Y-37605618D01*
X40011976Y-37643137D01*
X39993494Y-37677714D01*
X39968621Y-37708021D01*
X39938314Y-37732894D01*
X39903737Y-37751376D01*
X39866218Y-37762757D01*
X39827200Y-37766600D01*
X37243200Y-37766600D01*
X37243200Y-38119600D01*
X39319200Y-38119600D01*
X39358218Y-38123443D01*
X39395737Y-38134824D01*
X39430314Y-38153306D01*
X39460621Y-38178179D01*
X39485494Y-38208486D01*
X39503976Y-38243063D01*
X39515357Y-38280582D01*
X39519200Y-38319600D01*
X39519200Y-38583600D01*
X39515357Y-38622618D01*
X39503976Y-38660137D01*
X39485494Y-38694714D01*
X39460621Y-38725021D01*
X39430314Y-38749894D01*
X39395737Y-38768376D01*
X39358218Y-38779757D01*
X39319200Y-38783600D01*
X36780200Y-38783600D01*
X36741182Y-38779757D01*
G37*
G36*
X39865218Y-37623443D02*
G01*
X39902737Y-37634824D01*
X39937314Y-37653306D01*
X39967621Y-37678179D01*
X39992494Y-37708486D01*
X40010976Y-37743063D01*
X40022357Y-37780582D01*
X40026200Y-37819600D01*
X40026200Y-38826447D01*
X40027200Y-38836600D01*
X40027200Y-39090600D01*
X40023357Y-39129618D01*
X40011976Y-39167137D01*
X39993494Y-39201714D01*
X39968621Y-39232021D01*
X39968072Y-39232472D01*
X39967621Y-39233021D01*
X39937314Y-39257894D01*
X39902737Y-39276376D01*
X39865218Y-39287757D01*
X39826200Y-39291600D01*
X39563200Y-39291600D01*
X39553047Y-39290600D01*
X36779200Y-39290600D01*
X36740182Y-39286757D01*
X36702663Y-39275376D01*
X36668086Y-39256894D01*
X36637779Y-39232021D01*
X36612906Y-39201714D01*
X36594424Y-39167137D01*
X36583043Y-39129618D01*
X36579200Y-39090600D01*
X36579200Y-38836600D01*
X36583043Y-38797582D01*
X36594424Y-38760063D01*
X36612906Y-38725486D01*
X36637779Y-38695179D01*
X36668086Y-38670306D01*
X36702663Y-38651824D01*
X36740182Y-38640443D01*
X36779200Y-38636600D01*
X39363200Y-38636600D01*
X39363200Y-38283600D01*
X37287200Y-38283600D01*
X37248182Y-38279757D01*
X37210663Y-38268376D01*
X37176086Y-38249894D01*
X37145779Y-38225021D01*
X37120906Y-38194714D01*
X37102424Y-38160137D01*
X37091043Y-38122618D01*
X37087200Y-38083600D01*
X37087200Y-37819600D01*
X37091043Y-37780582D01*
X37102424Y-37743063D01*
X37120906Y-37708486D01*
X37145779Y-37678179D01*
X37176086Y-37653306D01*
X37210663Y-37634824D01*
X37248182Y-37623443D01*
X37287200Y-37619600D01*
X39826200Y-37619600D01*
X39865218Y-37623443D01*
G37*
%TD*%
%TO.C,SW_8*%
G36*
X31254782Y-38779757D02*
G01*
X31217263Y-38768376D01*
X31182686Y-38749894D01*
X31152379Y-38725021D01*
X31127506Y-38694714D01*
X31109024Y-38660137D01*
X31097643Y-38622618D01*
X31093800Y-38583600D01*
X31093800Y-37576753D01*
X31092800Y-37566600D01*
X31092800Y-37312600D01*
X31096643Y-37273582D01*
X31108024Y-37236063D01*
X31126506Y-37201486D01*
X31151379Y-37171179D01*
X31151928Y-37170728D01*
X31152379Y-37170179D01*
X31182686Y-37145306D01*
X31217263Y-37126824D01*
X31254782Y-37115443D01*
X31293800Y-37111600D01*
X31556800Y-37111600D01*
X31566953Y-37112600D01*
X34340800Y-37112600D01*
X34379818Y-37116443D01*
X34417337Y-37127824D01*
X34451914Y-37146306D01*
X34482221Y-37171179D01*
X34507094Y-37201486D01*
X34525576Y-37236063D01*
X34536957Y-37273582D01*
X34540800Y-37312600D01*
X34540800Y-37566600D01*
X34536957Y-37605618D01*
X34525576Y-37643137D01*
X34507094Y-37677714D01*
X34482221Y-37708021D01*
X34451914Y-37732894D01*
X34417337Y-37751376D01*
X34379818Y-37762757D01*
X34340800Y-37766600D01*
X31756800Y-37766600D01*
X31756800Y-38119600D01*
X33832800Y-38119600D01*
X33871818Y-38123443D01*
X33909337Y-38134824D01*
X33943914Y-38153306D01*
X33974221Y-38178179D01*
X33999094Y-38208486D01*
X34017576Y-38243063D01*
X34028957Y-38280582D01*
X34032800Y-38319600D01*
X34032800Y-38583600D01*
X34028957Y-38622618D01*
X34017576Y-38660137D01*
X33999094Y-38694714D01*
X33974221Y-38725021D01*
X33943914Y-38749894D01*
X33909337Y-38768376D01*
X33871818Y-38779757D01*
X33832800Y-38783600D01*
X31293800Y-38783600D01*
X31254782Y-38779757D01*
G37*
G36*
X34378818Y-37623443D02*
G01*
X34416337Y-37634824D01*
X34450914Y-37653306D01*
X34481221Y-37678179D01*
X34506094Y-37708486D01*
X34524576Y-37743063D01*
X34535957Y-37780582D01*
X34539800Y-37819600D01*
X34539800Y-38826447D01*
X34540800Y-38836600D01*
X34540800Y-39090600D01*
X34536957Y-39129618D01*
X34525576Y-39167137D01*
X34507094Y-39201714D01*
X34482221Y-39232021D01*
X34481672Y-39232472D01*
X34481221Y-39233021D01*
X34450914Y-39257894D01*
X34416337Y-39276376D01*
X34378818Y-39287757D01*
X34339800Y-39291600D01*
X34076800Y-39291600D01*
X34066647Y-39290600D01*
X31292800Y-39290600D01*
X31253782Y-39286757D01*
X31216263Y-39275376D01*
X31181686Y-39256894D01*
X31151379Y-39232021D01*
X31126506Y-39201714D01*
X31108024Y-39167137D01*
X31096643Y-39129618D01*
X31092800Y-39090600D01*
X31092800Y-38836600D01*
X31096643Y-38797582D01*
X31108024Y-38760063D01*
X31126506Y-38725486D01*
X31151379Y-38695179D01*
X31181686Y-38670306D01*
X31216263Y-38651824D01*
X31253782Y-38640443D01*
X31292800Y-38636600D01*
X33876800Y-38636600D01*
X33876800Y-38283600D01*
X31800800Y-38283600D01*
X31761782Y-38279757D01*
X31724263Y-38268376D01*
X31689686Y-38249894D01*
X31659379Y-38225021D01*
X31634506Y-38194714D01*
X31616024Y-38160137D01*
X31604643Y-38122618D01*
X31600800Y-38083600D01*
X31600800Y-37819600D01*
X31604643Y-37780582D01*
X31616024Y-37743063D01*
X31634506Y-37708486D01*
X31659379Y-37678179D01*
X31689686Y-37653306D01*
X31724263Y-37634824D01*
X31761782Y-37623443D01*
X31800800Y-37619600D01*
X34339800Y-37619600D01*
X34378818Y-37623443D01*
G37*
%TD*%
%TO.C,SW_9*%
G36*
X25768382Y-38779757D02*
G01*
X25730863Y-38768376D01*
X25696286Y-38749894D01*
X25665979Y-38725021D01*
X25641106Y-38694714D01*
X25622624Y-38660137D01*
X25611243Y-38622618D01*
X25607400Y-38583600D01*
X25607400Y-37576753D01*
X25606400Y-37566600D01*
X25606400Y-37312600D01*
X25610243Y-37273582D01*
X25621624Y-37236063D01*
X25640106Y-37201486D01*
X25664979Y-37171179D01*
X25665528Y-37170728D01*
X25665979Y-37170179D01*
X25696286Y-37145306D01*
X25730863Y-37126824D01*
X25768382Y-37115443D01*
X25807400Y-37111600D01*
X26070400Y-37111600D01*
X26080553Y-37112600D01*
X28854400Y-37112600D01*
X28893418Y-37116443D01*
X28930937Y-37127824D01*
X28965514Y-37146306D01*
X28995821Y-37171179D01*
X29020694Y-37201486D01*
X29039176Y-37236063D01*
X29050557Y-37273582D01*
X29054400Y-37312600D01*
X29054400Y-37566600D01*
X29050557Y-37605618D01*
X29039176Y-37643137D01*
X29020694Y-37677714D01*
X28995821Y-37708021D01*
X28965514Y-37732894D01*
X28930937Y-37751376D01*
X28893418Y-37762757D01*
X28854400Y-37766600D01*
X26270400Y-37766600D01*
X26270400Y-38119600D01*
X28346400Y-38119600D01*
X28385418Y-38123443D01*
X28422937Y-38134824D01*
X28457514Y-38153306D01*
X28487821Y-38178179D01*
X28512694Y-38208486D01*
X28531176Y-38243063D01*
X28542557Y-38280582D01*
X28546400Y-38319600D01*
X28546400Y-38583600D01*
X28542557Y-38622618D01*
X28531176Y-38660137D01*
X28512694Y-38694714D01*
X28487821Y-38725021D01*
X28457514Y-38749894D01*
X28422937Y-38768376D01*
X28385418Y-38779757D01*
X28346400Y-38783600D01*
X25807400Y-38783600D01*
X25768382Y-38779757D01*
G37*
G36*
X28892418Y-37623443D02*
G01*
X28929937Y-37634824D01*
X28964514Y-37653306D01*
X28994821Y-37678179D01*
X29019694Y-37708486D01*
X29038176Y-37743063D01*
X29049557Y-37780582D01*
X29053400Y-37819600D01*
X29053400Y-38826447D01*
X29054400Y-38836600D01*
X29054400Y-39090600D01*
X29050557Y-39129618D01*
X29039176Y-39167137D01*
X29020694Y-39201714D01*
X28995821Y-39232021D01*
X28995272Y-39232472D01*
X28994821Y-39233021D01*
X28964514Y-39257894D01*
X28929937Y-39276376D01*
X28892418Y-39287757D01*
X28853400Y-39291600D01*
X28590400Y-39291600D01*
X28580247Y-39290600D01*
X25806400Y-39290600D01*
X25767382Y-39286757D01*
X25729863Y-39275376D01*
X25695286Y-39256894D01*
X25664979Y-39232021D01*
X25640106Y-39201714D01*
X25621624Y-39167137D01*
X25610243Y-39129618D01*
X25606400Y-39090600D01*
X25606400Y-38836600D01*
X25610243Y-38797582D01*
X25621624Y-38760063D01*
X25640106Y-38725486D01*
X25664979Y-38695179D01*
X25695286Y-38670306D01*
X25729863Y-38651824D01*
X25767382Y-38640443D01*
X25806400Y-38636600D01*
X28390400Y-38636600D01*
X28390400Y-38283600D01*
X26314400Y-38283600D01*
X26275382Y-38279757D01*
X26237863Y-38268376D01*
X26203286Y-38249894D01*
X26172979Y-38225021D01*
X26148106Y-38194714D01*
X26129624Y-38160137D01*
X26118243Y-38122618D01*
X26114400Y-38083600D01*
X26114400Y-37819600D01*
X26118243Y-37780582D01*
X26129624Y-37743063D01*
X26148106Y-37708486D01*
X26172979Y-37678179D01*
X26203286Y-37653306D01*
X26237863Y-37634824D01*
X26275382Y-37623443D01*
X26314400Y-37619600D01*
X28853400Y-37619600D01*
X28892418Y-37623443D01*
G37*
%TD*%
%TO.C,SW_ADD1*%
G36*
X20281982Y-51073357D02*
G01*
X20244463Y-51061976D01*
X20209886Y-51043494D01*
X20179579Y-51018621D01*
X20154706Y-50988314D01*
X20136224Y-50953737D01*
X20124843Y-50916218D01*
X20121000Y-50877200D01*
X20121000Y-49870353D01*
X20120000Y-49860200D01*
X20120000Y-49606200D01*
X20123843Y-49567182D01*
X20135224Y-49529663D01*
X20153706Y-49495086D01*
X20178579Y-49464779D01*
X20179128Y-49464328D01*
X20179579Y-49463779D01*
X20209886Y-49438906D01*
X20244463Y-49420424D01*
X20281982Y-49409043D01*
X20321000Y-49405200D01*
X20584000Y-49405200D01*
X20594153Y-49406200D01*
X23368000Y-49406200D01*
X23407018Y-49410043D01*
X23444537Y-49421424D01*
X23479114Y-49439906D01*
X23509421Y-49464779D01*
X23534294Y-49495086D01*
X23552776Y-49529663D01*
X23564157Y-49567182D01*
X23568000Y-49606200D01*
X23568000Y-49860200D01*
X23564157Y-49899218D01*
X23552776Y-49936737D01*
X23534294Y-49971314D01*
X23509421Y-50001621D01*
X23479114Y-50026494D01*
X23444537Y-50044976D01*
X23407018Y-50056357D01*
X23368000Y-50060200D01*
X20784000Y-50060200D01*
X20784000Y-50413200D01*
X22860000Y-50413200D01*
X22899018Y-50417043D01*
X22936537Y-50428424D01*
X22971114Y-50446906D01*
X23001421Y-50471779D01*
X23026294Y-50502086D01*
X23044776Y-50536663D01*
X23056157Y-50574182D01*
X23060000Y-50613200D01*
X23060000Y-50877200D01*
X23056157Y-50916218D01*
X23044776Y-50953737D01*
X23026294Y-50988314D01*
X23001421Y-51018621D01*
X22971114Y-51043494D01*
X22936537Y-51061976D01*
X22899018Y-51073357D01*
X22860000Y-51077200D01*
X20321000Y-51077200D01*
X20281982Y-51073357D01*
G37*
G36*
X23406018Y-49917043D02*
G01*
X23443537Y-49928424D01*
X23478114Y-49946906D01*
X23508421Y-49971779D01*
X23533294Y-50002086D01*
X23551776Y-50036663D01*
X23563157Y-50074182D01*
X23567000Y-50113200D01*
X23567000Y-51120047D01*
X23568000Y-51130200D01*
X23568000Y-51384200D01*
X23564157Y-51423218D01*
X23552776Y-51460737D01*
X23534294Y-51495314D01*
X23509421Y-51525621D01*
X23508872Y-51526072D01*
X23508421Y-51526621D01*
X23478114Y-51551494D01*
X23443537Y-51569976D01*
X23406018Y-51581357D01*
X23367000Y-51585200D01*
X23104000Y-51585200D01*
X23093847Y-51584200D01*
X20320000Y-51584200D01*
X20280982Y-51580357D01*
X20243463Y-51568976D01*
X20208886Y-51550494D01*
X20178579Y-51525621D01*
X20153706Y-51495314D01*
X20135224Y-51460737D01*
X20123843Y-51423218D01*
X20120000Y-51384200D01*
X20120000Y-51130200D01*
X20123843Y-51091182D01*
X20135224Y-51053663D01*
X20153706Y-51019086D01*
X20178579Y-50988779D01*
X20208886Y-50963906D01*
X20243463Y-50945424D01*
X20280982Y-50934043D01*
X20320000Y-50930200D01*
X22904000Y-50930200D01*
X22904000Y-50577200D01*
X20828000Y-50577200D01*
X20788982Y-50573357D01*
X20751463Y-50561976D01*
X20716886Y-50543494D01*
X20686579Y-50518621D01*
X20661706Y-50488314D01*
X20643224Y-50453737D01*
X20631843Y-50416218D01*
X20628000Y-50377200D01*
X20628000Y-50113200D01*
X20631843Y-50074182D01*
X20643224Y-50036663D01*
X20661706Y-50002086D01*
X20686579Y-49971779D01*
X20716886Y-49946906D01*
X20751463Y-49928424D01*
X20788982Y-49917043D01*
X20828000Y-49913200D01*
X23367000Y-49913200D01*
X23406018Y-49917043D01*
G37*
%TD*%
%TO.C,SW_DIV1*%
G36*
X20281982Y-38779757D02*
G01*
X20244463Y-38768376D01*
X20209886Y-38749894D01*
X20179579Y-38725021D01*
X20154706Y-38694714D01*
X20136224Y-38660137D01*
X20124843Y-38622618D01*
X20121000Y-38583600D01*
X20121000Y-37576753D01*
X20120000Y-37566600D01*
X20120000Y-37312600D01*
X20123843Y-37273582D01*
X20135224Y-37236063D01*
X20153706Y-37201486D01*
X20178579Y-37171179D01*
X20179128Y-37170728D01*
X20179579Y-37170179D01*
X20209886Y-37145306D01*
X20244463Y-37126824D01*
X20281982Y-37115443D01*
X20321000Y-37111600D01*
X20584000Y-37111600D01*
X20594153Y-37112600D01*
X23368000Y-37112600D01*
X23407018Y-37116443D01*
X23444537Y-37127824D01*
X23479114Y-37146306D01*
X23509421Y-37171179D01*
X23534294Y-37201486D01*
X23552776Y-37236063D01*
X23564157Y-37273582D01*
X23568000Y-37312600D01*
X23568000Y-37566600D01*
X23564157Y-37605618D01*
X23552776Y-37643137D01*
X23534294Y-37677714D01*
X23509421Y-37708021D01*
X23479114Y-37732894D01*
X23444537Y-37751376D01*
X23407018Y-37762757D01*
X23368000Y-37766600D01*
X20784000Y-37766600D01*
X20784000Y-38119600D01*
X22860000Y-38119600D01*
X22899018Y-38123443D01*
X22936537Y-38134824D01*
X22971114Y-38153306D01*
X23001421Y-38178179D01*
X23026294Y-38208486D01*
X23044776Y-38243063D01*
X23056157Y-38280582D01*
X23060000Y-38319600D01*
X23060000Y-38583600D01*
X23056157Y-38622618D01*
X23044776Y-38660137D01*
X23026294Y-38694714D01*
X23001421Y-38725021D01*
X22971114Y-38749894D01*
X22936537Y-38768376D01*
X22899018Y-38779757D01*
X22860000Y-38783600D01*
X20321000Y-38783600D01*
X20281982Y-38779757D01*
G37*
G36*
X23406018Y-37623443D02*
G01*
X23443537Y-37634824D01*
X23478114Y-37653306D01*
X23508421Y-37678179D01*
X23533294Y-37708486D01*
X23551776Y-37743063D01*
X23563157Y-37780582D01*
X23567000Y-37819600D01*
X23567000Y-38826447D01*
X23568000Y-38836600D01*
X23568000Y-39090600D01*
X23564157Y-39129618D01*
X23552776Y-39167137D01*
X23534294Y-39201714D01*
X23509421Y-39232021D01*
X23508872Y-39232472D01*
X23508421Y-39233021D01*
X23478114Y-39257894D01*
X23443537Y-39276376D01*
X23406018Y-39287757D01*
X23367000Y-39291600D01*
X23104000Y-39291600D01*
X23093847Y-39290600D01*
X20320000Y-39290600D01*
X20280982Y-39286757D01*
X20243463Y-39275376D01*
X20208886Y-39256894D01*
X20178579Y-39232021D01*
X20153706Y-39201714D01*
X20135224Y-39167137D01*
X20123843Y-39129618D01*
X20120000Y-39090600D01*
X20120000Y-38836600D01*
X20123843Y-38797582D01*
X20135224Y-38760063D01*
X20153706Y-38725486D01*
X20178579Y-38695179D01*
X20208886Y-38670306D01*
X20243463Y-38651824D01*
X20280982Y-38640443D01*
X20320000Y-38636600D01*
X22904000Y-38636600D01*
X22904000Y-38283600D01*
X20828000Y-38283600D01*
X20788982Y-38279757D01*
X20751463Y-38268376D01*
X20716886Y-38249894D01*
X20686579Y-38225021D01*
X20661706Y-38194714D01*
X20643224Y-38160137D01*
X20631843Y-38122618D01*
X20628000Y-38083600D01*
X20628000Y-37819600D01*
X20631843Y-37780582D01*
X20643224Y-37743063D01*
X20661706Y-37708486D01*
X20686579Y-37678179D01*
X20716886Y-37653306D01*
X20751463Y-37634824D01*
X20788982Y-37623443D01*
X20828000Y-37619600D01*
X23367000Y-37619600D01*
X23406018Y-37623443D01*
G37*
%TD*%
%TO.C,SW_DOT1*%
G36*
X34378818Y-49917043D02*
G01*
X34416337Y-49928424D01*
X34450914Y-49946906D01*
X34481221Y-49971779D01*
X34506094Y-50002086D01*
X34524576Y-50036663D01*
X34535957Y-50074182D01*
X34539800Y-50113200D01*
X34539800Y-51120047D01*
X34540800Y-51130200D01*
X34540800Y-51384200D01*
X34536957Y-51423218D01*
X34525576Y-51460737D01*
X34507094Y-51495314D01*
X34482221Y-51525621D01*
X34481672Y-51526072D01*
X34481221Y-51526621D01*
X34450914Y-51551494D01*
X34416337Y-51569976D01*
X34378818Y-51581357D01*
X34339800Y-51585200D01*
X34076800Y-51585200D01*
X34066647Y-51584200D01*
X31292800Y-51584200D01*
X31253782Y-51580357D01*
X31216263Y-51568976D01*
X31181686Y-51550494D01*
X31151379Y-51525621D01*
X31126506Y-51495314D01*
X31108024Y-51460737D01*
X31096643Y-51423218D01*
X31092800Y-51384200D01*
X31092800Y-51130200D01*
X31096643Y-51091182D01*
X31108024Y-51053663D01*
X31126506Y-51019086D01*
X31151379Y-50988779D01*
X31181686Y-50963906D01*
X31216263Y-50945424D01*
X31253782Y-50934043D01*
X31292800Y-50930200D01*
X33876800Y-50930200D01*
X33876800Y-50577200D01*
X31800800Y-50577200D01*
X31761782Y-50573357D01*
X31724263Y-50561976D01*
X31689686Y-50543494D01*
X31659379Y-50518621D01*
X31634506Y-50488314D01*
X31616024Y-50453737D01*
X31604643Y-50416218D01*
X31600800Y-50377200D01*
X31600800Y-50113200D01*
X31604643Y-50074182D01*
X31616024Y-50036663D01*
X31634506Y-50002086D01*
X31659379Y-49971779D01*
X31689686Y-49946906D01*
X31724263Y-49928424D01*
X31761782Y-49917043D01*
X31800800Y-49913200D01*
X34339800Y-49913200D01*
X34378818Y-49917043D01*
G37*
G36*
X31254782Y-51073357D02*
G01*
X31217263Y-51061976D01*
X31182686Y-51043494D01*
X31152379Y-51018621D01*
X31127506Y-50988314D01*
X31109024Y-50953737D01*
X31097643Y-50916218D01*
X31093800Y-50877200D01*
X31093800Y-49870353D01*
X31092800Y-49860200D01*
X31092800Y-49606200D01*
X31096643Y-49567182D01*
X31108024Y-49529663D01*
X31126506Y-49495086D01*
X31151379Y-49464779D01*
X31151928Y-49464328D01*
X31152379Y-49463779D01*
X31182686Y-49438906D01*
X31217263Y-49420424D01*
X31254782Y-49409043D01*
X31293800Y-49405200D01*
X31556800Y-49405200D01*
X31566953Y-49406200D01*
X34340800Y-49406200D01*
X34379818Y-49410043D01*
X34417337Y-49421424D01*
X34451914Y-49439906D01*
X34482221Y-49464779D01*
X34507094Y-49495086D01*
X34525576Y-49529663D01*
X34536957Y-49567182D01*
X34540800Y-49606200D01*
X34540800Y-49860200D01*
X34536957Y-49899218D01*
X34525576Y-49936737D01*
X34507094Y-49971314D01*
X34482221Y-50001621D01*
X34451914Y-50026494D01*
X34417337Y-50044976D01*
X34379818Y-50056357D01*
X34340800Y-50060200D01*
X31756800Y-50060200D01*
X31756800Y-50413200D01*
X33832800Y-50413200D01*
X33871818Y-50417043D01*
X33909337Y-50428424D01*
X33943914Y-50446906D01*
X33974221Y-50471779D01*
X33999094Y-50502086D01*
X34017576Y-50536663D01*
X34028957Y-50574182D01*
X34032800Y-50613200D01*
X34032800Y-50877200D01*
X34028957Y-50916218D01*
X34017576Y-50953737D01*
X33999094Y-50988314D01*
X33974221Y-51018621D01*
X33943914Y-51043494D01*
X33909337Y-51061976D01*
X33871818Y-51073357D01*
X33832800Y-51077200D01*
X31293800Y-51077200D01*
X31254782Y-51073357D01*
G37*
%TD*%
%TO.C,SW_EQ1*%
G36*
X28892418Y-49917043D02*
G01*
X28929937Y-49928424D01*
X28964514Y-49946906D01*
X28994821Y-49971779D01*
X29019694Y-50002086D01*
X29038176Y-50036663D01*
X29049557Y-50074182D01*
X29053400Y-50113200D01*
X29053400Y-51120047D01*
X29054400Y-51130200D01*
X29054400Y-51384200D01*
X29050557Y-51423218D01*
X29039176Y-51460737D01*
X29020694Y-51495314D01*
X28995821Y-51525621D01*
X28995272Y-51526072D01*
X28994821Y-51526621D01*
X28964514Y-51551494D01*
X28929937Y-51569976D01*
X28892418Y-51581357D01*
X28853400Y-51585200D01*
X28590400Y-51585200D01*
X28580247Y-51584200D01*
X25806400Y-51584200D01*
X25767382Y-51580357D01*
X25729863Y-51568976D01*
X25695286Y-51550494D01*
X25664979Y-51525621D01*
X25640106Y-51495314D01*
X25621624Y-51460737D01*
X25610243Y-51423218D01*
X25606400Y-51384200D01*
X25606400Y-51130200D01*
X25610243Y-51091182D01*
X25621624Y-51053663D01*
X25640106Y-51019086D01*
X25664979Y-50988779D01*
X25695286Y-50963906D01*
X25729863Y-50945424D01*
X25767382Y-50934043D01*
X25806400Y-50930200D01*
X28390400Y-50930200D01*
X28390400Y-50577200D01*
X26314400Y-50577200D01*
X26275382Y-50573357D01*
X26237863Y-50561976D01*
X26203286Y-50543494D01*
X26172979Y-50518621D01*
X26148106Y-50488314D01*
X26129624Y-50453737D01*
X26118243Y-50416218D01*
X26114400Y-50377200D01*
X26114400Y-50113200D01*
X26118243Y-50074182D01*
X26129624Y-50036663D01*
X26148106Y-50002086D01*
X26172979Y-49971779D01*
X26203286Y-49946906D01*
X26237863Y-49928424D01*
X26275382Y-49917043D01*
X26314400Y-49913200D01*
X28853400Y-49913200D01*
X28892418Y-49917043D01*
G37*
G36*
X25768382Y-51073357D02*
G01*
X25730863Y-51061976D01*
X25696286Y-51043494D01*
X25665979Y-51018621D01*
X25641106Y-50988314D01*
X25622624Y-50953737D01*
X25611243Y-50916218D01*
X25607400Y-50877200D01*
X25607400Y-49870353D01*
X25606400Y-49860200D01*
X25606400Y-49606200D01*
X25610243Y-49567182D01*
X25621624Y-49529663D01*
X25640106Y-49495086D01*
X25664979Y-49464779D01*
X25665528Y-49464328D01*
X25665979Y-49463779D01*
X25696286Y-49438906D01*
X25730863Y-49420424D01*
X25768382Y-49409043D01*
X25807400Y-49405200D01*
X26070400Y-49405200D01*
X26080553Y-49406200D01*
X28854400Y-49406200D01*
X28893418Y-49410043D01*
X28930937Y-49421424D01*
X28965514Y-49439906D01*
X28995821Y-49464779D01*
X29020694Y-49495086D01*
X29039176Y-49529663D01*
X29050557Y-49567182D01*
X29054400Y-49606200D01*
X29054400Y-49860200D01*
X29050557Y-49899218D01*
X29039176Y-49936737D01*
X29020694Y-49971314D01*
X28995821Y-50001621D01*
X28965514Y-50026494D01*
X28930937Y-50044976D01*
X28893418Y-50056357D01*
X28854400Y-50060200D01*
X26270400Y-50060200D01*
X26270400Y-50413200D01*
X28346400Y-50413200D01*
X28385418Y-50417043D01*
X28422937Y-50428424D01*
X28457514Y-50446906D01*
X28487821Y-50471779D01*
X28512694Y-50502086D01*
X28531176Y-50536663D01*
X28542557Y-50574182D01*
X28546400Y-50613200D01*
X28546400Y-50877200D01*
X28542557Y-50916218D01*
X28531176Y-50953737D01*
X28512694Y-50988314D01*
X28487821Y-51018621D01*
X28457514Y-51043494D01*
X28422937Y-51061976D01*
X28385418Y-51073357D01*
X28346400Y-51077200D01*
X25807400Y-51077200D01*
X25768382Y-51073357D01*
G37*
%TD*%
%TO.C,SW_M1*%
G36*
X42278382Y-42894557D02*
G01*
X42240863Y-42883176D01*
X42206286Y-42864694D01*
X42175979Y-42839821D01*
X42151106Y-42809514D01*
X42132624Y-42774937D01*
X42121243Y-42737418D01*
X42117400Y-42698400D01*
X42117400Y-41691553D01*
X42116400Y-41681400D01*
X42116400Y-41427400D01*
X42120243Y-41388382D01*
X42131624Y-41350863D01*
X42150106Y-41316286D01*
X42174979Y-41285979D01*
X42175528Y-41285528D01*
X42175979Y-41284979D01*
X42206286Y-41260106D01*
X42240863Y-41241624D01*
X42278382Y-41230243D01*
X42317400Y-41226400D01*
X42580400Y-41226400D01*
X42590553Y-41227400D01*
X45364400Y-41227400D01*
X45403418Y-41231243D01*
X45440937Y-41242624D01*
X45475514Y-41261106D01*
X45505821Y-41285979D01*
X45530694Y-41316286D01*
X45549176Y-41350863D01*
X45560557Y-41388382D01*
X45564400Y-41427400D01*
X45564400Y-41681400D01*
X45560557Y-41720418D01*
X45549176Y-41757937D01*
X45530694Y-41792514D01*
X45505821Y-41822821D01*
X45475514Y-41847694D01*
X45440937Y-41866176D01*
X45403418Y-41877557D01*
X45364400Y-41881400D01*
X42780400Y-41881400D01*
X42780400Y-42234400D01*
X44856400Y-42234400D01*
X44895418Y-42238243D01*
X44932937Y-42249624D01*
X44967514Y-42268106D01*
X44997821Y-42292979D01*
X45022694Y-42323286D01*
X45041176Y-42357863D01*
X45052557Y-42395382D01*
X45056400Y-42434400D01*
X45056400Y-42698400D01*
X45052557Y-42737418D01*
X45041176Y-42774937D01*
X45022694Y-42809514D01*
X44997821Y-42839821D01*
X44967514Y-42864694D01*
X44932937Y-42883176D01*
X44895418Y-42894557D01*
X44856400Y-42898400D01*
X42317400Y-42898400D01*
X42278382Y-42894557D01*
G37*
G36*
X45402418Y-41738243D02*
G01*
X45439937Y-41749624D01*
X45474514Y-41768106D01*
X45504821Y-41792979D01*
X45529694Y-41823286D01*
X45548176Y-41857863D01*
X45559557Y-41895382D01*
X45563400Y-41934400D01*
X45563400Y-42941247D01*
X45564400Y-42951400D01*
X45564400Y-43205400D01*
X45560557Y-43244418D01*
X45549176Y-43281937D01*
X45530694Y-43316514D01*
X45505821Y-43346821D01*
X45505272Y-43347272D01*
X45504821Y-43347821D01*
X45474514Y-43372694D01*
X45439937Y-43391176D01*
X45402418Y-43402557D01*
X45363400Y-43406400D01*
X45100400Y-43406400D01*
X45090247Y-43405400D01*
X42316400Y-43405400D01*
X42277382Y-43401557D01*
X42239863Y-43390176D01*
X42205286Y-43371694D01*
X42174979Y-43346821D01*
X42150106Y-43316514D01*
X42131624Y-43281937D01*
X42120243Y-43244418D01*
X42116400Y-43205400D01*
X42116400Y-42951400D01*
X42120243Y-42912382D01*
X42131624Y-42874863D01*
X42150106Y-42840286D01*
X42174979Y-42809979D01*
X42205286Y-42785106D01*
X42239863Y-42766624D01*
X42277382Y-42755243D01*
X42316400Y-42751400D01*
X44900400Y-42751400D01*
X44900400Y-42398400D01*
X42824400Y-42398400D01*
X42785382Y-42394557D01*
X42747863Y-42383176D01*
X42713286Y-42364694D01*
X42682979Y-42339821D01*
X42658106Y-42309514D01*
X42639624Y-42274937D01*
X42628243Y-42237418D01*
X42624400Y-42198400D01*
X42624400Y-41934400D01*
X42628243Y-41895382D01*
X42639624Y-41857863D01*
X42658106Y-41823286D01*
X42682979Y-41792979D01*
X42713286Y-41768106D01*
X42747863Y-41749624D01*
X42785382Y-41738243D01*
X42824400Y-41734400D01*
X45363400Y-41734400D01*
X45402418Y-41738243D01*
G37*
%TD*%
%TO.C,SW_MUL1*%
G36*
X20281982Y-42843757D02*
G01*
X20244463Y-42832376D01*
X20209886Y-42813894D01*
X20179579Y-42789021D01*
X20154706Y-42758714D01*
X20136224Y-42724137D01*
X20124843Y-42686618D01*
X20121000Y-42647600D01*
X20121000Y-41640753D01*
X20120000Y-41630600D01*
X20120000Y-41376600D01*
X20123843Y-41337582D01*
X20135224Y-41300063D01*
X20153706Y-41265486D01*
X20178579Y-41235179D01*
X20179128Y-41234728D01*
X20179579Y-41234179D01*
X20209886Y-41209306D01*
X20244463Y-41190824D01*
X20281982Y-41179443D01*
X20321000Y-41175600D01*
X20584000Y-41175600D01*
X20594153Y-41176600D01*
X23368000Y-41176600D01*
X23407018Y-41180443D01*
X23444537Y-41191824D01*
X23479114Y-41210306D01*
X23509421Y-41235179D01*
X23534294Y-41265486D01*
X23552776Y-41300063D01*
X23564157Y-41337582D01*
X23568000Y-41376600D01*
X23568000Y-41630600D01*
X23564157Y-41669618D01*
X23552776Y-41707137D01*
X23534294Y-41741714D01*
X23509421Y-41772021D01*
X23479114Y-41796894D01*
X23444537Y-41815376D01*
X23407018Y-41826757D01*
X23368000Y-41830600D01*
X20784000Y-41830600D01*
X20784000Y-42183600D01*
X22860000Y-42183600D01*
X22899018Y-42187443D01*
X22936537Y-42198824D01*
X22971114Y-42217306D01*
X23001421Y-42242179D01*
X23026294Y-42272486D01*
X23044776Y-42307063D01*
X23056157Y-42344582D01*
X23060000Y-42383600D01*
X23060000Y-42647600D01*
X23056157Y-42686618D01*
X23044776Y-42724137D01*
X23026294Y-42758714D01*
X23001421Y-42789021D01*
X22971114Y-42813894D01*
X22936537Y-42832376D01*
X22899018Y-42843757D01*
X22860000Y-42847600D01*
X20321000Y-42847600D01*
X20281982Y-42843757D01*
G37*
G36*
X23406018Y-41687443D02*
G01*
X23443537Y-41698824D01*
X23478114Y-41717306D01*
X23508421Y-41742179D01*
X23533294Y-41772486D01*
X23551776Y-41807063D01*
X23563157Y-41844582D01*
X23567000Y-41883600D01*
X23567000Y-42890447D01*
X23568000Y-42900600D01*
X23568000Y-43154600D01*
X23564157Y-43193618D01*
X23552776Y-43231137D01*
X23534294Y-43265714D01*
X23509421Y-43296021D01*
X23508872Y-43296472D01*
X23508421Y-43297021D01*
X23478114Y-43321894D01*
X23443537Y-43340376D01*
X23406018Y-43351757D01*
X23367000Y-43355600D01*
X23104000Y-43355600D01*
X23093847Y-43354600D01*
X20320000Y-43354600D01*
X20280982Y-43350757D01*
X20243463Y-43339376D01*
X20208886Y-43320894D01*
X20178579Y-43296021D01*
X20153706Y-43265714D01*
X20135224Y-43231137D01*
X20123843Y-43193618D01*
X20120000Y-43154600D01*
X20120000Y-42900600D01*
X20123843Y-42861582D01*
X20135224Y-42824063D01*
X20153706Y-42789486D01*
X20178579Y-42759179D01*
X20208886Y-42734306D01*
X20243463Y-42715824D01*
X20280982Y-42704443D01*
X20320000Y-42700600D01*
X22904000Y-42700600D01*
X22904000Y-42347600D01*
X20828000Y-42347600D01*
X20788982Y-42343757D01*
X20751463Y-42332376D01*
X20716886Y-42313894D01*
X20686579Y-42289021D01*
X20661706Y-42258714D01*
X20643224Y-42224137D01*
X20631843Y-42186618D01*
X20628000Y-42147600D01*
X20628000Y-41883600D01*
X20631843Y-41844582D01*
X20643224Y-41807063D01*
X20661706Y-41772486D01*
X20686579Y-41742179D01*
X20716886Y-41717306D01*
X20751463Y-41698824D01*
X20788982Y-41687443D01*
X20828000Y-41683600D01*
X23367000Y-41683600D01*
X23406018Y-41687443D01*
G37*
%TD*%
%TO.C,SW_ON1*%
G36*
X45402418Y-49917043D02*
G01*
X45439937Y-49928424D01*
X45474514Y-49946906D01*
X45504821Y-49971779D01*
X45529694Y-50002086D01*
X45548176Y-50036663D01*
X45559557Y-50074182D01*
X45563400Y-50113200D01*
X45563400Y-51120047D01*
X45564400Y-51130200D01*
X45564400Y-51384200D01*
X45560557Y-51423218D01*
X45549176Y-51460737D01*
X45530694Y-51495314D01*
X45505821Y-51525621D01*
X45505272Y-51526072D01*
X45504821Y-51526621D01*
X45474514Y-51551494D01*
X45439937Y-51569976D01*
X45402418Y-51581357D01*
X45363400Y-51585200D01*
X45100400Y-51585200D01*
X45090247Y-51584200D01*
X42316400Y-51584200D01*
X42277382Y-51580357D01*
X42239863Y-51568976D01*
X42205286Y-51550494D01*
X42174979Y-51525621D01*
X42150106Y-51495314D01*
X42131624Y-51460737D01*
X42120243Y-51423218D01*
X42116400Y-51384200D01*
X42116400Y-51130200D01*
X42120243Y-51091182D01*
X42131624Y-51053663D01*
X42150106Y-51019086D01*
X42174979Y-50988779D01*
X42205286Y-50963906D01*
X42239863Y-50945424D01*
X42277382Y-50934043D01*
X42316400Y-50930200D01*
X44900400Y-50930200D01*
X44900400Y-50577200D01*
X42824400Y-50577200D01*
X42785382Y-50573357D01*
X42747863Y-50561976D01*
X42713286Y-50543494D01*
X42682979Y-50518621D01*
X42658106Y-50488314D01*
X42639624Y-50453737D01*
X42628243Y-50416218D01*
X42624400Y-50377200D01*
X42624400Y-50113200D01*
X42628243Y-50074182D01*
X42639624Y-50036663D01*
X42658106Y-50002086D01*
X42682979Y-49971779D01*
X42713286Y-49946906D01*
X42747863Y-49928424D01*
X42785382Y-49917043D01*
X42824400Y-49913200D01*
X45363400Y-49913200D01*
X45402418Y-49917043D01*
G37*
G36*
X42278382Y-51073357D02*
G01*
X42240863Y-51061976D01*
X42206286Y-51043494D01*
X42175979Y-51018621D01*
X42151106Y-50988314D01*
X42132624Y-50953737D01*
X42121243Y-50916218D01*
X42117400Y-50877200D01*
X42117400Y-49870353D01*
X42116400Y-49860200D01*
X42116400Y-49606200D01*
X42120243Y-49567182D01*
X42131624Y-49529663D01*
X42150106Y-49495086D01*
X42174979Y-49464779D01*
X42175528Y-49464328D01*
X42175979Y-49463779D01*
X42206286Y-49438906D01*
X42240863Y-49420424D01*
X42278382Y-49409043D01*
X42317400Y-49405200D01*
X42580400Y-49405200D01*
X42590553Y-49406200D01*
X45364400Y-49406200D01*
X45403418Y-49410043D01*
X45440937Y-49421424D01*
X45475514Y-49439906D01*
X45505821Y-49464779D01*
X45530694Y-49495086D01*
X45549176Y-49529663D01*
X45560557Y-49567182D01*
X45564400Y-49606200D01*
X45564400Y-49860200D01*
X45560557Y-49899218D01*
X45549176Y-49936737D01*
X45530694Y-49971314D01*
X45505821Y-50001621D01*
X45475514Y-50026494D01*
X45440937Y-50044976D01*
X45403418Y-50056357D01*
X45364400Y-50060200D01*
X42780400Y-50060200D01*
X42780400Y-50413200D01*
X44856400Y-50413200D01*
X44895418Y-50417043D01*
X44932937Y-50428424D01*
X44967514Y-50446906D01*
X44997821Y-50471779D01*
X45022694Y-50502086D01*
X45041176Y-50536663D01*
X45052557Y-50574182D01*
X45056400Y-50613200D01*
X45056400Y-50877200D01*
X45052557Y-50916218D01*
X45041176Y-50953737D01*
X45022694Y-50988314D01*
X44997821Y-51018621D01*
X44967514Y-51043494D01*
X44932937Y-51061976D01*
X44895418Y-51073357D01*
X44856400Y-51077200D01*
X42317400Y-51077200D01*
X42278382Y-51073357D01*
G37*
%TD*%
%TO.C,SW_S1*%
G36*
X45402418Y-37623443D02*
G01*
X45439937Y-37634824D01*
X45474514Y-37653306D01*
X45504821Y-37678179D01*
X45529694Y-37708486D01*
X45548176Y-37743063D01*
X45559557Y-37780582D01*
X45563400Y-37819600D01*
X45563400Y-38826447D01*
X45564400Y-38836600D01*
X45564400Y-39090600D01*
X45560557Y-39129618D01*
X45549176Y-39167137D01*
X45530694Y-39201714D01*
X45505821Y-39232021D01*
X45505272Y-39232472D01*
X45504821Y-39233021D01*
X45474514Y-39257894D01*
X45439937Y-39276376D01*
X45402418Y-39287757D01*
X45363400Y-39291600D01*
X45100400Y-39291600D01*
X45090247Y-39290600D01*
X42316400Y-39290600D01*
X42277382Y-39286757D01*
X42239863Y-39275376D01*
X42205286Y-39256894D01*
X42174979Y-39232021D01*
X42150106Y-39201714D01*
X42131624Y-39167137D01*
X42120243Y-39129618D01*
X42116400Y-39090600D01*
X42116400Y-38836600D01*
X42120243Y-38797582D01*
X42131624Y-38760063D01*
X42150106Y-38725486D01*
X42174979Y-38695179D01*
X42205286Y-38670306D01*
X42239863Y-38651824D01*
X42277382Y-38640443D01*
X42316400Y-38636600D01*
X44900400Y-38636600D01*
X44900400Y-38283600D01*
X42824400Y-38283600D01*
X42785382Y-38279757D01*
X42747863Y-38268376D01*
X42713286Y-38249894D01*
X42682979Y-38225021D01*
X42658106Y-38194714D01*
X42639624Y-38160137D01*
X42628243Y-38122618D01*
X42624400Y-38083600D01*
X42624400Y-37819600D01*
X42628243Y-37780582D01*
X42639624Y-37743063D01*
X42658106Y-37708486D01*
X42682979Y-37678179D01*
X42713286Y-37653306D01*
X42747863Y-37634824D01*
X42785382Y-37623443D01*
X42824400Y-37619600D01*
X45363400Y-37619600D01*
X45402418Y-37623443D01*
G37*
G36*
X42278382Y-38779757D02*
G01*
X42240863Y-38768376D01*
X42206286Y-38749894D01*
X42175979Y-38725021D01*
X42151106Y-38694714D01*
X42132624Y-38660137D01*
X42121243Y-38622618D01*
X42117400Y-38583600D01*
X42117400Y-37576753D01*
X42116400Y-37566600D01*
X42116400Y-37312600D01*
X42120243Y-37273582D01*
X42131624Y-37236063D01*
X42150106Y-37201486D01*
X42174979Y-37171179D01*
X42175528Y-37170728D01*
X42175979Y-37170179D01*
X42206286Y-37145306D01*
X42240863Y-37126824D01*
X42278382Y-37115443D01*
X42317400Y-37111600D01*
X42580400Y-37111600D01*
X42590553Y-37112600D01*
X45364400Y-37112600D01*
X45403418Y-37116443D01*
X45440937Y-37127824D01*
X45475514Y-37146306D01*
X45505821Y-37171179D01*
X45530694Y-37201486D01*
X45549176Y-37236063D01*
X45560557Y-37273582D01*
X45564400Y-37312600D01*
X45564400Y-37566600D01*
X45560557Y-37605618D01*
X45549176Y-37643137D01*
X45530694Y-37677714D01*
X45505821Y-37708021D01*
X45475514Y-37732894D01*
X45440937Y-37751376D01*
X45403418Y-37762757D01*
X45364400Y-37766600D01*
X42780400Y-37766600D01*
X42780400Y-38119600D01*
X44856400Y-38119600D01*
X44895418Y-38123443D01*
X44932937Y-38134824D01*
X44967514Y-38153306D01*
X44997821Y-38178179D01*
X45022694Y-38208486D01*
X45041176Y-38243063D01*
X45052557Y-38280582D01*
X45056400Y-38319600D01*
X45056400Y-38583600D01*
X45052557Y-38622618D01*
X45041176Y-38660137D01*
X45022694Y-38694714D01*
X44997821Y-38725021D01*
X44967514Y-38749894D01*
X44932937Y-38768376D01*
X44895418Y-38779757D01*
X44856400Y-38783600D01*
X42317400Y-38783600D01*
X42278382Y-38779757D01*
G37*
%TD*%
%TO.C,SW_SQRT1*%
G36*
X45427818Y-45878443D02*
G01*
X45465337Y-45889824D01*
X45499914Y-45908306D01*
X45530221Y-45933179D01*
X45555094Y-45963486D01*
X45573576Y-45998063D01*
X45584957Y-46035582D01*
X45588800Y-46074600D01*
X45588800Y-47081447D01*
X45589800Y-47091600D01*
X45589800Y-47345600D01*
X45585957Y-47384618D01*
X45574576Y-47422137D01*
X45556094Y-47456714D01*
X45531221Y-47487021D01*
X45530672Y-47487472D01*
X45530221Y-47488021D01*
X45499914Y-47512894D01*
X45465337Y-47531376D01*
X45427818Y-47542757D01*
X45388800Y-47546600D01*
X45125800Y-47546600D01*
X45115647Y-47545600D01*
X42341800Y-47545600D01*
X42302782Y-47541757D01*
X42265263Y-47530376D01*
X42230686Y-47511894D01*
X42200379Y-47487021D01*
X42175506Y-47456714D01*
X42157024Y-47422137D01*
X42145643Y-47384618D01*
X42141800Y-47345600D01*
X42141800Y-47091600D01*
X42145643Y-47052582D01*
X42157024Y-47015063D01*
X42175506Y-46980486D01*
X42200379Y-46950179D01*
X42230686Y-46925306D01*
X42265263Y-46906824D01*
X42302782Y-46895443D01*
X42341800Y-46891600D01*
X44925800Y-46891600D01*
X44925800Y-46538600D01*
X42849800Y-46538600D01*
X42810782Y-46534757D01*
X42773263Y-46523376D01*
X42738686Y-46504894D01*
X42708379Y-46480021D01*
X42683506Y-46449714D01*
X42665024Y-46415137D01*
X42653643Y-46377618D01*
X42649800Y-46338600D01*
X42649800Y-46074600D01*
X42653643Y-46035582D01*
X42665024Y-45998063D01*
X42683506Y-45963486D01*
X42708379Y-45933179D01*
X42738686Y-45908306D01*
X42773263Y-45889824D01*
X42810782Y-45878443D01*
X42849800Y-45874600D01*
X45388800Y-45874600D01*
X45427818Y-45878443D01*
G37*
G36*
X42303782Y-47034757D02*
G01*
X42266263Y-47023376D01*
X42231686Y-47004894D01*
X42201379Y-46980021D01*
X42176506Y-46949714D01*
X42158024Y-46915137D01*
X42146643Y-46877618D01*
X42142800Y-46838600D01*
X42142800Y-45831753D01*
X42141800Y-45821600D01*
X42141800Y-45567600D01*
X42145643Y-45528582D01*
X42157024Y-45491063D01*
X42175506Y-45456486D01*
X42200379Y-45426179D01*
X42200928Y-45425728D01*
X42201379Y-45425179D01*
X42231686Y-45400306D01*
X42266263Y-45381824D01*
X42303782Y-45370443D01*
X42342800Y-45366600D01*
X42605800Y-45366600D01*
X42615953Y-45367600D01*
X45389800Y-45367600D01*
X45428818Y-45371443D01*
X45466337Y-45382824D01*
X45500914Y-45401306D01*
X45531221Y-45426179D01*
X45556094Y-45456486D01*
X45574576Y-45491063D01*
X45585957Y-45528582D01*
X45589800Y-45567600D01*
X45589800Y-45821600D01*
X45585957Y-45860618D01*
X45574576Y-45898137D01*
X45556094Y-45932714D01*
X45531221Y-45963021D01*
X45500914Y-45987894D01*
X45466337Y-46006376D01*
X45428818Y-46017757D01*
X45389800Y-46021600D01*
X42805800Y-46021600D01*
X42805800Y-46374600D01*
X44881800Y-46374600D01*
X44920818Y-46378443D01*
X44958337Y-46389824D01*
X44992914Y-46408306D01*
X45023221Y-46433179D01*
X45048094Y-46463486D01*
X45066576Y-46498063D01*
X45077957Y-46535582D01*
X45081800Y-46574600D01*
X45081800Y-46838600D01*
X45077957Y-46877618D01*
X45066576Y-46915137D01*
X45048094Y-46949714D01*
X45023221Y-46980021D01*
X44992914Y-47004894D01*
X44958337Y-47023376D01*
X44920818Y-47034757D01*
X44881800Y-47038600D01*
X42342800Y-47038600D01*
X42303782Y-47034757D01*
G37*
%TD*%
%TO.C,SW_6*%
G36*
X25768382Y-42843757D02*
G01*
X25730863Y-42832376D01*
X25696286Y-42813894D01*
X25665979Y-42789021D01*
X25641106Y-42758714D01*
X25622624Y-42724137D01*
X25611243Y-42686618D01*
X25607400Y-42647600D01*
X25607400Y-41640753D01*
X25606400Y-41630600D01*
X25606400Y-41376600D01*
X25610243Y-41337582D01*
X25621624Y-41300063D01*
X25640106Y-41265486D01*
X25664979Y-41235179D01*
X25665528Y-41234728D01*
X25665979Y-41234179D01*
X25696286Y-41209306D01*
X25730863Y-41190824D01*
X25768382Y-41179443D01*
X25807400Y-41175600D01*
X26070400Y-41175600D01*
X26080553Y-41176600D01*
X28854400Y-41176600D01*
X28893418Y-41180443D01*
X28930937Y-41191824D01*
X28965514Y-41210306D01*
X28995821Y-41235179D01*
X29020694Y-41265486D01*
X29039176Y-41300063D01*
X29050557Y-41337582D01*
X29054400Y-41376600D01*
X29054400Y-41630600D01*
X29050557Y-41669618D01*
X29039176Y-41707137D01*
X29020694Y-41741714D01*
X28995821Y-41772021D01*
X28965514Y-41796894D01*
X28930937Y-41815376D01*
X28893418Y-41826757D01*
X28854400Y-41830600D01*
X26270400Y-41830600D01*
X26270400Y-42183600D01*
X28346400Y-42183600D01*
X28385418Y-42187443D01*
X28422937Y-42198824D01*
X28457514Y-42217306D01*
X28487821Y-42242179D01*
X28512694Y-42272486D01*
X28531176Y-42307063D01*
X28542557Y-42344582D01*
X28546400Y-42383600D01*
X28546400Y-42647600D01*
X28542557Y-42686618D01*
X28531176Y-42724137D01*
X28512694Y-42758714D01*
X28487821Y-42789021D01*
X28457514Y-42813894D01*
X28422937Y-42832376D01*
X28385418Y-42843757D01*
X28346400Y-42847600D01*
X25807400Y-42847600D01*
X25768382Y-42843757D01*
G37*
G36*
X28892418Y-41687443D02*
G01*
X28929937Y-41698824D01*
X28964514Y-41717306D01*
X28994821Y-41742179D01*
X29019694Y-41772486D01*
X29038176Y-41807063D01*
X29049557Y-41844582D01*
X29053400Y-41883600D01*
X29053400Y-42890447D01*
X29054400Y-42900600D01*
X29054400Y-43154600D01*
X29050557Y-43193618D01*
X29039176Y-43231137D01*
X29020694Y-43265714D01*
X28995821Y-43296021D01*
X28995272Y-43296472D01*
X28994821Y-43297021D01*
X28964514Y-43321894D01*
X28929937Y-43340376D01*
X28892418Y-43351757D01*
X28853400Y-43355600D01*
X28590400Y-43355600D01*
X28580247Y-43354600D01*
X25806400Y-43354600D01*
X25767382Y-43350757D01*
X25729863Y-43339376D01*
X25695286Y-43320894D01*
X25664979Y-43296021D01*
X25640106Y-43265714D01*
X25621624Y-43231137D01*
X25610243Y-43193618D01*
X25606400Y-43154600D01*
X25606400Y-42900600D01*
X25610243Y-42861582D01*
X25621624Y-42824063D01*
X25640106Y-42789486D01*
X25664979Y-42759179D01*
X25695286Y-42734306D01*
X25729863Y-42715824D01*
X25767382Y-42704443D01*
X25806400Y-42700600D01*
X28390400Y-42700600D01*
X28390400Y-42347600D01*
X26314400Y-42347600D01*
X26275382Y-42343757D01*
X26237863Y-42332376D01*
X26203286Y-42313894D01*
X26172979Y-42289021D01*
X26148106Y-42258714D01*
X26129624Y-42224137D01*
X26118243Y-42186618D01*
X26114400Y-42147600D01*
X26114400Y-41883600D01*
X26118243Y-41844582D01*
X26129624Y-41807063D01*
X26148106Y-41772486D01*
X26172979Y-41742179D01*
X26203286Y-41717306D01*
X26237863Y-41698824D01*
X26275382Y-41687443D01*
X26314400Y-41683600D01*
X28853400Y-41683600D01*
X28892418Y-41687443D01*
G37*
%TD*%
D14*
%TO.C,J1*%
X42557800Y-24906600D03*
X42557800Y-29906600D03*
D15*
X45307800Y-23531600D03*
X45307800Y-31281600D03*
D16*
X41507800Y-23681600D03*
X41507800Y-31131600D03*
%TD*%
%TO.C,R1*%
G36*
G01*
X43236800Y-27631600D02*
X43986800Y-27631600D01*
G75*
G02*
X44286800Y-27931600I0J-300000D01*
G01*
X44286800Y-28531600D01*
G75*
G02*
X43986800Y-28831600I-300000J0D01*
G01*
X43236800Y-28831600D01*
G75*
G02*
X42936800Y-28531600I0J300000D01*
G01*
X42936800Y-27931600D01*
G75*
G02*
X43236800Y-27631600I300000J0D01*
G01*
G37*
G36*
G01*
X43236800Y-25981600D02*
X43986800Y-25981600D01*
G75*
G02*
X44286800Y-26281600I0J-300000D01*
G01*
X44286800Y-26881600D01*
G75*
G02*
X43986800Y-27181600I-300000J0D01*
G01*
X43236800Y-27181600D01*
G75*
G02*
X42936800Y-26881600I0J300000D01*
G01*
X42936800Y-26281600D01*
G75*
G02*
X43236800Y-25981600I300000J0D01*
G01*
G37*
%TD*%
%TO.C,D1*%
G36*
G01*
X45077300Y-27457100D02*
X45702300Y-27457100D01*
G75*
G02*
X46014800Y-27769600I0J-312500D01*
G01*
X46014800Y-28769600D01*
G75*
G02*
X45702300Y-29082100I-312500J0D01*
G01*
X45077300Y-29082100D01*
G75*
G02*
X44764800Y-28769600I0J312500D01*
G01*
X44764800Y-27769600D01*
G75*
G02*
X45077300Y-27457100I312500J0D01*
G01*
G37*
G36*
G01*
X45077300Y-25832100D02*
X45702300Y-25832100D01*
G75*
G02*
X46014800Y-26144600I0J-312500D01*
G01*
X46014800Y-27144600D01*
G75*
G02*
X45702300Y-27457100I-312500J0D01*
G01*
X45077300Y-27457100D01*
G75*
G02*
X44764800Y-27144600I0J312500D01*
G01*
X44764800Y-26144600D01*
G75*
G02*
X45077300Y-25832100I312500J0D01*
G01*
G37*
%TD*%
M02*
