M48
; DRILL file {KiCad (5.1.9-0-10_14)} date Monday, September 13, 2021 at 12:25:16 PM
; FORMAT={-:-/ absolute / inch / decimal}
; #@! TF.CreationDate,2021-09-13T12:25:16+02:00
; #@! TF.GenerationSoftware,Kicad,Pcbnew,(5.1.9-0-10_14)
; #@! TF.FileFunction,Plated,1,2,PTH
FMAT,2
INCH
T1C0.0157
T2C0.0394
T3C0.0472
T4C0.0551
%
G90
G05
T1
X0.772Y-1.4465
X0.797Y-1.2215
X0.797Y-1.2665
X0.797Y-1.3115
X0.797Y-1.3615
X0.836Y-0.944
X0.842Y-1.8915
X0.85Y-0.99
X0.85Y-1.128
X0.875Y-1.085
X0.91Y-1.085
X0.915Y-1.175
X0.916Y-0.955
X0.937Y-1.634
X0.94Y-1.25
X0.951Y-1.859
X0.951Y-2.018
X0.9579Y-1.3561
X0.97Y-1.02
X0.9745Y-1.2415
X0.9745Y-1.279
X0.975Y-1.145
X0.9933Y-1.3587
X0.995Y-1.045
X1.027Y-1.369
X1.032Y-0.878
X1.035Y-1.582
X1.045Y-1.05
X1.0642Y-1.3618
X1.082Y-1.582
X1.0996Y-1.3614
X1.118Y-0.962
X1.1351Y-1.3621
X1.147Y-1.404
X1.148Y-1.446
X1.156Y-1.694
X1.156Y-1.844
X1.163Y-1.534
X1.177Y-1.429
X1.188Y-0.906
X1.207Y-1.534
X1.207Y-1.694
X1.212Y-1.0015
X1.212Y-1.429
X1.22Y-1.19
X1.22Y-1.25
X1.28Y-1.225
X1.322Y-1.4465
X1.335Y-1.19
X1.335Y-1.25
X1.352Y-1.4365
X1.372Y-1.579
X1.3795Y-1.0465
X1.3814Y-1.7994
X1.3814Y-1.8946
X1.395Y-1.636
X1.402Y-1.409
X1.402Y-1.449
X1.422Y-1.369
X1.422Y-1.696
X1.422Y-1.799
X1.422Y-1.958
X1.423Y-1.534
X1.4535Y-1.369
X1.46Y-1.595
X1.4894Y-1.369
X1.497Y-1.099
X1.5248Y-1.3712
X1.525Y-1.405
X1.542Y-1.084
X1.555Y-1.575
X1.5602Y-1.3708
X1.596Y-1.362
X1.632Y-1.36
X1.665Y-1.435
X1.6665Y-1.358
X1.6912Y-1.5588
X1.728Y-1.378
X1.748Y-1.398
X1.814Y-1.372
T2
X1.144Y-2.142
X1.244Y-2.142
X1.344Y-2.142
X1.444Y-2.142
T3
X1.7838Y-0.9264
X1.7838Y-1.2316
T4
X1.6342Y-0.9323
X1.6342Y-1.2257
T0
M30
